{
.appVersion = "3133";
DisplayStrings = (
Handgloves,
"L/Ldot ll..·/ldot/ldot/ldot/L.sc/Ldot.sc/Ldot.sc/Ldot.sc/Ldot.sc/hacek L/Lcaron/l.sc/quoteright/l.sc/lcaron.sc/lcaron.sc/lcaron.sc/lcaron.sc ·/l.sc/ldot.sc/ldot.sc/ldot.sc/ldot.sc \012Ll/Lcaron al/lcaron aH/L.sc/Lcaron AV",
"CçÇcÇC\012é/cacute",
"/zero.dnom/zero.subs",
"/zero.dnom t/one.dnom 2t/two.dnom/three.dnom/four.dnom/five.dnom/six.dnom/seven.dnom/eight.dnom/nine.dnom",
"&",
"&",
"/wind",
"/wind",
"·/quoteright",
"/Lcaron/lslash/tcommaaccent",
"/fish",
"3/space FI/space 3<_Fire\012_FI_\0122/space HT/space 2\012/fire.001 Fire\012_Heart\012_Bone\012/leaf Leaf\012_Wood\012_Slime\012_Ice\012_Water\012_Stone\012/food Food\012/life Life\012/death Death\012_Ether\012_Sand\012_Meat\012/glass Glass\012_Blade\012/weight Weight/speed \012_J\012_Speed\012/space/space E/space/steam Steam\012/space FI/space \012d\012t_Cold/space IC/space \012_Heat\012->/space VD/space \012/void _Ether_Meat\012<html>",
"",
"/heartBlackSuit/stamina",
"/stamina"
);
classes = (
{

glyphs = (
{
glyphname = A;
lastChange = "2019-05-01 22:57:23 +0000";
layers = (
{
anchors = (
{
name = bottom;
position = "{614, 0}";
},
{
name = ogonek;
position = "{1114, 0}";
},
{
name = top;
position = "{599, 1152}";
}
);
background = {
paths = (
{
closed = 1;
nodes = (
"326 352 LINE",
"894 352 LINE",
"894 452 LINE",
"326 452 LINE"
);
},
{
closed = 1;
nodes = (
"1136 0 LINE",
"1062 186 LINE",
"744 1152 LINE",
"415 1152 LINE",
"415 1032 LINE",
"141 179 LINE",
"72 0 LINE",
"242 0 LINE",
"285 164 LINE",
"566 1048 LINE",
"622 1048 LINE",
"909 164 LINE",
"942 0 LINE"
);
},
{
closed = 1;
nodes = (
"326 350 LINE",
"894 350 LINE",
"894 450 LINE",
"326 450 LINE"
);
},
{
closed = 1;
nodes = (
"1124 0 LINE",
"744 1152 LINE",
"482 1152 LINE",
"106 0 LINE",
"232 0 LINE",
"566 1048 LINE",
"622 1048 LINE",
"962 0 LINE"
);
}
);
};
layerId = "B520048A-B5B0-4F8C-90F0-FFAF6C62D524";
paths = (
{
closed = 1;
nodes = (
"1136 0 LINE",
"1062 186 LINE",
"744 1152 LINE",
"415 1152 LINE",
"415 1032 LINE",
"141 179 LINE",
"72 0 LINE",
"222 0 LINE",
"265 164 LINE",
"546 1048 LINE",
"622 1048 LINE",
"909 164 LINE",
"942 0 LINE"
);
},
{
closed = 1;
nodes = (
"276 350 LINE",
"894 350 LINE",
"894 450 LINE",
"276 450 LINE"
);
}
);
width = 1216;
},
{
anchors = (
{
name = bottom;
position = "{582, 0}";
},
{
name = ogonek;
position = "{1024, 0}";
},
{
name = top;
position = "{582, 1152}";
}
);
layerId = "21D66A2E-3203-408D-B482-78BB09110413";
paths = (
{
closed = 1;
nodes = (
"1216 0 LINE",
"1142 186 LINE",
"814 1152 LINE",
"365 1152 LINE",
"365 1032 LINE",
"81 179 LINE",
"12 0 LINE",
"272 0 LINE",
"315 164 LINE",
"576 968 LINE",
"632 968 LINE",
"889 164 LINE",
"922 0 LINE"
);
},
{
closed = 1;
nodes = (
"336 290 LINE",
"904 290 LINE",
"904 470 LINE",
"336 470 LINE"
);
}
);
width = 1234;
},
{
anchors = (
{
name = bottom;
position = "{412, 0}";
},
{
name = ogonek;
position = "{792, 0}";
},
{
name = top;
position = "{397, 1152}";
}
);
background = {
paths = (
{
closed = 1;
nodes = (
"124 352 LINE",
"692 352 LINE",
"692 452 LINE",
"124 452 LINE"
);
},
{
closed = 1;
nodes = (
"934 0 LINE",
"860 186 LINE",
"542 1152 LINE",
"213 1152 LINE",
"213 1032 LINE",
"-61 179 LINE",
"-130 0 LINE",
"40 0 LINE",
"83 164 LINE",
"364 1048 LINE",
"420 1048 LINE",
"707 164 LINE",
"740 0 LINE"
);
},
{
closed = 1;
nodes = (
"124 350 LINE",
"692 350 LINE",
"692 450 LINE",
"124 450 LINE"
);
},
{
closed = 1;
nodes = (
"922 0 LINE",
"542 1152 LINE",
"280 1152 LINE",
"-96 0 LINE",
"30 0 LINE",
"364 1048 LINE",
"420 1048 LINE",
"760 0 LINE"
);
}
);
};
layerId = "C5422B82-5DE8-4106-A997-45BC085AEC07";
paths = (
{
closed = 1;
nodes = (
"698 0 LINE",
"642 186 LINE",
"628 1152 LINE",
"253 1152 LINE",
"253 1032 LINE",
"79 179 LINE",
"28 0 LINE",
"158 0 LINE",
"183 164 LINE",
"364 1048 LINE",
"524 1048 LINE",
"514 164 LINE",
"539 0 LINE"
);
},
{
closed = 1;
nodes = (
"204 350 LINE",
"594 350 LINE",
"594 450 LINE",
"204 450 LINE"
);
}
);
width = 820;
}
);
leftKerningGroup = A;
rightKerningGroup = A;
unicode = 0041;
},
{
glyphname = AE;
lastChange = "2019-05-01 22:57:23 +0000";
layers = (
{
anchors = (
{
name = bottom;
position = "{774, 0}";
},
{
name = top;
position = "{774, 1152}";
}
);
layerId = "B520048A-B5B0-4F8C-90F0-FFAF6C62D524";
paths = (
{
closed = 1;
nodes = (
"843 1152 LINE",
"415 1152 LINE",
"415 1032 LINE",
"141 179 LINE",
"72 0 LINE",
"222 0 LINE",
"265 164 LINE",
"546 1048 LINE",
"843 1048 LINE"
);
},
{
closed = 1;
nodes = (
"276 350 LINE",
"854 350 LINE",
"854 450 LINE",
"276 450 LINE"
);
},
{
closed = 1;
nodes = (
"780 972 LINE",
"780 180 LINE",
"762 0 LINE",
"1448 0 LINE",
"1458 110 LINE",
"924 106 LINE",
"924 552 LINE",
"1341 552 LINE",
"1351 658 LINE",
"924 652 LINE",
"924 1054 LINE",
"1379 1050 LINE",
"1399 1162 LINE",
"1199 1152 LINE",
"762 1152 LINE"
);
}
);
width = 1548;
},
{
anchors = (
{
name = bottom;
position = "{739, 0}";
},
{
name = top;
position = "{739, 1152}";
}
);
layerId = "21D66A2E-3203-408D-B482-78BB09110413";
paths = (
{
closed = 1;
nodes = (
"806 1152 LINE",
"365 1152 LINE",
"365 1032 LINE",
"81 179 LINE",
"12 0 LINE",
"272 0 LINE",
"315 164 LINE",
"576 968 LINE",
"806 968 LINE"
);
},
{
closed = 1;
nodes = (
"336 290 LINE",
"806 290 LINE",
"806 470 LINE",
"336 470 LINE"
);
},
{
closed = 1;
nodes = (
"704 972 LINE",
"704 180 LINE",
"686 0 LINE",
"1418 0 LINE",
"1428 190 LINE",
"944 182 LINE",
"944 516 LINE",
"1311 516 LINE",
"1321 692 LINE",
"944 682 LINE",
"944 976 LINE",
"1349 970 LINE",
"1369 1162 LINE",
"1169 1152 LINE",
"686 1152 LINE"
);
}
);
width = 1478;
},
{
anchors = (
{
name = bottom;
position = "{465, 0}";
},
{
name = top;
position = "{465, 1152}";
}
);
layerId = "C5422B82-5DE8-4106-A997-45BC085AEC07";
paths = (
{
closed = 1;
nodes = (
"509 1152 LINE",
"233 1152 LINE",
"233 1032 LINE",
"59 179 LINE",
"8 0 LINE",
"138 0 LINE",
"163 164 LINE",
"344 1048 LINE",
"509 1048 LINE"
);
},
{
closed = 1;
nodes = (
"184 350 LINE",
"509 350 LINE",
"509 450 LINE",
"184 450 LINE"
);
},
{
closed = 1;
nodes = (
"460 972 LINE",
"460 180 LINE",
"442 0 LINE",
"910 0 LINE",
"920 108 LINE",
"586 102 LINE",
"586 552 LINE",
"873 552 LINE",
"879 656 LINE",
"586 646 LINE",
"586 1056 LINE",
"892 1050 LINE",
"898 1162 LINE",
"798 1152 LINE",
"442 1152 LINE"
);
}
);
width = 930;
}
);
leftMetricsKey = A;
rightMetricsKey = E;
unicode = 00C6;
},
{
glyphname = B;
lastChange = "2019-05-01 22:57:23 +0000";
layers = (
{
anchors = (
{
name = bottom;
position = "{495, 0}";
},
{
name = top;
position = "{495, 1152}";
}
);
background = {
paths = (
{
closed = 1;
nodes = (
"708 0 LINE",
"712 62 LINE",
"405 62 LINE",
"405 316 LINE",
"628 316 LINE",
"632 374 LINE",
"405 374 LINE",
"405 599 LINE",
"674 599 LINE",
"678 660 LINE",
"321 660 LINE",
"321 0 LINE"
);
}
);
};
layerId = "B520048A-B5B0-4F8C-90F0-FFAF6C62D524";
paths = (
{
closed = 1;
nodes = (
"574 0 LINE SMOOTH",
"736 0 OFFCURVE",
"906 12 OFFCURVE",
"906 278 CURVE SMOOTH",
"906 517 OFFCURVE",
"779 607 OFFCURVE",
"622 625 CURVE",
"622 629 LINE",
"767 665 OFFCURVE",
"827 771 OFFCURVE",
"827 910 CURVE SMOOTH",
"827 1133 OFFCURVE",
"670 1162 OFFCURVE",
"523 1162 CURVE SMOOTH",
"391 1162 OFFCURVE",
"284 1152 OFFCURVE",
"152 1152 CURVE",
"170 992 LINE",
"170 180 LINE",
"152 0 LINE"
);
},
{
closed = 1;
nodes = (
"314 200 LINE",
"314 553 LINE",
"468 553 LINE SMOOTH",
"643 553 OFFCURVE",
"742 486 OFFCURVE",
"742 287 CURVE SMOOTH",
"742 142 OFFCURVE",
"685 104 OFFCURVE",
"549 104 CURVE SMOOTH",
"308 104 LINE"
);
},
{
closed = 1;
nodes = (
"314 970 LINE",
"308 1060 LINE",
"494 1062 LINE SMOOTH",
"609 1063 OFFCURVE",
"673 1027 OFFCURVE",
"673 880 CURVE SMOOTH",
"673 708 OFFCURVE",
"591 655 OFFCURVE",
"464 655 CURVE SMOOTH",
"314 655 LINE"
);
}
);
width = 1000;
},
{
anchors = (
{
name = bottom;
position = "{497, 0}";
},
{
name = top;
position = "{497, 1152}";
}
);
background = {
paths = (
{
closed = 1;
nodes = (
"818 7 LINE",
"828 191 LINE",
"344 191 LINE",
"344 522 LINE",
"731 522 LINE",
"739 700 LINE",
"344 700 LINE",
"344 970 LINE",
"759 970 LINE",
"769 1152 LINE",
"76 1152 LINE",
"76 7 LINE"
);
}
);
};
layerId = "21D66A2E-3203-408D-B482-78BB09110413";
paths = (
{
closed = 1;
nodes = (
"614 0 LINE SMOOTH",
"776 0 OFFCURVE",
"946 12 OFFCURVE",
"946 278 CURVE SMOOTH",
"946 517 OFFCURVE",
"829 617 OFFCURVE",
"682 635 CURVE",
"682 639 LINE",
"817 675 OFFCURVE",
"867 771 OFFCURVE",
"867 910 CURVE SMOOTH",
"867 1133 OFFCURVE",
"702 1162 OFFCURVE",
"555 1162 CURVE SMOOTH",
"423 1162 OFFCURVE",
"222 1152 OFFCURVE",
"90 1152 CURVE",
"108 992 LINE",
"108 180 LINE",
"90 0 LINE"
);
},
{
closed = 1;
nodes = (
"348 255 LINE",
"348 518 LINE",
"420 518 LINE SMOOTH",
"595 518 OFFCURVE",
"694 468 OFFCURVE",
"694 320 CURVE SMOOTH",
"694 212 OFFCURVE",
"637 184 OFFCURVE",
"501 184 CURVE SMOOTH",
"342 184 LINE"
);
},
{
closed = 1;
nodes = (
"348 916 LINE",
"342 981 LINE",
"448 985 LINE SMOOTH",
"563 989 OFFCURVE",
"625 957 OFFCURVE",
"625 852 CURVE SMOOTH",
"625 732 OFFCURVE",
"553 680 OFFCURVE",
"426 680 CURVE SMOOTH",
"348 680 LINE"
);
}
);
width = 988;
},
{
anchors = (
{
name = bottom;
position = "{397, 0}";
},
{
name = top;
position = "{397, 1152}";
}
);
background = {
paths = (
{
closed = 1;
nodes = (
"610 0 LINE",
"614 62 LINE",
"307 62 LINE",
"307 316 LINE",
"530 316 LINE",
"534 374 LINE",
"307 374 LINE",
"307 599 LINE",
"576 599 LINE",
"580 660 LINE",
"223 660 LINE",
"223 0 LINE"
);
}
);
};
layerId = "C5422B82-5DE8-4106-A997-45BC085AEC07";
paths = (
{
closed = 1;
nodes = (
"409 0 LINE SMOOTH",
"530 0 OFFCURVE",
"656 12 OFFCURVE",
"656 278 CURVE SMOOTH",
"656 517 OFFCURVE",
"562 607 OFFCURVE",
"445 625 CURVE",
"445 629 LINE",
"553 665 OFFCURVE",
"597 771 OFFCURVE",
"597 910 CURVE SMOOTH",
"597 1133 OFFCURVE",
"481 1162 OFFCURVE",
"371 1162 CURVE SMOOTH",
"273 1162 OFFCURVE",
"184 1152 OFFCURVE",
"72 1152 CURVE",
"90 992 LINE",
"90 180 LINE",
"72 0 LINE"
);
},
{
closed = 1;
nodes = (
"216 200 LINE",
"216 553 LINE",
"323 553 LINE SMOOTH",
"446 553 OFFCURVE",
"524 486 OFFCURVE",
"524 287 CURVE SMOOTH",
"524 142 OFFCURVE",
"476 104 OFFCURVE",
"380 104 CURVE SMOOTH",
"210 104 LINE"
);
},
{
closed = 1;
nodes = (
"216 970 LINE",
"210 1060 LINE",
"339 1062 LINE SMOOTH",
"420 1063 OFFCURVE",
"467 1027 OFFCURVE",
"467 880 CURVE SMOOTH",
"467 708 OFFCURVE",
"408 655 OFFCURVE",
"318 655 CURVE SMOOTH",
"216 655 LINE"
);
}
);
width = 710;
}
);
leftMetricsKey = H;
unicode = 0042;
},
{
glyphname = C;
lastChange = "2021-12-27 08:19:22 +0000";
layers = (
{
anchors = (
{
name = bottom;
position = "{600, 0}";
},
{
name = top;
position = "{620, 1152}";
}
);
layerId = "B520048A-B5B0-4F8C-90F0-FFAF6C62D524";
paths = (
{
closed = 1;
nodes = (
"782 -28 OFFCURVE",
"988 9 OFFCURVE",
"992 265 CURVE",
"832 265 LINE",
"840 121 OFFCURVE",
"726 68 OFFCURVE",
"583 68 CURVE SMOOTH",
"378 68 OFFCURVE",
"262 177 OFFCURVE",
"262 575 CURVE SMOOTH",
"262 976 OFFCURVE",
"363 1076 OFFCURVE",
"573 1076 CURVE SMOOTH",
"696 1076 OFFCURVE",
"820 1046 OFFCURVE",
"802 888 CURVE",
"960 888 LINE",
"966 1154 OFFCURVE",
"773 1170 OFFCURVE",
"612 1170 CURVE SMOOTH",
"568 1170 LINE SMOOTH",
"293 1170 OFFCURVE",
"98 1084 OFFCURVE",
"98 559 CURVE SMOOTH",
"98 69 OFFCURVE",
"288 -28 OFFCURVE",
"530 -28 CURVE SMOOTH",
"580 -28 LINE SMOOTH"
);
}
);
width = 1086;
},
{
anchors = (
{
name = bottom;
position = "{475, 0}";
},
{
name = top;
position = "{475, 1152}";
}
);
layerId = "21D66A2E-3203-408D-B482-78BB09110413";
paths = (
{
closed = 1;
nodes = (
"806 -28 OFFCURVE",
"1026 9 OFFCURVE",
"1030 300 CURVE",
"800 300 LINE",
"798 194 OFFCURVE",
"728 148 OFFCURVE",
"595 148 CURVE SMOOTH",
"420 148 OFFCURVE",
"330 222 OFFCURVE",
"330 581 CURVE SMOOTH",
"330 930 OFFCURVE",
"408 996 OFFCURVE",
"587 996 CURVE SMOOTH",
"702 996 OFFCURVE",
"785 970 OFFCURVE",
"785 853 CURVE",
"1007 853 LINE",
"1013 1154 OFFCURVE",
"792 1170 OFFCURVE",
"620 1170 CURVE SMOOTH",
"578 1170 LINE SMOOTH",
"284 1170 OFFCURVE",
"76 1118 OFFCURVE",
"76 555 CURVE SMOOTH",
"76 35 OFFCURVE",
"269 -28 OFFCURVE",
"537 -28 CURVE SMOOTH",
"590 -28 LINE SMOOTH"
);
}
);
width = 1090;
},
{
anchors = (
{
name = bottom;
position = "{364, 0}";
},
{
name = top;
position = "{440, 1152}";
}
);
layerId = "C5422B82-5DE8-4106-A997-45BC085AEC07";
paths = (
{
closed = 1;
nodes = (
"533 -28 OFFCURVE",
"681 9 OFFCURVE",
"684 288 CURVE",
"546 288 LINE",
"552 121 OFFCURVE",
"496 68 OFFCURVE",
"400 68 CURVE SMOOTH",
"264 68 OFFCURVE",
"196 177 OFFCURVE",
"196 575 CURVE SMOOTH",
"196 976 OFFCURVE",
"254 1076 OFFCURVE",
"394 1076 CURVE SMOOTH",
"476 1076 OFFCURVE",
"538 1046 OFFCURVE",
"526 858 CURVE",
"663 858 LINE",
"667 1154 OFFCURVE",
"527 1170 OFFCURVE",
"420 1170 CURVE SMOOTH",
"360 1170 LINE SMOOTH",
"167 1170 OFFCURVE",
"60 1084 OFFCURVE",
"60 559 CURVE SMOOTH",
"60 69 OFFCURVE",
"164 -28 OFFCURVE",
"335 -28 CURVE SMOOTH",
"398 -28 LINE SMOOTH"
);
}
);
width = 736;
}
);
leftKerningGroup = O;
leftMetricsKey = O;
unicode = 0043;
},
{
glyphname = D;
lastChange = "2019-05-01 22:57:23 +0000";
layers = (
{
anchors = (
{
name = bottom;
position = "{549, 0}";
},
{
name = center;
position = "{309, 456}";
},
{
name = top;
position = "{549, 1152}";
}
);
background = {
paths = (
{
closed = 1;
nodes = (
"485 0 LINE SMOOTH",
"639 0 OFFCURVE",
"766 30 OFFCURVE",
"853 111 CURVE SMOOTH",
"964 213 OFFCURVE",
"1003 391 OFFCURVE",
"1003 576 CURVE SMOOTH",
"1003 761 OFFCURVE",
"964 939 OFFCURVE",
"853 1041 CURVE SMOOTH",
"766 1122 OFFCURVE",
"639 1152 OFFCURVE",
"485 1152 CURVE SMOOTH",
"166 1152 LINE",
"166 0 LINE"
);
},
{
closed = 1;
nodes = (
"314 1048 LINE",
"440 1048 LINE SMOOTH",
"585 1048 OFFCURVE",
"686 1019 OFFCURVE",
"749 948 CURVE SMOOTH",
"824 862 OFFCURVE",
"841 721 OFFCURVE",
"841 576 CURVE SMOOTH",
"841 431 OFFCURVE",
"824 290 OFFCURVE",
"749 204 CURVE SMOOTH",
"686 133 OFFCURVE",
"585 104 OFFCURVE",
"440 104 CURVE SMOOTH",
"314 104 LINE"
);
}
);
};
layerId = "B520048A-B5B0-4F8C-90F0-FFAF6C62D524";
paths = (
{
closed = 1;
nodes = (
"564 -10 LINE SMOOTH",
"876 -10 OFFCURVE",
"1062 89 OFFCURVE",
"1062 596 CURVE SMOOTH",
"1062 1058 OFFCURVE",
"894 1166 OFFCURVE",
"604 1166 CURVE SMOOTH",
"408 1166 OFFCURVE",
"238 1162 OFFCURVE",
"152 1160 CURVE",
"170 980 LINE",
"170 170 LINE",
"152 -10 LINE"
);
},
{
closed = 1;
nodes = (
"314 1064 LINE",
"356 1066 OFFCURVE",
"457 1068 OFFCURVE",
"586 1068 CURVE SMOOTH",
"810 1068 OFFCURVE",
"900 920 OFFCURVE",
"900 558 CURVE SMOOTH",
"900 238 OFFCURVE",
"822 88 OFFCURVE",
"575 88 CURVE SMOOTH",
"487 88 OFFCURVE",
"356 90 OFFCURVE",
"314 92 CURVE"
);
}
);
width = 1160;
},
{
anchors = (
{
name = bottom;
position = "{552, 0}";
},
{
name = center;
position = "{287, 450}";
},
{
name = top;
position = "{552, 1152}";
}
);
layerId = "21D66A2E-3203-408D-B482-78BB09110413";
paths = (
{
closed = 1;
nodes = (
"575 -10 LINE SMOOTH",
"912 -10 OFFCURVE",
"1093 89 OFFCURVE",
"1093 596 CURVE SMOOTH",
"1093 1058 OFFCURVE",
"932 1166 OFFCURVE",
"618 1166 CURVE SMOOTH",
"422 1166 OFFCURVE",
"176 1162 OFFCURVE",
"90 1160 CURVE",
"108 980 LINE",
"108 170 LINE",
"90 -10 LINE"
);
},
{
closed = 1;
nodes = (
"348 985 LINE",
"386 986 OFFCURVE",
"438 988 OFFCURVE",
"555 988 CURVE SMOOTH",
"757 988 OFFCURVE",
"837 864 OFFCURVE",
"837 561 CURVE SMOOTH",
"837 294 OFFCURVE",
"768 168 OFFCURVE",
"545 168 CURVE SMOOTH",
"465 168 OFFCURVE",
"386 170 OFFCURVE",
"348 171 CURVE"
);
}
);
width = 1169;
},
{
anchors = (
{
name = bottom;
position = "{455, 0}";
},
{
name = center;
position = "{215, 456}";
},
{
name = top;
position = "{455, 1152}";
}
);
background = {
paths = (
{
closed = 1;
nodes = (
"391 0 LINE SMOOTH",
"545 0 OFFCURVE",
"672 30 OFFCURVE",
"759 111 CURVE SMOOTH",
"870 213 OFFCURVE",
"909 391 OFFCURVE",
"909 576 CURVE SMOOTH",
"909 761 OFFCURVE",
"870 939 OFFCURVE",
"759 1041 CURVE SMOOTH",
"672 1122 OFFCURVE",
"545 1152 OFFCURVE",
"391 1152 CURVE SMOOTH",
"72 1152 LINE",
"72 0 LINE"
);
},
{
closed = 1;
nodes = (
"220 1048 LINE",
"346 1048 LINE SMOOTH",
"491 1048 OFFCURVE",
"592 1019 OFFCURVE",
"655 948 CURVE SMOOTH",
"730 862 OFFCURVE",
"747 721 OFFCURVE",
"747 576 CURVE SMOOTH",
"747 431 OFFCURVE",
"730 290 OFFCURVE",
"655 204 CURVE SMOOTH",
"592 133 OFFCURVE",
"491 104 OFFCURVE",
"346 104 CURVE SMOOTH",
"220 104 LINE"
);
}
);
};
layerId = "C5422B82-5DE8-4106-A997-45BC085AEC07";
paths = (
{
closed = 1;
nodes = (
"356 -10 LINE SMOOTH",
"572 -10 OFFCURVE",
"688 89 OFFCURVE",
"688 596 CURVE SMOOTH",
"688 1058 OFFCURVE",
"583 1166 OFFCURVE",
"371 1166 CURVE SMOOTH",
"279 1166 OFFCURVE",
"158 1162 OFFCURVE",
"72 1160 CURVE",
"90 980 LINE",
"90 170 LINE",
"72 -10 LINE"
);
},
{
closed = 1;
nodes = (
"216 1064 LINE",
"247 1066 OFFCURVE",
"298 1068 OFFCURVE",
"368 1068 CURVE SMOOTH",
"491 1068 OFFCURVE",
"554 920 OFFCURVE",
"554 558 CURVE SMOOTH",
"554 238 OFFCURVE",
"497 88 OFFCURVE",
"362 88 CURVE SMOOTH",
"304 88 OFFCURVE",
"253 90 OFFCURVE",
"216 92 CURVE"
);
}
);
width = 748;
}
);
leftMetricsKey = H;
rightMetricsKey = O;
unicode = 0044;
},
{
glyphname = E;
lastChange = "2019-05-01 22:57:23 +0000";
layers = (
{
anchors = (
{
name = bottom;
position = "{475, 0}";
},
{
name = ogonek;
position = "{837, 0}";
},
{
name = top;
position = "{475, 1152}";
},
{
name = topleft;
position = "{42, 1152}";
}
);
background = {
paths = (
{
closed = 1;
nodes = (
"395 636 LINE",
"305 636 LINE",
"305 24 LINE",
"395 24 LINE"
);
},
{
closed = 1;
nodes = (
"650 620 LINE",
"705 660 LINE",
"237 660 LINE",
"237 620 LINE"
);
},
{
closed = 1;
nodes = (
"705 0 LINE",
"705 40 LINE",
"237 40 LINE",
"237 0 LINE"
);
},
{
closed = 1;
nodes = (
"585 365 LINE",
"385 365 LINE",
"385 325 LINE",
"585 325 LINE"
);
},
{
closed = 1;
nodes = (
"573 335 LINE",
"580 271 LINE",
"620 271 LINE",
"620 419 LINE",
"580 419 LINE",
"573 355 LINE"
);
},
{
closed = 1;
nodes = (
"715 157 LINE",
"681 160 LINE",
"647 40 LINE",
"705 0 LINE"
);
},
{
closed = 1;
nodes = (
"644 620 LINE",
"654 500 LINE",
"690 500 LINE",
"705 660 LINE"
);
}
);
};
layerId = "B520048A-B5B0-4F8C-90F0-FFAF6C62D524";
paths = (
{
closed = 1;
nodes = (
"170 972 LINE",
"170 180 LINE",
"152 0 LINE",
"838 0 LINE",
"848 110 LINE",
"314 106 LINE",
"314 552 LINE",
"731 552 LINE",
"741 658 LINE",
"314 652 LINE",
"314 1054 LINE",
"769 1050 LINE",
"789 1162 LINE",
"589 1152 LINE",
"152 1152 LINE"
);
}
);
width = 938;
},
{
anchors = (
{
name = bottom;
position = "{433, 0}";
},
{
name = ogonek;
position = "{792, 10}";
},
{
name = top;
position = "{433, 1152}";
},
{
name = topleft;
position = "{4, 1152}";
}
);
background = {
paths = (
{
closed = 1;
nodes = (
"166 636 LINE",
"76 636 LINE",
"76 24 LINE",
"166 24 LINE"
);
},
{
closed = 1;
nodes = (
"421 620 LINE",
"476 660 LINE",
"8 660 LINE",
"8 620 LINE"
);
},
{
closed = 1;
nodes = (
"476 0 LINE",
"476 40 LINE",
"8 40 LINE",
"8 0 LINE"
);
},
{
closed = 1;
nodes = (
"356 365 LINE",
"156 365 LINE",
"156 325 LINE",
"356 325 LINE"
);
},
{
closed = 1;
nodes = (
"344 335 LINE",
"351 271 LINE",
"391 271 LINE",
"391 419 LINE",
"351 419 LINE",
"344 355 LINE"
);
},
{
closed = 1;
nodes = (
"486 157 LINE",
"452 160 LINE",
"418 40 LINE",
"476 0 LINE"
);
},
{
closed = 1;
nodes = (
"415 620 LINE",
"425 500 LINE",
"461 500 LINE",
"476 660 LINE"
);
}
);
};
layerId = "21D66A2E-3203-408D-B482-78BB09110413";
paths = (
{
closed = 1;
nodes = (
"108 972 LINE",
"108 180 LINE",
"90 0 LINE",
"822 0 LINE",
"832 190 LINE",
"348 182 LINE",
"348 516 LINE",
"715 516 LINE",
"725 692 LINE",
"348 682 LINE",
"348 976 LINE",
"753 970 LINE",
"773 1162 LINE",
"573 1152 LINE",
"90 1152 LINE"
);
}
);
width = 882;
},
{
anchors = (
{
name = bottom;
position = "{330, 0}";
},
{
name = ogonek;
position = "{539, 0}";
},
{
name = top;
position = "{330, 1152}";
},
{
name = topleft;
position = "{-56, 1152}";
}
);
background = {
paths = (
{
closed = 1;
nodes = (
"297 636 LINE",
"207 636 LINE",
"207 24 LINE",
"297 24 LINE"
);
},
{
closed = 1;
nodes = (
"552 620 LINE",
"607 660 LINE",
"139 660 LINE",
"139 620 LINE"
);
},
{
closed = 1;
nodes = (
"607 0 LINE",
"607 40 LINE",
"139 40 LINE",
"139 0 LINE"
);
},
{
closed = 1;
nodes = (
"487 365 LINE",
"287 365 LINE",
"287 325 LINE",
"487 325 LINE"
);
},
{
closed = 1;
nodes = (
"475 335 LINE",
"482 271 LINE",
"522 271 LINE",
"522 419 LINE",
"482 419 LINE",
"475 355 LINE"
);
},
{
closed = 1;
nodes = (
"617 157 LINE",
"583 160 LINE",
"549 40 LINE",
"607 0 LINE"
);
},
{
closed = 1;
nodes = (
"546 620 LINE",
"556 500 LINE",
"592 500 LINE",
"607 660 LINE"
);
}
);
};
layerId = "C5422B82-5DE8-4106-A997-45BC085AEC07";
paths = (
{
closed = 1;
nodes = (
"90 972 LINE",
"90 180 LINE",
"72 0 LINE",
"540 0 LINE",
"550 108 LINE",
"216 102 LINE",
"216 552 LINE",
"503 552 LINE",
"509 656 LINE",
"216 646 LINE",
"216 1056 LINE",
"522 1050 LINE",
"528 1162 LINE",
"428 1152 LINE",
"72 1152 LINE"
);
}
);
width = 560;
}
);
leftMetricsKey = H;
unicode = 0045;
},
{
glyphname = F;
lastChange = "2019-05-01 22:57:23 +0000";
layers = (
{
anchors = (
{
name = bottom;
position = "{423, 0}";
},
{
name = top;
position = "{423, 1152}";
}
);
background = {
paths = (
{
closed = 1;
nodes = (
"235 0 LINE",
"493 0 LINE",
"493 40 LINE",
"235 40 LINE"
);
},
{
closed = 1;
nodes = (
"693 660 LINE",
"235 660 LINE",
"235 620 LINE",
"688 620 LINE"
);
},
{
closed = 1;
nodes = (
"303 24 LINE",
"393 24 LINE",
"393 636 LINE",
"303 636 LINE"
);
},
{
closed = 1;
nodes = (
"572 320 LINE",
"579 256 LINE",
"619 256 LINE",
"619 404 LINE",
"579 404 LINE",
"572 340 LINE"
);
},
{
closed = 1;
nodes = (
"583 350 LINE",
"383 350 LINE",
"383 310 LINE",
"583 310 LINE"
);
},
{
closed = 1;
nodes = (
"632 620 LINE",
"642 500 LINE",
"678 500 LINE",
"693 660 LINE"
);
}
);
};
layerId = "B520048A-B5B0-4F8C-90F0-FFAF6C62D524";
paths = (
{
closed = 1;
nodes = (
"170 972 LINE",
"170 180 LINE",
"152 0 LINE",
"332 0 LINE",
"314 180 LINE",
"314 472 LINE",
"757 472 LINE",
"767 578 LINE",
"314 572 LINE",
"314 1054 LINE",
"806 1050 LINE",
"818 1162 LINE",
"618 1152 LINE",
"152 1152 LINE"
);
}
);
width = 880;
},
{
anchors = (
{
name = bottom;
position = "{396, 0}";
},
{
name = top;
position = "{396, 1152}";
}
);
background = {
paths = (
{
closed = 1;
nodes = (
"-7 0 LINE",
"251 0 LINE",
"251 40 LINE",
"-7 40 LINE"
);
},
{
closed = 1;
nodes = (
"451 660 LINE",
"-7 660 LINE",
"-7 620 LINE",
"446 620 LINE"
);
},
{
closed = 1;
nodes = (
"61 24 LINE",
"151 24 LINE",
"151 636 LINE",
"61 636 LINE"
);
},
{
closed = 1;
nodes = (
"330 320 LINE",
"337 256 LINE",
"377 256 LINE",
"377 404 LINE",
"337 404 LINE",
"330 340 LINE"
);
},
{
closed = 1;
nodes = (
"341 350 LINE",
"141 350 LINE",
"141 310 LINE",
"341 310 LINE"
);
},
{
closed = 1;
nodes = (
"390 620 LINE",
"400 500 LINE",
"436 500 LINE",
"451 660 LINE"
);
}
);
};
layerId = "21D66A2E-3203-408D-B482-78BB09110413";
paths = (
{
closed = 1;
nodes = (
"108 972 LINE",
"108 180 LINE",
"90 0 LINE",
"366 0 LINE",
"348 180 LINE",
"348 448 LINE",
"743 448 LINE",
"755 624 LINE",
"348 614 LINE",
"348 976 LINE",
"786 970 LINE",
"804 1162 LINE",
"604 1152 LINE",
"90 1152 LINE"
);
}
);
width = 814;
},
{
anchors = (
{
name = bottom;
position = "{325, 0}";
},
{
name = top;
position = "{325, 1152}";
}
);
background = {
paths = (
{
closed = 1;
nodes = (
"137 0 LINE",
"395 0 LINE",
"395 40 LINE",
"137 40 LINE"
);
},
{
closed = 1;
nodes = (
"595 660 LINE",
"137 660 LINE",
"137 620 LINE",
"590 620 LINE"
);
},
{
closed = 1;
nodes = (
"205 24 LINE",
"295 24 LINE",
"295 636 LINE",
"205 636 LINE"
);
},
{
closed = 1;
nodes = (
"474 320 LINE",
"481 256 LINE",
"521 256 LINE",
"521 404 LINE",
"481 404 LINE",
"474 340 LINE"
);
},
{
closed = 1;
nodes = (
"485 350 LINE",
"285 350 LINE",
"285 310 LINE",
"485 310 LINE"
);
},
{
closed = 1;
nodes = (
"534 620 LINE",
"544 500 LINE",
"580 500 LINE",
"595 660 LINE"
);
}
);
};
layerId = "C5422B82-5DE8-4106-A997-45BC085AEC07";
paths = (
{
closed = 1;
nodes = (
"90 972 LINE",
"90 180 LINE",
"72 0 LINE",
"234 0 LINE",
"216 180 LINE",
"216 524 LINE",
"493 524 LINE",
"499 628 LINE",
"216 618 LINE",
"216 1056 LINE",
"518 1052 LINE",
"526 1162 LINE",
"426 1152 LINE",
"72 1152 LINE"
);
}
);
width = 536;
}
);
leftMetricsKey = H;
unicode = 0046;
},
{
glyphname = G;
lastChange = "2019-05-01 22:57:23 +0000";
layers = (
{
anchors = (
{
name = bottom;
position = "{602, 0}";
},
{
name = top;
position = "{602, 1152}";
}
);
layerId = "B520048A-B5B0-4F8C-90F0-FFAF6C62D524";
paths = (
{
closed = 1;
nodes = (
"378 78 OFFCURVE",
"262 177 OFFCURVE",
"262 575 CURVE SMOOTH",
"262 976 OFFCURVE",
"363 1076 OFFCURVE",
"573 1076 CURVE SMOOTH",
"696 1076 OFFCURVE",
"828 1046 OFFCURVE",
"820 888 CURVE",
"964 888 LINE",
"970 1154 OFFCURVE",
"771 1170 OFFCURVE",
"610 1170 CURVE SMOOTH",
"570 1170 LINE SMOOTH",
"295 1170 OFFCURVE",
"98 1084 OFFCURVE",
"98 559 CURVE SMOOTH",
"98 69 OFFCURVE",
"280 -18 OFFCURVE",
"522 -18 CURVE SMOOTH",
"572 -18 LINE SMOOTH",
"680 -18 OFFCURVE",
"782 9 OFFCURVE",
"831 76 CURVE",
"835 76 LINE",
"847 0 LINE",
"1000 0 LINE",
"960 180 LINE",
"960 444 LINE",
"980 584 LINE",
"598 584 LINE",
"598 480 LINE",
"826 476 LINE",
"826 174 LINE",
"786 139 OFFCURVE",
"713 78 OFFCURVE",
"563 78 CURVE SMOOTH"
);
}
);
width = 1122;
},
{
anchors = (
{
name = bottom;
position = "{547, 0}";
},
{
name = top;
position = "{547, 1152}";
}
);
layerId = "21D66A2E-3203-408D-B482-78BB09110413";
paths = (
{
closed = 1;
nodes = (
"420 168 OFFCURVE",
"330 232 OFFCURVE",
"330 581 CURVE SMOOTH",
"330 930 OFFCURVE",
"408 996 OFFCURVE",
"587 996 CURVE SMOOTH",
"702 996 OFFCURVE",
"785 968 OFFCURVE",
"785 853 CURVE",
"1007 853 LINE",
"1013 1154 OFFCURVE",
"792 1170 OFFCURVE",
"620 1170 CURVE SMOOTH",
"578 1170 LINE SMOOTH",
"284 1170 OFFCURVE",
"76 1118 OFFCURVE",
"76 565 CURVE SMOOTH",
"76 55 OFFCURVE",
"259 -8 OFFCURVE",
"477 -8 CURVE SMOOTH",
"520 -8 LINE SMOOTH",
"653 -8 OFFCURVE",
"733 41 OFFCURVE",
"777 75 CURVE",
"781 75 LINE",
"793 0 LINE",
"1062 0 LINE",
"1012 190 LINE",
"1012 418 LINE",
"1030 598 LINE",
"564 598 LINE",
"564 426 LINE",
"772 420 LINE",
"772 243 LINE",
"731 208 OFFCURVE",
"675 168 OFFCURVE",
"562 168 CURVE SMOOTH"
);
}
);
width = 1114;
},
{
anchors = (
{
name = bottom;
position = "{590, 0}";
},
{
name = top;
position = "{590, 1152}";
}
);
background = {
paths = (
{
closed = 1;
nodes = (
"60 69 OFFCURVE",
"168 -8 OFFCURVE",
"339 -8 CURVE SMOOTH",
"380 -8 LINE SMOOTH",
"461 -8 OFFCURVE",
"517 10 OFFCURVE",
"557 70 CURVE",
"561 70 LINE",
"575 0 LINE",
"714 0 LINE",
"674 180 LINE",
"674 388 LINE",
"694 568 LINE",
"336 568 LINE",
"336 468 LINE",
"544 460 LINE",
"544 138 LINE",
"509 104 OFFCURVE",
"451 88 OFFCURVE",
"397 88 CURVE SMOOTH",
"268 88 OFFCURVE",
"200 177 OFFCURVE",
"200 575 CURVE SMOOTH",
"200 976 OFFCURVE",
"258 1076 OFFCURVE",
"398 1076 CURVE SMOOTH",
"480 1076 OFFCURVE",
"552 1046 OFFCURVE",
"540 858 CURVE",
"677 858 LINE",
"681 1154 OFFCURVE",
"531 1170 OFFCURVE",
"424 1170 CURVE SMOOTH",
"364 1170 LINE SMOOTH",
"171 1170 OFFCURVE",
"60 1084 OFFCURVE",
"60 559 CURVE SMOOTH"
);
}
);
};
layerId = "C5422B82-5DE8-4106-A997-45BC085AEC07";
paths = (
{
closed = 1;
nodes = (
"268 88 OFFCURVE",
"200 177 OFFCURVE",
"200 575 CURVE SMOOTH",
"200 976 OFFCURVE",
"258 1076 OFFCURVE",
"398 1076 CURVE SMOOTH",
"480 1076 OFFCURVE",
"552 1046 OFFCURVE",
"540 858 CURVE",
"677 858 LINE",
"681 1154 OFFCURVE",
"531 1170 OFFCURVE",
"424 1170 CURVE SMOOTH",
"364 1170 LINE SMOOTH",
"171 1170 OFFCURVE",
"60 1084 OFFCURVE",
"60 559 CURVE SMOOTH",
"60 69 OFFCURVE",
"168 -8 OFFCURVE",
"339 -8 CURVE SMOOTH",
"380 -8 LINE SMOOTH",
"461 -8 OFFCURVE",
"517 10 OFFCURVE",
"557 70 CURVE",
"561 70 LINE",
"575 0 LINE",
"714 0 LINE",
"674 180 LINE",
"674 388 LINE",
"694 568 LINE",
"336 568 LINE",
"336 468 LINE",
"544 460 LINE",
"544 138 LINE",
"509 104 OFFCURVE",
"451 88 OFFCURVE",
"397 88 CURVE SMOOTH"
);
}
);
width = 764;
}
);
leftKerningGroup = O;
leftMetricsKey = O;
unicode = 0047;
},
{
glyphname = H;
lastChange = "2019-05-01 22:57:23 +0000";
layers = (
{
anchors = (
{
name = bottom;
position = "{611, 0}";
},
{
name = center;
position = "{611, 876}";
},
{
name = top;
position = "{611, 1152}";
},
{
name = topleft;
position = "{46, 1152}";
}
);
layerId = "B520048A-B5B0-4F8C-90F0-FFAF6C62D524";
paths = (
{
closed = 1;
nodes = (
"908 180 LINE",
"890 0 LINE",
"1070 0 LINE",
"1052 180 LINE",
"1052 972 LINE",
"1070 1152 LINE",
"890 1152 LINE",
"908 972 LINE",
"908 644 LINE",
"314 644 LINE",
"314 972 LINE",
"332 1152 LINE",
"152 1152 LINE",
"170 972 LINE",
"170 180 LINE",
"152 0 LINE",
"332 0 LINE",
"314 180 LINE",
"314 544 LINE",
"908 544 LINE"
);
}
);
width = 1222;
},
{
anchors = (
{
name = bottom;
position = "{539, 0}";
},
{
name = center;
position = "{539, 876}";
},
{
name = top;
position = "{539, 1152}";
},
{
name = topleft;
position = "{-26, 1152}";
}
);
layerId = "21D66A2E-3203-408D-B482-78BB09110413";
paths = (
{
closed = 1;
nodes = (
"846 180 LINE",
"828 0 LINE",
"1104 0 LINE",
"1086 180 LINE",
"1086 972 LINE",
"1104 1152 LINE",
"828 1152 LINE",
"846 972 LINE",
"846 684 LINE",
"348 684 LINE",
"348 972 LINE",
"366 1152 LINE",
"90 1152 LINE",
"108 972 LINE",
"108 180 LINE",
"90 0 LINE",
"366 0 LINE",
"348 180 LINE",
"348 504 LINE",
"846 504 LINE"
);
}
);
width = 1194;
},
{
anchors = (
{
name = bottom;
position = "{303, 0}";
},
{
name = center;
position = "{303, 876}";
},
{
name = top;
position = "{303, 1152}";
},
{
name = topleft;
position = "{-262, 1152}";
}
);
layerId = "C5422B82-5DE8-4106-A997-45BC085AEC07";
paths = (
{
closed = 1;
nodes = (
"610 180 LINE",
"592 0 LINE",
"754 0 LINE",
"736 180 LINE",
"736 972 LINE",
"754 1152 LINE",
"592 1152 LINE",
"610 972 LINE",
"610 644 LINE",
"216 644 LINE",
"216 972 LINE",
"234 1152 LINE",
"72 1152 LINE",
"90 972 LINE",
"90 180 LINE",
"72 0 LINE",
"234 0 LINE",
"216 180 LINE",
"216 544 LINE",
"610 544 LINE"
);
}
);
width = 826;
}
);
leftKerningGroup = H;
rightKerningGroup = H;
unicode = 0048;
},
{
glyphname = I;
lastChange = "2019-05-01 22:57:23 +0000";
layers = (
{
anchors = (
{
name = bottom;
position = "{244, 0}";
},
{
name = ogonek;
position = "{330, 0}";
},
{
name = top;
position = "{244, 1152}";
},
{
name = topleft;
position = "{-68, 1152}";
}
);
layerId = "B520048A-B5B0-4F8C-90F0-FFAF6C62D524";
paths = (
{
closed = 1;
nodes = (
"170 972 LINE",
"170 180 LINE",
"152 0 LINE",
"332 0 LINE",
"314 180 LINE",
"314 972 LINE",
"332 1152 LINE",
"152 1152 LINE"
);
}
);
width = 484;
},
{
anchors = (
{
name = bottom;
position = "{228, 0}";
},
{
name = ogonek;
position = "{457, 10}";
},
{
name = top;
position = "{172, 1152}";
},
{
name = topleft;
position = "{-164, 1152}";
}
);
layerId = "21D66A2E-3203-408D-B482-78BB09110413";
paths = (
{
closed = 1;
nodes = (
"108 972 LINE",
"108 180 LINE",
"90 0 LINE",
"366 0 LINE",
"348 180 LINE",
"348 972 LINE",
"366 1152 LINE",
"90 1152 LINE"
);
}
);
width = 456;
},
{
anchors = (
{
name = bottom;
position = "{216, 0}";
},
{
name = ogonek;
position = "{502, 0}";
},
{
name = top;
position = "{216, 1152}";
},
{
name = topleft;
position = "{-96, 1152}";
}
);
layerId = "C5422B82-5DE8-4106-A997-45BC085AEC07";
paths = (
{
closed = 1;
nodes = (
"90 972 LINE",
"90 180 LINE",
"72 0 LINE",
"234 0 LINE",
"216 180 LINE",
"216 972 LINE",
"234 1152 LINE",
"72 1152 LINE"
);
}
);
width = 306;
}
);
leftKerningGroup = H;
leftMetricsKey = H;
rightKerningGroup = H;
rightMetricsKey = H;
unicode = 0049;
},
{
glyphname = J;
lastChange = "2019-05-01 22:57:23 +0000";
layers = (
{
anchors = (
{
name = bottom;
position = "{501, 0}";
},
{
name = top;
position = "{501, 1152}";
}
);
background = {
paths = (
{
closed = 1;
nodes = (
"472 636 LINE",
"472 201 LINE SMOOTH",
"472 46 OFFCURVE",
"427 12 OFFCURVE",
"334 16 CURVE",
"334 -34 LINE",
"453 -34 OFFCURVE",
"562 -21 OFFCURVE",
"562 185 CURVE SMOOTH",
"562 636 LINE"
);
},
{
closed = 1;
nodes = (
"640 620 LINE",
"640 660 LINE",
"384 660 LINE",
"384 620 LINE"
);
}
);
};
layerId = "B520048A-B5B0-4F8C-90F0-FFAF6C62D524";
paths = (
{
closed = 1;
nodes = (
"528 -22 OFFCURVE",
"630 -5 OFFCURVE",
"630 152 CURVE SMOOTH",
"630 972 LINE",
"648 1152 LINE",
"468 1152 LINE",
"486 972 LINE",
"486 180 LINE SMOOTH",
"486 88 OFFCURVE",
"455 70 OFFCURVE",
"362 70 CURVE SMOOTH",
"271 70 OFFCURVE",
"237 86 OFFCURVE",
"238 174 CURVE",
"92 174 LINE",
"92 2 OFFCURVE",
"176 -22 OFFCURVE",
"341 -22 CURVE SMOOTH",
"361 -22 LINE SMOOTH"
);
}
);
width = 800;
},
{
anchors = (
{
name = bottom;
position = "{442, 0}";
},
{
name = top;
position = "{502, 1152}";
}
);
background = {
paths = (
{
closed = 1;
nodes = (
"252 636 LINE",
"252 201 LINE SMOOTH",
"252 46 OFFCURVE",
"207 12 OFFCURVE",
"114 16 CURVE",
"114 -34 LINE",
"233 -34 OFFCURVE",
"342 -21 OFFCURVE",
"342 185 CURVE SMOOTH",
"342 636 LINE"
);
},
{
closed = 1;
nodes = (
"420 620 LINE",
"420 660 LINE",
"164 660 LINE",
"164 620 LINE"
);
}
);
};
layerId = "21D66A2E-3203-408D-B482-78BB09110413";
paths = (
{
closed = 1;
nodes = (
"618 -4 OFFCURVE",
"744 23 OFFCURVE",
"744 210 CURVE SMOOTH",
"744 972 LINE",
"762 1152 LINE",
"458 1152 LINE",
"476 972 LINE",
"476 278 LINE SMOOTH",
"476 186 OFFCURVE",
"445 168 OFFCURVE",
"352 168 CURVE SMOOTH",
"261 168 OFFCURVE",
"237 184 OFFCURVE",
"238 300 CURVE",
"16 300 LINE",
"16 20 OFFCURVE",
"110 -4 OFFCURVE",
"305 -4 CURVE SMOOTH",
"411 -4 LINE SMOOTH"
);
}
);
width = 852;
},
{
anchors = (
{
name = bottom;
position = "{359, 0}";
},
{
name = top;
position = "{359, 1152}";
}
);
background = {
paths = (
{
closed = 1;
nodes = (
"330 636 LINE",
"330 201 LINE SMOOTH",
"330 46 OFFCURVE",
"285 12 OFFCURVE",
"192 16 CURVE",
"192 -34 LINE",
"311 -34 OFFCURVE",
"420 -21 OFFCURVE",
"420 185 CURVE SMOOTH",
"420 636 LINE"
);
},
{
closed = 1;
nodes = (
"498 620 LINE",
"498 660 LINE",
"242 660 LINE",
"242 620 LINE"
);
}
);
};
layerId = "C5422B82-5DE8-4106-A997-45BC085AEC07";
paths = (
{
closed = 1;
nodes = (
"421 -22 OFFCURVE",
"470 -5 OFFCURVE",
"470 152 CURVE SMOOTH",
"470 972 LINE",
"488 1152 LINE",
"326 1152 LINE",
"344 972 LINE",
"344 180 LINE SMOOTH",
"344 88 OFFCURVE",
"323 70 OFFCURVE",
"268 70 CURVE SMOOTH",
"217 70 OFFCURVE",
"193 86 OFFCURVE",
"194 174 CURVE",
"64 174 LINE",
"64 2 OFFCURVE",
"142 -22 OFFCURVE",
"255 -22 CURVE SMOOTH",
"268 -22 LINE SMOOTH"
);
}
);
width = 560;
}
);
rightMetricsKey = H;
unicode = 004A;
},
{
glyphname = K;
lastChange = "2019-05-01 22:57:23 +0000";
layers = (
{
anchors = (
{
name = bottom;
position = "{534, 0}";
},
{
name = top;
position = "{534, 1152}";
}
);
background = {
paths = (
{
closed = 1;
nodes = (
"314 180 LINE",
"314 972 LINE",
"332 1152 LINE",
"152 1152 LINE",
"170 972 LINE",
"170 180 LINE",
"152 0 LINE",
"332 0 LINE"
);
},
{
closed = 1;
nodes = (
"832 0 LINE",
"1028 0 LINE",
"902 170 LINE",
"582 634 LINE",
"390 634 LINE"
);
},
{
closed = 1;
nodes = (
"254 534 LINE",
"572 534 LINE",
"572 634 LINE",
"254 634 LINE"
);
},
{
closed = 1;
nodes = (
"560 534 LINE",
"880 984 LINE",
"1016 1152 LINE",
"840 1152 LINE",
"398 534 LINE"
);
}
);
};
layerId = "B520048A-B5B0-4F8C-90F0-FFAF6C62D524";
paths = (
{
closed = 1;
nodes = (
"170 972 LINE",
"170 180 LINE",
"152 0 LINE",
"332 0 LINE",
"314 180 LINE",
"314 972 LINE",
"332 1152 LINE",
"152 1152 LINE"
);
},
{
closed = 1;
nodes = (
"832 0 LINE",
"1028 0 LINE",
"902 170 LINE",
"582 634 LINE",
"390 634 LINE"
);
},
{
closed = 1;
nodes = (
"254 534 LINE",
"572 534 LINE",
"572 634 LINE",
"254 634 LINE"
);
},
{
closed = 1;
nodes = (
"560 534 LINE",
"870 984 LINE",
"1006 1152 LINE",
"830 1152 LINE",
"388 534 LINE"
);
}
);
width = 1080;
},
{
anchors = (
{
name = bottom;
position = "{595, 0}";
},
{
name = top;
position = "{595, 1152}";
}
);
layerId = "21D66A2E-3203-408D-B482-78BB09110413";
paths = (
{
closed = 1;
nodes = (
"108 972 LINE",
"108 180 LINE",
"90 0 LINE",
"366 0 LINE",
"348 180 LINE",
"348 972 LINE",
"366 1152 LINE",
"90 1152 LINE"
);
},
{
closed = 1;
nodes = (
"837 0 LINE",
"1139 0 LINE",
"1017 171 LINE",
"688 670 LINE",
"397 670 LINE"
);
},
{
closed = 1;
nodes = (
"288 490 LINE",
"606 490 LINE",
"606 670 LINE",
"288 670 LINE"
);
},
{
closed = 1;
nodes = (
"642 490 LINE",
"984 975 LINE",
"1120 1152 LINE",
"824 1152 LINE",
"355 490 LINE"
);
}
);
width = 1184;
},
{
anchors = (
{
name = bottom;
position = "{506, 0}";
},
{
name = top;
position = "{506, 1152}";
}
);
background = {
paths = (
{
closed = 1;
nodes = (
"286 180 LINE",
"286 972 LINE",
"304 1152 LINE",
"124 1152 LINE",
"142 972 LINE",
"142 180 LINE",
"124 0 LINE",
"304 0 LINE"
);
},
{
closed = 1;
nodes = (
"804 0 LINE",
"1000 0 LINE",
"874 170 LINE",
"554 634 LINE",
"362 634 LINE"
);
},
{
closed = 1;
nodes = (
"226 534 LINE",
"544 534 LINE",
"544 634 LINE",
"226 634 LINE"
);
},
{
closed = 1;
nodes = (
"532 534 LINE",
"852 984 LINE",
"988 1152 LINE",
"812 1152 LINE",
"370 534 LINE"
);
}
);
};
layerId = "C5422B82-5DE8-4106-A997-45BC085AEC07";
paths = (
{
closed = 1;
nodes = (
"90 972 LINE",
"90 180 LINE",
"72 0 LINE",
"238 0 LINE",
"220 180 LINE",
"220 972 LINE",
"238 1152 LINE",
"72 1152 LINE"
);
},
{
closed = 1;
nodes = (
"524 0 LINE",
"680 0 LINE",
"594 170 LINE",
"394 634 LINE",
"252 634 LINE"
);
},
{
closed = 1;
nodes = (
"206 534 LINE",
"404 534 LINE",
"404 634 LINE",
"206 634 LINE"
);
},
{
closed = 1;
nodes = (
"362 534 LINE",
"576 984 LINE",
"668 1152 LINE",
"532 1152 LINE",
"250 534 LINE"
);
}
);
width = 712;
}
);
leftMetricsKey = H;
unicode = 004B;
},
{
glyphname = L;
lastChange = "2021-12-27 06:48:44 +0000";
layers = (
{
anchors = (
{
name = bottom;
position = "{453, 0}";
},
{
name = center;
position = "{433, 576}";
},
{
name = top;
position = "{453, 1152}";
},
{
name = topright;
position = "{554, 705}";
}
);
background = {
paths = (
{
closed = 1;
nodes = (
"488 620 LINE",
"488 660 LINE",
"230 660 LINE",
"230 620 LINE"
);
},
{
closed = 1;
nodes = (
"230 40 LINE",
"230 0 LINE",
"690 0 LINE",
"690 40 LINE"
);
},
{
closed = 1;
nodes = (
"298 636 LINE",
"298 24 LINE",
"388 24 LINE",
"388 636 LINE"
);
},
{
closed = 1;
nodes = (
"700 157 LINE",
"666 160 LINE",
"632 40 LINE",
"690 0 LINE"
);
}
);
};
layerId = "B520048A-B5B0-4F8C-90F0-FFAF6C62D524";
paths = (
{
closed = 1;
nodes = (
"838 0 LINE",
"848 110 LINE",
"314 100 LINE",
"314 972 LINE",
"332 1152 LINE",
"152 1152 LINE",
"170 972 LINE",
"170 180 LINE",
"152 0 LINE"
);
}
);
width = 890;
},
{
anchors = (
{
name = bottom;
position = "{349, 0}";
},
{
name = center;
position = "{349, 576}";
},
{
name = top;
position = "{349, 1152}";
},
{
name = topright;
position = "{550, 576}";
}
);
background = {
paths = (
{
closed = 1;
nodes = (
"162 620 LINE",
"162 660 LINE",
"-96 660 LINE",
"-96 620 LINE"
);
},
{
closed = 1;
nodes = (
"-96 40 LINE",
"-96 0 LINE",
"364 0 LINE",
"364 40 LINE"
);
},
{
closed = 1;
nodes = (
"-28 636 LINE",
"-28 24 LINE",
"62 24 LINE",
"62 636 LINE"
);
},
{
closed = 1;
nodes = (
"374 157 LINE",
"340 160 LINE",
"306 40 LINE",
"364 0 LINE"
);
}
);
};
layerId = "21D66A2E-3203-408D-B482-78BB09110413";
paths = (
{
closed = 1;
nodes = (
"824 0 LINE",
"834 190 LINE",
"348 180 LINE",
"348 972 LINE",
"366 1152 LINE",
"90 1152 LINE",
"108 972 LINE",
"108 180 LINE",
"90 0 LINE"
);
}
);
width = 846;
},
{
anchors = (
{
name = bottom;
position = "{159, 0}";
},
{
name = center;
position = "{139, 576}";
},
{
name = top;
position = "{159, 1152}";
},
{
name = topright;
position = "{220, 728}";
}
);
layerId = "C5422B82-5DE8-4106-A997-45BC085AEC07";
paths = (
{
closed = 1;
nodes = (
"544 0 LINE",
"554 108 LINE",
"220 100 LINE",
"220 972 LINE",
"238 1152 LINE",
"72 1152 LINE",
"90 972 LINE",
"90 180 LINE",
"72 0 LINE"
);
}
);
width = 596;
}
);
leftMetricsKey = H;
unicode = 004C;
},
{
glyphname = M;
lastChange = "2019-05-01 22:57:23 +0000";
layers = (
{
anchors = (
{
name = bottom;
position = "{712, 0}";
},
{
name = top;
position = "{712, 1152}";
}
);
background = {
paths = (
{
closed = 1;
nodes = (
"1032 0 LINE",
"1002 660 LINE",
"926 660 LINE",
"718 135 LINE",
"716 118 LINE",
"710 118 LINE",
"708 135 LINE",
"518 660 LINE",
"420 660 LINE",
"400 0 LINE",
"442 0 LINE",
"462 501 LINE",
"452 601 LINE",
"443 597 LINE",
"672 0 LINE SMOOTH",
"712 0 LINE",
"936 574 LINE",
"927 578 LINE",
"917 478 LINE",
"947 0 LINE"
);
},
{
closed = 1;
nodes = (
"330 40 LINE",
"330 0 LINE",
"510 0 LINE",
"510 40 LINE"
);
},
{
closed = 1;
nodes = (
"869 40 LINE",
"869 0 LINE",
"1105 0 LINE",
"1105 40 LINE"
);
},
{
closed = 1;
nodes = (
"927 660 LINE",
"927 620 LINE",
"1090 620 LINE",
"1090 660 LINE"
);
},
{
closed = 1;
nodes = (
"338 660 LINE",
"338 620 LINE",
"510 620 LINE",
"510 660 LINE"
);
}
);
};
layerId = "B520048A-B5B0-4F8C-90F0-FFAF6C62D524";
paths = (
{
closed = 1;
nodes = (
"174 880 LINE",
"161 72 LINE",
"145 0 LINE",
"298 0 LINE",
"290 72 LINE",
"289 1052 LINE",
"319 1052 LINE",
"703 278 LINE",
"733 278 LINE",
"1116 1052 LINE",
"1148 1052 LINE",
"1148 180 LINE",
"1140 0 LINE",
"1322 0 LINE",
"1304 180 LINE",
"1291 880 LINE",
"1317 1152 LINE",
"1035 1152 LINE",
"744 575 LINE",
"724 575 LINE",
"443 1152 LINE",
"144 1152 LINE"
);
}
);
width = 1466;
},
{
associatedMasterId = "B520048A-B5B0-4F8C-90F0-FFAF6C62D524";
layerId = "CA16F679-756A-4971-BF83-8464B86A50F2";
leftMetricsKey = "=N";
rightMetricsKey = "=H";
name = Condensed;
paths = (
{
closed = 1;
nodes = (
"540 0 LINE",
"540 660 LINE",
"474 660 LINE",
"288 92 LINE",
"323 91 LINE",
"164 660 LINE",
"70 660 LINE",
"70 0 LINE",
"130 0 LINE",
"130 526 LINE",
"276 0 LINE SMOOTH",
"314 0 LINE",
"470 503 LINE",
"470 0 LINE"
);
}
);
width = 620;
},
{
anchors = (
{
name = bottom;
position = "{731, 0}";
},
{
name = top;
position = "{731, 1152}";
}
);
layerId = "21D66A2E-3203-408D-B482-78BB09110413";
paths = (
{
closed = 1;
nodes = (
"128 880 LINE",
"115 72 LINE",
"99 0 LINE",
"330 0 LINE",
"322 72 LINE",
"321 972 LINE",
"341 972 LINE",
"707 237 LINE",
"737 237 LINE",
"1097 972 LINE",
"1119 972 LINE",
"1119 180 LINE",
"1111 0 LINE",
"1393 0 LINE",
"1375 180 LINE",
"1365 880 LINE",
"1391 1152 LINE",
"959 1152 LINE",
"745 695 LINE",
"725 695 LINE",
"497 1152 LINE",
"98 1152 LINE"
);
}
);
width = 1483;
},
{
anchors = (
{
name = bottom;
position = "{675, 0}";
},
{
name = top;
position = "{675, 1152}";
}
);
background = {
paths = (
{
closed = 1;
nodes = (
"995 0 LINE",
"965 660 LINE",
"889 660 LINE",
"681 135 LINE",
"679 118 LINE",
"673 118 LINE",
"671 135 LINE",
"481 660 LINE",
"383 660 LINE",
"363 0 LINE",
"405 0 LINE",
"425 501 LINE",
"415 601 LINE",
"406 597 LINE",
"635 0 LINE SMOOTH",
"675 0 LINE",
"899 574 LINE",
"890 578 LINE",
"880 478 LINE",
"910 0 LINE"
);
},
{
closed = 1;
nodes = (
"293 40 LINE",
"293 0 LINE",
"473 0 LINE",
"473 40 LINE"
);
},
{
closed = 1;
nodes = (
"832 40 LINE",
"832 0 LINE",
"1068 0 LINE",
"1068 40 LINE"
);
},
{
closed = 1;
nodes = (
"890 660 LINE",
"890 620 LINE",
"1053 620 LINE",
"1053 660 LINE"
);
},
{
closed = 1;
nodes = (
"301 660 LINE",
"301 620 LINE",
"473 620 LINE",
"473 660 LINE"
);
}
);
};
layerId = "C5422B82-5DE8-4106-A997-45BC085AEC07";
paths = (
{
closed = 1;
nodes = (
"94 880 LINE",
"85 72 LINE",
"75 0 LINE",
"209 0 LINE",
"203 72 LINE",
"203 1052 LINE",
"221 1052 LINE",
"486 238 LINE",
"506 238 LINE",
"751 1052 LINE",
"770 1052 LINE",
"770 180 LINE",
"762 0 LINE",
"916 0 LINE",
"900 180 LINE",
"892 880 LINE",
"909 1152 LINE",
"683 1152 LINE",
"511 609 LINE",
"498 609 LINE",
"331 1152 LINE",
"74 1152 LINE"
);
}
);
width = 986;
},
{
associatedMasterId = "C5422B82-5DE8-4106-A997-45BC085AEC07";
layerId = "F2B08FB9-81DD-4A97-868B-BBA5AB71E72E";
leftMetricsKey = "=N";
rightMetricsKey = "=H";
name = Condensed;
paths = (
{
closed = 1;
nodes = (
"540 0 LINE",
"540 660 LINE",
"474 660 LINE",
"288 92 LINE",
"323 91 LINE",
"164 660 LINE",
"70 660 LINE",
"70 0 LINE",
"130 0 LINE",
"130 526 LINE",
"276 0 LINE SMOOTH",
"314 0 LINE",
"470 503 LINE",
"470 0 LINE"
);
}
);
width = 620;
}
);
unicode = 004D;
},
{
glyphname = N;
lastChange = "2019-05-01 22:57:23 +0000";
layers = (
{
anchors = (
{
name = bottom;
position = "{620, 0}";
},
{
name = top;
position = "{620, 1152}";
}
);
background = {
paths = (
{
closed = 1;
nodes = (
"908 620 LINE SMOOTH",
"908 660 LINE SMOOTH",
"727 660 LINE",
"727 620 LINE"
);
},
{
closed = 1;
nodes = (
"297 40 LINE",
"297 0 LINE",
"478 0 LINE",
"478 40 LINE"
);
},
{
closed = 1;
nodes = (
"410 29 LINE",
"410 556 LINE",
"365 621 LINE",
"365 29 LINE"
);
},
{
closed = 1;
nodes = (
"795 631 LINE",
"795 75 LINE",
"840 98 LINE",
"425 660 LINE",
"297 660 LINE",
"297 620 LINE",
"344 620 LINE",
"800 0 LINE",
"840 0 LINE",
"840 631 LINE"
);
}
);
};
layerId = "B520048A-B5B0-4F8C-90F0-FFAF6C62D524";
paths = (
{
closed = 1;
nodes = (
"326 1052 LINE",
"824 0 LINE",
"1108 0 LINE",
"1096 72 LINE",
"1096 1080 LINE",
"1108 1152 LINE",
"952 1152 LINE",
"964 1080 LINE",
"964 100 LINE",
"940 100 LINE",
"442 1152 LINE",
"140 1152 LINE",
"170 880 LINE",
"170 72 LINE",
"158 0 LINE",
"314 0 LINE",
"302 72 LINE",
"302 1052 LINE"
);
}
);
width = 1266;
},
{
anchors = (
{
name = bottom;
position = "{557, 0}";
},
{
name = top;
position = "{557, 1152}";
}
);
background = {
paths = (
{
closed = 1;
nodes = (
"560 620 LINE SMOOTH",
"560 660 LINE SMOOTH",
"379 660 LINE",
"379 620 LINE"
);
},
{
closed = 1;
nodes = (
"-51 40 LINE",
"-51 0 LINE",
"130 0 LINE",
"130 40 LINE"
);
},
{
closed = 1;
nodes = (
"62 29 LINE",
"62 556 LINE",
"17 621 LINE",
"17 29 LINE"
);
},
{
closed = 1;
nodes = (
"447 631 LINE",
"447 75 LINE",
"492 98 LINE",
"77 660 LINE",
"-51 660 LINE",
"-51 620 LINE",
"-4 620 LINE",
"452 0 LINE",
"492 0 LINE",
"492 631 LINE"
);
}
);
};
layerId = "21D66A2E-3203-408D-B482-78BB09110413";
paths = (
{
closed = 1;
nodes = (
"356 972 LINE",
"786 0 LINE",
"1218 0 LINE",
"1206 72 LINE",
"1206 1080 LINE",
"1218 1152 LINE",
"982 1152 LINE",
"994 1080 LINE",
"994 180 LINE",
"970 180 LINE",
"540 1152 LINE",
"90 1152 LINE",
"120 880 LINE",
"120 72 LINE",
"108 0 LINE",
"344 0 LINE",
"332 72 LINE",
"332 972 LINE"
);
}
);
width = 1308;
},
{
anchors = (
{
name = bottom;
position = "{546, 0}";
},
{
name = top;
position = "{546, 1152}";
}
);
background = {
paths = (
{
closed = 1;
nodes = (
"834 620 LINE SMOOTH",
"834 660 LINE SMOOTH",
"653 660 LINE",
"653 620 LINE"
);
},
{
closed = 1;
nodes = (
"223 40 LINE",
"223 0 LINE",
"404 0 LINE",
"404 40 LINE"
);
},
{
closed = 1;
nodes = (
"336 29 LINE",
"336 556 LINE",
"291 621 LINE",
"291 29 LINE"
);
},
{
closed = 1;
nodes = (
"721 631 LINE",
"721 75 LINE",
"766 98 LINE",
"351 660 LINE",
"223 660 LINE",
"223 620 LINE",
"270 620 LINE",
"726 0 LINE",
"766 0 LINE",
"766 631 LINE"
);
}
);
};
layerId = "C5422B82-5DE8-4106-A997-45BC085AEC07";
paths = (
{
closed = 1;
nodes = (
"224 1052 LINE",
"508 0 LINE",
"758 0 LINE",
"746 72 LINE",
"746 1080 LINE",
"758 1152 LINE",
"622 1152 LINE",
"634 1080 LINE",
"634 100 LINE",
"612 100 LINE",
"328 1152 LINE",
"60 1152 LINE",
"90 880 LINE",
"90 72 LINE",
"78 0 LINE",
"214 0 LINE",
"202 72 LINE",
"202 1052 LINE"
);
}
);
width = 836;
}
);
unicode = 004E;
},
{
glyphname = Eng;
lastChange = "2019-05-01 22:57:23 +0000";
layers = (
{
layerId = "B520048A-B5B0-4F8C-90F0-FFAF6C62D524";
paths = (
{
closed = 1;
nodes = (
"170 880 LINE",
"170 72 LINE",
"158 0 LINE",
"314 0 LINE",
"302 72 LINE",
"302 1052 LINE",
"326 1052 LINE",
"824 0 LINE",
"1096 0 LINE",
"1096 100 LINE",
"940 100 LINE",
"442 1152 LINE",
"140 1152 LINE"
);
},
{
closed = 1;
nodes = (
"986 972 LINE",
"986 -20 LINE SMOOTH",
"986 -112 OFFCURVE",
"955 -130 OFFCURVE",
"862 -130 CURVE SMOOTH",
"771 -130 OFFCURVE",
"737 -114 OFFCURVE",
"738 -26 CURVE",
"592 -26 LINE",
"592 -198 OFFCURVE",
"676 -222 OFFCURVE",
"841 -222 CURVE SMOOTH",
"861 -222 LINE SMOOTH",
"1028 -222 OFFCURVE",
"1130 -205 OFFCURVE",
"1130 -48 CURVE SMOOTH",
"1130 972 LINE",
"1148 1152 LINE",
"968 1152 LINE"
);
}
);
width = 1300;
},
{
layerId = "21D66A2E-3203-408D-B482-78BB09110413";
paths = (
{
closed = 1;
nodes = (
"120 880 LINE",
"120 72 LINE",
"108 0 LINE",
"344 0 LINE",
"332 72 LINE",
"332 972 LINE",
"356 972 LINE",
"786 0 LINE",
"1056 0 LINE",
"1056 180 LINE",
"970 180 LINE",
"540 1152 LINE",
"90 1152 LINE"
);
},
{
closed = 1;
nodes = (
"994 972 LINE",
"994 -22 LINE SMOOTH",
"994 -114 OFFCURVE",
"963 -132 OFFCURVE",
"830 -132 CURVE SMOOTH",
"699 -132 OFFCURVE",
"675 -116 OFFCURVE",
"676 0 CURVE",
"454 0 LINE",
"454 -280 OFFCURVE",
"538 -304 OFFCURVE",
"773 -304 CURVE SMOOTH",
"879 -304 LINE SMOOTH",
"1126 -304 OFFCURVE",
"1262 -277 OFFCURVE",
"1262 -90 CURVE SMOOTH",
"1262 972 LINE",
"1280 1152 LINE",
"976 1152 LINE"
);
}
);
width = 1370;
},
{
layerId = "C5422B82-5DE8-4106-A997-45BC085AEC07";
paths = (
{
closed = 1;
nodes = (
"90 880 LINE",
"90 72 LINE",
"78 0 LINE",
"214 0 LINE",
"202 72 LINE",
"202 1052 LINE",
"224 1052 LINE",
"508 0 LINE",
"676 0 LINE",
"676 100 LINE",
"612 100 LINE",
"328 1152 LINE",
"60 1152 LINE"
);
},
{
closed = 1;
nodes = (
"664 1080 LINE",
"664 -20 LINE SMOOTH",
"664 -112 OFFCURVE",
"643 -130 OFFCURVE",
"538 -130 CURVE SMOOTH",
"437 -130 OFFCURVE",
"413 -114 OFFCURVE",
"414 -26 CURVE",
"284 -26 LINE",
"284 -198 OFFCURVE",
"362 -222 OFFCURVE",
"475 -222 CURVE SMOOTH",
"588 -222 LINE SMOOTH",
"741 -222 OFFCURVE",
"776 -205 OFFCURVE",
"776 -48 CURVE SMOOTH",
"776 1080 LINE",
"788 1152 LINE",
"652 1152 LINE"
);
}
);
width = 860;
}
);
leftMetricsKey = N;
rightMetricsKey = J;
unicode = 014A;
},
{
glyphname = O;
lastChange = "2019-05-01 22:57:23 +0000";
layers = (
{
anchors = (
{
name = bottom;
position = "{587, 0}";
},
{
name = center;
position = "{587, 576}";
},
{
name = ogonek;
position = "{1047, 10}";
},
{
name = top;
position = "{587, 1152}";
},
{
name = topleft;
position = "{32, 1152}";
},
{
name = topright;
position = "{1142, 1152}";
}
);
background = {
paths = (
{
closed = 1;
nodes = (
"752 674 OFFCURVE",
"582 674 CURVE SMOOTH",
"412 674 OFFCURVE",
"292 532 OFFCURVE",
"292 330 CURVE SMOOTH",
"292 128 OFFCURVE",
"412 -14 OFFCURVE",
"582 -14 CURVE SMOOTH",
"752 -14 OFFCURVE",
"872 128 OFFCURVE",
"872 330 CURVE SMOOTH",
"872 532 OFFCURVE"
);
},
{
closed = 1;
nodes = (
"714 34 OFFCURVE",
"582 34 CURVE SMOOTH",
"450 34 OFFCURVE",
"394 150 OFFCURVE",
"394 330 CURVE SMOOTH",
"394 510 OFFCURVE",
"450 626 OFFCURVE",
"582 626 CURVE SMOOTH",
"714 626 OFFCURVE",
"770 510 OFFCURVE",
"770 330 CURVE SMOOTH",
"770 150 OFFCURVE"
);
}
);
};
layerId = "B520048A-B5B0-4F8C-90F0-FFAF6C62D524";
paths = (
{
closed = 1;
nodes = (
"597 1176 LINE SMOOTH",
"295 1176 OFFCURVE",
"98 1056 OFFCURVE",
"98 576 CURVE SMOOTH",
"98 96 OFFCURVE",
"295 -24 OFFCURVE",
"597 -24 CURVE SMOOTH",
"637 -24 LINE SMOOTH",
"939 -24 OFFCURVE",
"1136 96 OFFCURVE",
"1136 576 CURVE SMOOTH",
"1136 1056 OFFCURVE",
"939 1176 OFFCURVE",
"637 1176 CURVE SMOOTH"
);
},
{
closed = 1;
nodes = (
"962 191 OFFCURVE",
"858 72 OFFCURVE",
"617 72 CURVE SMOOTH",
"376 72 OFFCURVE",
"272 191 OFFCURVE",
"272 576 CURVE SMOOTH",
"272 961 OFFCURVE",
"376 1080 OFFCURVE",
"617 1080 CURVE SMOOTH",
"858 1080 OFFCURVE",
"962 961 OFFCURVE",
"962 576 CURVE SMOOTH"
);
}
);
width = 1234;
},
{
anchors = (
{
name = bottom;
position = "{615, 0}";
},
{
name = center;
position = "{615, 576}";
},
{
name = ogonek;
position = "{1107, 10}";
},
{
name = top;
position = "{615, 1152}";
},
{
name = topleft;
position = "{20, 1152}";
},
{
name = topright;
position = "{1210, 1152}";
}
);
background = {
paths = (
{
closed = 1;
nodes = (
"486 674 OFFCURVE",
"316 674 CURVE SMOOTH",
"146 674 OFFCURVE",
"26 532 OFFCURVE",
"26 330 CURVE SMOOTH",
"26 128 OFFCURVE",
"146 -14 OFFCURVE",
"316 -14 CURVE SMOOTH",
"486 -14 OFFCURVE",
"606 128 OFFCURVE",
"606 330 CURVE SMOOTH",
"606 532 OFFCURVE"
);
},
{
closed = 1;
nodes = (
"448 34 OFFCURVE",
"316 34 CURVE SMOOTH",
"184 34 OFFCURVE",
"128 150 OFFCURVE",
"128 330 CURVE SMOOTH",
"128 510 OFFCURVE",
"184 626 OFFCURVE",
"316 626 CURVE SMOOTH",
"448 626 OFFCURVE",
"504 510 OFFCURVE",
"504 330 CURVE SMOOTH",
"504 150 OFFCURVE"
);
}
);
};
layerId = "21D66A2E-3203-408D-B482-78BB09110413";
paths = (
{
closed = 1;
nodes = (
"589 1176 LINE SMOOTH",
"264 1176 OFFCURVE",
"76 1056 OFFCURVE",
"76 576 CURVE SMOOTH",
"76 96 OFFCURVE",
"264 -24 OFFCURVE",
"589 -24 CURVE SMOOTH",
"661 -24 LINE SMOOTH",
"986 -24 OFFCURVE",
"1174 96 OFFCURVE",
"1174 576 CURVE SMOOTH",
"1174 1056 OFFCURVE",
"986 1176 OFFCURVE",
"661 1176 CURVE SMOOTH"
);
},
{
closed = 1;
nodes = (
"920 252 OFFCURVE",
"828 152 OFFCURVE",
"625 152 CURVE SMOOTH",
"422 152 OFFCURVE",
"330 252 OFFCURVE",
"330 576 CURVE SMOOTH",
"330 900 OFFCURVE",
"422 1000 OFFCURVE",
"625 1000 CURVE SMOOTH",
"828 1000 OFFCURVE",
"920 900 OFFCURVE",
"920 576 CURVE SMOOTH"
);
}
);
width = 1250;
},
{
anchors = (
{
name = bottom;
position = "{336, 0}";
},
{
name = center;
position = "{336, 576}";
},
{
name = ogonek;
position = "{796, 10}";
},
{
name = top;
position = "{336, 1152}";
},
{
name = topleft;
position = "{-219, 1152}";
},
{
name = topright;
position = "{891, 1152}";
}
);
background = {
paths = (
{
closed = 1;
nodes = (
"501 674 OFFCURVE",
"331 674 CURVE SMOOTH",
"161 674 OFFCURVE",
"41 532 OFFCURVE",
"41 330 CURVE SMOOTH",
"41 128 OFFCURVE",
"161 -14 OFFCURVE",
"331 -14 CURVE SMOOTH",
"501 -14 OFFCURVE",
"621 128 OFFCURVE",
"621 330 CURVE SMOOTH",
"621 532 OFFCURVE"
);
},
{
closed = 1;
nodes = (
"463 34 OFFCURVE",
"331 34 CURVE SMOOTH",
"199 34 OFFCURVE",
"143 150 OFFCURVE",
"143 330 CURVE SMOOTH",
"143 510 OFFCURVE",
"199 626 OFFCURVE",
"331 626 CURVE SMOOTH",
"463 626 OFFCURVE",
"519 510 OFFCURVE",
"519 330 CURVE SMOOTH",
"519 150 OFFCURVE"
);
}
);
};
layerId = "C5422B82-5DE8-4106-A997-45BC085AEC07";
paths = (
{
closed = 1;
nodes = (
"345 1176 LINE SMOOTH",
"166 1176 OFFCURVE",
"60 1056 OFFCURVE",
"60 576 CURVE SMOOTH",
"60 96 OFFCURVE",
"166 -24 OFFCURVE",
"345 -24 CURVE SMOOTH",
"387 -24 LINE SMOOTH",
"566 -24 OFFCURVE",
"672 96 OFFCURVE",
"672 576 CURVE SMOOTH",
"672 1056 OFFCURVE",
"566 1176 OFFCURVE",
"387 1176 CURVE SMOOTH"
);
},
{
closed = 1;
nodes = (
"540 191 OFFCURVE",
"488 72 OFFCURVE",
"366 72 CURVE SMOOTH",
"244 72 OFFCURVE",
"192 191 OFFCURVE",
"192 576 CURVE SMOOTH",
"192 961 OFFCURVE",
"244 1080 OFFCURVE",
"366 1080 CURVE SMOOTH",
"488 1080 OFFCURVE",
"540 961 OFFCURVE",
"540 576 CURVE SMOOTH"
);
}
);
width = 732;
}
);
leftKerningGroup = O;
rightKerningGroup = O;
unicode = 004F;
},
{
glyphname = OE;
lastChange = "2019-05-01 22:57:23 +0000";
layers = (
{
anchors = (
{
name = bottom;
position = "{877, 0}";
},
{
name = center;
position = "{331, 330}";
},
{
name = ogonek;
position = "{1096, 10}";
},
{
name = top;
position = "{907, 660}";
},
{
name = topright;
position = "{662, 660}";
}
);
components = (
{
name = O;
}
);
layerId = "B520048A-B5B0-4F8C-90F0-FFAF6C62D524";
paths = (
{
closed = 1;
nodes = (
"832 0 LINE",
"1546 0 LINE",
"1556 114 LINE",
"832 114 LINE"
);
},
{
closed = 1;
nodes = (
"1022 550 LINE",
"1409 550 LINE",
"1417 658 LINE",
"1022 658 LINE"
);
},
{
closed = 1;
nodes = (
"832 1040 LINE",
"1487 1040 LINE",
"1497 1152 LINE",
"832 1152 LINE"
);
}
);
width = 1636;
},
{
anchors = (
{
name = bottom;
position = "{900, 0}";
},
{
name = center;
position = "{331, 330}";
},
{
name = ogonek;
position = "{1119, 10}";
},
{
name = top;
position = "{930, 660}";
},
{
name = topright;
position = "{662, 660}";
}
);
components = (
{
name = O;
}
);
layerId = "21D66A2E-3203-408D-B482-78BB09110413";
paths = (
{
closed = 1;
nodes = (
"484 92 LINE",
"484 0 LINE",
"854 0 LINE",
"862 92 LINE"
);
},
{
closed = 1;
nodes = (
"846 568 LINE",
"854 660 LINE",
"484 660 LINE",
"484 568 LINE"
);
},
{
closed = 1;
nodes = (
"509 299 LINE",
"774 299 LINE",
"774 391 LINE",
"509 391 LINE"
);
}
);
width = 894;
},
{
anchors = (
{
name = bottom;
position = "{877, 0}";
},
{
name = center;
position = "{331, 330}";
},
{
name = ogonek;
position = "{1096, 10}";
},
{
name = top;
position = "{907, 660}";
},
{
name = topright;
position = "{662, 660}";
}
);
components = (
{
name = O;
}
);
layerId = "C5422B82-5DE8-4106-A997-45BC085AEC07";
paths = (
{
closed = 1;
nodes = (
"832 0 LINE",
"1546 0 LINE",
"1556 114 LINE",
"832 114 LINE"
);
},
{
closed = 1;
nodes = (
"1022 550 LINE",
"1409 550 LINE",
"1417 658 LINE",
"1022 658 LINE"
);
},
{
closed = 1;
nodes = (
"832 1040 LINE",
"1487 1040 LINE",
"1497 1152 LINE",
"832 1152 LINE"
);
}
);
width = 1636;
}
);
leftKerningGroup = O;
leftMetricsKey = O;
rightMetricsKey = E;
unicode = 0152;
},
{
glyphname = P;
lastChange = "2019-05-01 22:57:23 +0000";
layers = (
{
anchors = (
{
name = bottom;
position = "{454, 0}";
},
{
name = top;
position = "{454, 1152}";
}
);
background = {
paths = (
{
closed = 1;
nodes = (
"318 0 LINE",
"318 508 LINE",
"370 510 OFFCURVE",
"402 504 OFFCURVE",
"437 483 CURVE SMOOTH",
"566 407 OFFCURVE",
"747 122 OFFCURVE",
"810 0 CURVE",
"985 0 LINE",
"892 159 OFFCURVE",
"732 431 OFFCURVE",
"562 510 CURVE",
"562 513 LINE",
"744 534 OFFCURVE",
"850 670 OFFCURVE",
"850 855 CURVE SMOOTH",
"850 1072 OFFCURVE",
"707 1152 OFFCURVE",
"476 1152 CURVE SMOOTH",
"170 1152 LINE",
"170 0 LINE"
);
},
{
closed = 1;
nodes = (
"318 1040 LINE",
"467 1040 LINE SMOOTH",
"632 1040 OFFCURVE",
"698 997 OFFCURVE",
"700 852 CURVE SMOOTH",
"702 695 OFFCURVE",
"627 602 OFFCURVE",
"457 602 CURVE SMOOTH",
"318 602 LINE"
);
}
);
};
layerId = "B520048A-B5B0-4F8C-90F0-FFAF6C62D524";
paths = (
{
closed = 1;
nodes = (
"170 972 LINE",
"170 180 LINE",
"152 0 LINE",
"332 0 LINE",
"314 180 LINE",
"314 507 LINE",
"375 502 OFFCURVE",
"439 500 OFFCURVE",
"486 500 CURVE SMOOTH",
"721 500 OFFCURVE",
"850 601 OFFCURVE",
"850 875 CURVE SMOOTH",
"850 1121 OFFCURVE",
"749 1152 OFFCURVE",
"565 1152 CURVE SMOOTH",
"152 1152 LINE"
);
},
{
closed = 1;
nodes = (
"530 1054 LINE SMOOTH",
"634 1054 OFFCURVE",
"692 1042 OFFCURVE",
"692 852 CURVE SMOOTH",
"692 675 OFFCURVE",
"637 598 OFFCURVE",
"468 598 CURVE SMOOTH",
"314 598 LINE",
"314 1054 LINE"
);
}
);
width = 926;
},
{
anchors = (
{
name = bottom;
position = "{475, 0}";
},
{
name = top;
position = "{475, 1152}";
}
);
layerId = "21D66A2E-3203-408D-B482-78BB09110413";
paths = (
{
closed = 1;
nodes = (
"108 972 LINE",
"108 180 LINE",
"90 0 LINE",
"366 0 LINE",
"348 180 LINE",
"348 447 LINE",
"389 442 OFFCURVE",
"473 440 OFFCURVE",
"520 440 CURVE SMOOTH",
"755 440 OFFCURVE",
"904 581 OFFCURVE",
"904 845 CURVE SMOOTH",
"904 1121 OFFCURVE",
"753 1152 OFFCURVE",
"549 1152 CURVE SMOOTH",
"90 1152 LINE"
);
},
{
closed = 1;
nodes = (
"484 974 LINE SMOOTH",
"588 974 OFFCURVE",
"646 972 OFFCURVE",
"646 822 CURVE SMOOTH",
"646 675 OFFCURVE",
"591 610 OFFCURVE",
"422 615 CURVE SMOOTH",
"348 617 LINE",
"348 974 LINE"
);
}
);
width = 944;
},
{
anchors = (
{
name = bottom;
position = "{356, 0}";
},
{
name = top;
position = "{356, 1152}";
}
);
background = {
paths = (
{
closed = 1;
nodes = (
"220 0 LINE",
"220 508 LINE",
"272 510 OFFCURVE",
"304 504 OFFCURVE",
"339 483 CURVE SMOOTH",
"468 407 OFFCURVE",
"649 122 OFFCURVE",
"712 0 CURVE",
"887 0 LINE",
"794 159 OFFCURVE",
"634 431 OFFCURVE",
"464 510 CURVE",
"464 513 LINE",
"646 534 OFFCURVE",
"752 670 OFFCURVE",
"752 855 CURVE SMOOTH",
"752 1072 OFFCURVE",
"609 1152 OFFCURVE",
"378 1152 CURVE SMOOTH",
"72 1152 LINE",
"72 0 LINE"
);
},
{
closed = 1;
nodes = (
"220 1040 LINE",
"369 1040 LINE SMOOTH",
"534 1040 OFFCURVE",
"600 997 OFFCURVE",
"602 852 CURVE SMOOTH",
"604 695 OFFCURVE",
"529 602 OFFCURVE",
"359 602 CURVE SMOOTH",
"220 602 LINE"
);
}
);
};
layerId = "C5422B82-5DE8-4106-A997-45BC085AEC07";
paths = (
{
closed = 1;
nodes = (
"90 972 LINE",
"90 180 LINE",
"72 0 LINE",
"234 0 LINE",
"216 180 LINE",
"216 467 LINE",
"259 462 OFFCURVE",
"304 460 OFFCURVE",
"337 460 CURVE SMOOTH",
"502 460 OFFCURVE",
"592 561 OFFCURVE",
"592 855 CURVE SMOOTH",
"592 1121 OFFCURVE",
"521 1152 OFFCURVE",
"392 1152 CURVE SMOOTH",
"72 1152 LINE"
);
},
{
closed = 1;
nodes = (
"353 1054 LINE SMOOTH",
"419 1054 OFFCURVE",
"460 1042 OFFCURVE",
"460 835 CURVE SMOOTH",
"460 635 OFFCURVE",
"420 558 OFFCURVE",
"313 558 CURVE SMOOTH",
"216 558 LINE",
"216 1054 LINE"
);
}
);
width = 610;
}
);
leftKerningGroup = H;
leftMetricsKey = H;
unicode = 0050;
},
{
glyphname = Thorn;
lastChange = "2019-05-01 22:57:23 +0000";
layers = (
{
background = {
paths = (
{
closed = 1;
nodes = (
"568 1058 LINE",
"922 1050 LINE",
"932 1162 LINE",
"732 1152 LINE",
"252 1152 LINE",
"52 1162 LINE",
"42 1050 LINE",
"424 1058 LINE",
"424 180 LINE",
"406 0 LINE",
"586 0 LINE",
"568 180 LINE"
);
},
{
closed = 1;
nodes = (
"1162 180 LINE",
"1144 0 LINE",
"1324 0 LINE",
"1306 180 LINE",
"1306 972 LINE",
"1324 1152 LINE",
"1144 1152 LINE",
"1162 972 LINE",
"1162 644 LINE",
"568 644 LINE",
"568 544 LINE",
"1162 544 LINE"
);
}
);
};
layerId = "B520048A-B5B0-4F8C-90F0-FFAF6C62D524";
paths = (
{
closed = 1;
nodes = (
"170 972 LINE",
"170 180 LINE",
"152 0 LINE",
"332 0 LINE",
"314 180 LINE",
"314 267 LINE",
"375 262 OFFCURVE",
"439 260 OFFCURVE",
"486 260 CURVE SMOOTH",
"721 260 OFFCURVE",
"850 361 OFFCURVE",
"850 635 CURVE SMOOTH",
"850 881 OFFCURVE",
"749 912 OFFCURVE",
"565 912 CURVE SMOOTH",
"314 912 LINE",
"314 972 LINE",
"332 1152 LINE",
"152 1152 LINE"
);
},
{
closed = 1;
nodes = (
"314 814 LINE",
"530 814 LINE SMOOTH",
"634 814 OFFCURVE",
"692 802 OFFCURVE",
"692 612 CURVE SMOOTH",
"692 435 OFFCURVE",
"637 358 OFFCURVE",
"468 358 CURVE SMOOTH",
"314 358 LINE"
);
}
);
width = 926;
},
{
layerId = "21D66A2E-3203-408D-B482-78BB09110413";
paths = (
{
closed = 1;
nodes = (
"108 972 LINE",
"108 180 LINE",
"90 0 LINE",
"366 0 LINE",
"348 180 LINE",
"348 227 LINE",
"389 222 OFFCURVE",
"473 220 OFFCURVE",
"520 220 CURVE SMOOTH",
"755 220 OFFCURVE",
"904 361 OFFCURVE",
"904 625 CURVE SMOOTH",
"904 901 OFFCURVE",
"753 932 OFFCURVE",
"549 932 CURVE SMOOTH",
"348 932 LINE",
"348 972 LINE",
"366 1152 LINE",
"90 1152 LINE"
);
},
{
closed = 1;
nodes = (
"348 754 LINE",
"484 754 LINE SMOOTH",
"588 754 OFFCURVE",
"646 752 OFFCURVE",
"646 602 CURVE SMOOTH",
"646 457 OFFCURVE",
"591 390 OFFCURVE",
"422 395 CURVE SMOOTH",
"348 397 LINE"
);
}
);
width = 994;
},
{
layerId = "C5422B82-5DE8-4106-A997-45BC085AEC07";
paths = (
{
closed = 1;
nodes = (
"90 972 LINE",
"90 180 LINE",
"72 0 LINE",
"234 0 LINE",
"216 180 LINE",
"216 227 LINE",
"259 222 OFFCURVE",
"304 220 OFFCURVE",
"337 220 CURVE SMOOTH",
"502 220 OFFCURVE",
"592 321 OFFCURVE",
"592 615 CURVE SMOOTH",
"592 881 OFFCURVE",
"521 912 OFFCURVE",
"392 912 CURVE SMOOTH",
"216 912 LINE",
"216 972 LINE",
"234 1152 LINE",
"72 1152 LINE"
);
},
{
closed = 1;
nodes = (
"216 814 LINE",
"353 814 LINE SMOOTH",
"419 814 OFFCURVE",
"460 802 OFFCURVE",
"460 595 CURVE SMOOTH",
"460 395 OFFCURVE",
"420 318 OFFCURVE",
"313 318 CURVE SMOOTH",
"216 318 LINE"
);
}
);
width = 610;
}
);
leftMetricsKey = I;
rightMetricsKey = P;
unicode = 00DE;
},
{
glyphname = Q;
lastChange = "2019-05-01 22:57:23 +0000";
layers = (
{
anchors = (
{
name = bottom;
position = "{545, 0}";
},
{
name = top;
position = "{545, 1152}";
}
);
background = {
paths = (
{
closed = 1;
nodes = (
"736 -24 LINE",
"736 0 LINE",
"584 0 LINE",
"784 -263 LINE",
"865 -348 LINE",
"1056 -293 LINE"
);
}
);
};
layerId = "B520048A-B5B0-4F8C-90F0-FFAF6C62D524";
paths = (
{
closed = 1;
nodes = (
"597 1176 LINE SMOOTH",
"295 1176 OFFCURVE",
"98 1056 OFFCURVE",
"98 576 CURVE SMOOTH",
"98 96 OFFCURVE",
"295 -24 OFFCURVE",
"597 -24 CURVE SMOOTH",
"637 -24 LINE SMOOTH",
"939 -24 OFFCURVE",
"1136 96 OFFCURVE",
"1136 576 CURVE SMOOTH",
"1136 1056 OFFCURVE",
"939 1176 OFFCURVE",
"637 1176 CURVE SMOOTH"
);
},
{
closed = 1;
nodes = (
"962 191 OFFCURVE",
"858 72 OFFCURVE",
"617 72 CURVE SMOOTH",
"376 72 OFFCURVE",
"272 191 OFFCURVE",
"272 576 CURVE SMOOTH",
"272 961 OFFCURVE",
"376 1080 OFFCURVE",
"617 1080 CURVE SMOOTH",
"858 1080 OFFCURVE",
"962 961 OFFCURVE",
"962 576 CURVE SMOOTH"
);
},
{
closed = 1;
nodes = (
"736 -24 LINE",
"736 0 LINE",
"584 0 LINE",
"784 -263 LINE",
"865 -348 LINE",
"1056 -293 LINE"
);
}
);
width = 1234;
},
{
anchors = (
{
name = bottom;
position = "{605, 0}";
},
{
name = top;
position = "{605, 1152}";
}
);
layerId = "21D66A2E-3203-408D-B482-78BB09110413";
paths = (
{
closed = 1;
nodes = (
"589 1176 LINE SMOOTH",
"264 1176 OFFCURVE",
"76 1056 OFFCURVE",
"76 576 CURVE SMOOTH",
"76 96 OFFCURVE",
"264 -24 OFFCURVE",
"589 -24 CURVE SMOOTH",
"661 -24 LINE SMOOTH",
"986 -24 OFFCURVE",
"1174 96 OFFCURVE",
"1174 576 CURVE SMOOTH",
"1174 1056 OFFCURVE",
"986 1176 OFFCURVE",
"661 1176 CURVE SMOOTH"
);
},
{
closed = 1;
nodes = (
"920 252 OFFCURVE",
"828 152 OFFCURVE",
"625 152 CURVE SMOOTH",
"422 152 OFFCURVE",
"330 252 OFFCURVE",
"330 576 CURVE SMOOTH",
"330 900 OFFCURVE",
"422 1000 OFFCURVE",
"625 1000 CURVE SMOOTH",
"828 1000 OFFCURVE",
"920 900 OFFCURVE",
"920 576 CURVE SMOOTH"
);
},
{
closed = 1;
nodes = (
"796 -24 LINE",
"796 0 LINE",
"544 0 LINE",
"744 -263 LINE",
"825 -348 LINE",
"1096 -293 LINE"
);
}
);
width = 1250;
},
{
anchors = (
{
name = bottom;
position = "{545, 0}";
},
{
name = top;
position = "{545, 1152}";
}
);
background = {
paths = (
{
closed = 1;
nodes = (
"736 -24 LINE",
"736 0 LINE",
"584 0 LINE",
"784 -263 LINE",
"865 -348 LINE",
"1056 -293 LINE"
);
}
);
};
layerId = "C5422B82-5DE8-4106-A997-45BC085AEC07";
paths = (
{
closed = 1;
nodes = (
"345 1176 LINE SMOOTH",
"166 1176 OFFCURVE",
"60 1056 OFFCURVE",
"60 576 CURVE SMOOTH",
"60 96 OFFCURVE",
"166 -24 OFFCURVE",
"345 -24 CURVE SMOOTH",
"387 -24 LINE SMOOTH",
"566 -24 OFFCURVE",
"672 96 OFFCURVE",
"672 576 CURVE SMOOTH",
"672 1056 OFFCURVE",
"566 1176 OFFCURVE",
"387 1176 CURVE SMOOTH"
);
},
{
closed = 1;
nodes = (
"540 191 OFFCURVE",
"488 72 OFFCURVE",
"366 72 CURVE SMOOTH",
"244 72 OFFCURVE",
"192 191 OFFCURVE",
"192 576 CURVE SMOOTH",
"192 961 OFFCURVE",
"244 1080 OFFCURVE",
"366 1080 CURVE SMOOTH",
"488 1080 OFFCURVE",
"540 961 OFFCURVE",
"540 576 CURVE SMOOTH"
);
},
{
closed = 1;
nodes = (
"444 -24 LINE",
"444 0 LINE",
"292 0 LINE",
"452 -233 LINE",
"533 -348 LINE",
"674 -293 LINE"
);
}
);
width = 734;
}
);
leftKerningGroup = O;
leftMetricsKey = O;
rightKerningGroup = O;
rightMetricsKey = O;
unicode = 0051;
},
{
glyphname = R;
lastChange = "2019-05-01 22:57:23 +0000";
layers = (
{
anchors = (
{
name = bottom;
position = "{497, 90}";
},
{
name = top;
position = "{497, 1152}";
}
);
layerId = "B520048A-B5B0-4F8C-90F0-FFAF6C62D524";
paths = (
{
closed = 1;
nodes = (
"170 972 LINE",
"170 180 LINE",
"152 0 LINE",
"332 0 LINE",
"314 180 LINE",
"314 502 LINE",
"447 502 LINE",
"823 0 LINE",
"1026 0 LINE",
"873 172 LINE",
"712 379 LINE SMOOTH",
"642 469 OFFCURVE",
"621 494 OFFCURVE",
"604 510 CURVE",
"604 513 LINE",
"792 525 OFFCURVE",
"890 661 OFFCURVE",
"890 855 CURVE SMOOTH",
"890 1131 OFFCURVE",
"699 1167 OFFCURVE",
"515 1162 CURVE SMOOTH",
"152 1152 LINE"
);
},
{
closed = 1;
nodes = (
"510 1062 LINE SMOOTH",
"614 1066 OFFCURVE",
"732 1042 OFFCURVE",
"732 832 CURVE SMOOTH",
"732 691 OFFCURVE",
"677 598 OFFCURVE",
"508 598 CURVE SMOOTH",
"314 598 LINE",
"314 1054 LINE"
);
}
);
width = 1086;
},
{
anchors = (
{
name = bottom;
position = "{528, 0}";
},
{
name = top;
position = "{528, 1152}";
}
);
layerId = "21D66A2E-3203-408D-B482-78BB09110413";
paths = (
{
closed = 1;
nodes = (
"108 972 LINE",
"108 180 LINE",
"90 0 LINE",
"366 0 LINE",
"348 180 LINE",
"348 457 LINE",
"415 457 LINE",
"733 0 LINE",
"1060 0 LINE",
"907 172 LINE",
"787 338 LINE SMOOTH",
"719 432 OFFCURVE",
"703 454 OFFCURVE",
"686 470 CURVE",
"686 475 LINE",
"828 518 OFFCURVE",
"914 649.174 OFFCURVE",
"914 865 CURVE SMOOTH",
"914 1121 OFFCURVE",
"773 1152 OFFCURVE",
"569 1152 CURVE SMOOTH",
"90 1152 LINE"
);
},
{
closed = 1;
nodes = (
"494 974 LINE SMOOTH",
"618 974 OFFCURVE",
"656 952 OFFCURVE",
"656 822 CURVE SMOOTH",
"656 665 OFFCURVE",
"601 631 OFFCURVE",
"432 635 CURVE SMOOTH",
"348 637 LINE",
"348 974 LINE"
);
}
);
width = 1068;
},
{
anchors = (
{
name = bottom;
position = "{399, 90}";
},
{
name = top;
position = "{399, 1152}";
}
);
layerId = "C5422B82-5DE8-4106-A997-45BC085AEC07";
paths = (
{
closed = 1;
nodes = (
"90 972 LINE",
"90 180 LINE",
"72 0 LINE",
"234 0 LINE",
"216 180 LINE",
"216 502 LINE",
"293 502 LINE",
"553 0 LINE",
"714 0 LINE",
"610 172 LINE",
"501 377 LINE SMOOTH",
"454 465 OFFCURVE",
"438 492 OFFCURVE",
"426 508 CURVE",
"426 511 LINE",
"556 523 OFFCURVE",
"614 661 OFFCURVE",
"614 853 CURVE SMOOTH",
"614 1131 OFFCURVE",
"490 1166 OFFCURVE",
"333 1161 CURVE SMOOTH",
"72 1152 LINE"
);
},
{
closed = 1;
nodes = (
"317 1062 LINE SMOOTH",
"411 1064 OFFCURVE",
"484 1042 OFFCURVE",
"484 842 CURVE SMOOTH",
"484 691 OFFCURVE",
"440 598 OFFCURVE",
"316 598 CURVE SMOOTH",
"216 598 LINE",
"216 1060 LINE"
);
}
);
width = 726;
}
);
leftMetricsKey = H;
unicode = 0052;
},
{
glyphname = S;
lastChange = "2019-05-01 22:57:23 +0000";
layers = (
{
anchors = (
{
name = bottom;
position = "{500, 0}";
},
{
name = top;
position = "{500, 1152}";
}
);
background = {
paths = (
{
closed = 1;
nodes = (
"96 158 LINE",
"121 -5 OFFCURVE",
"288 -26 OFFCURVE",
"372 -26 CURVE SMOOTH",
"536 -26 OFFCURVE",
"684 52 OFFCURVE",
"684 218 CURVE SMOOTH",
"684 365 OFFCURVE",
"563 401 OFFCURVE",
"419 454 CURVE SMOOTH",
"339 485 OFFCURVE",
"275 516 OFFCURVE",
"275 590 CURVE SMOOTH",
"275 665 OFFCURVE",
"332 703 OFFCURVE",
"414 703 CURVE SMOOTH",
"484 703 OFFCURVE",
"530 676 OFFCURVE",
"519 622 CURVE",
"635 622 LINE",
"661 771 OFFCURVE",
"508 793 OFFCURVE",
"427 793 CURVE SMOOTH",
"263 793 OFFCURVE",
"139 709 OFFCURVE",
"139 568 CURVE SMOOTH",
"139 444 OFFCURVE",
"237 386 OFFCURVE",
"385 337 CURVE SMOOTH",
"494 300 OFFCURVE",
"548 260 OFFCURVE",
"548 190 CURVE SMOOTH",
"548 99 OFFCURVE",
"477 65 OFFCURVE",
"385 65 CURVE SMOOTH",
"298 65 OFFCURVE",
"236 97 OFFCURVE",
"223 193 CURVE"
);
}
);
};
layerId = "B520048A-B5B0-4F8C-90F0-FFAF6C62D524";
paths = (
{
closed = 1;
nodes = (
"762 -18 OFFCURVE",
"914 38 OFFCURVE",
"914 286 CURVE SMOOTH",
"914 548 OFFCURVE",
"756 607 OFFCURVE",
"570 676 CURVE SMOOTH",
"403 738 OFFCURVE",
"289 780 OFFCURVE",
"289 918 CURVE SMOOTH",
"289 1031 OFFCURVE",
"364 1074 OFFCURVE",
"534 1074 CURVE SMOOTH",
"627 1074 OFFCURVE",
"742 1061 OFFCURVE",
"728 934 CURVE",
"868 934 LINE",
"894 1158 OFFCURVE",
"716 1170 OFFCURVE",
"595 1170 CURVE SMOOTH",
"493 1170 LINE SMOOTH",
"275 1170 OFFCURVE",
"140 1111 OFFCURVE",
"140 880 CURVE SMOOTH",
"140 694 OFFCURVE",
"233 631 OFFCURVE",
"469 549 CURVE SMOOTH",
"639 490 OFFCURVE",
"762 452 OFFCURVE",
"762 261 CURVE SMOOTH",
"762 125 OFFCURVE",
"693 80 OFFCURVE",
"523 80 CURVE SMOOTH",
"392 80 OFFCURVE",
"269 108 OFFCURVE",
"241 297 CURVE",
"82 238 LINE",
"114 5 OFFCURVE",
"292 -18 OFFCURVE",
"472 -18 CURVE SMOOTH",
"542 -18 LINE SMOOTH"
);
}
);
width = 1040;
},
{
anchors = (
{
name = bottom;
position = "{488, 0}";
},
{
name = top;
position = "{488, 1152}";
}
);
background = {
paths = (
{
closed = 1;
nodes = (
"386 660 OFFCURVE",
"320 674 OFFCURVE",
"261 674 CURVE SMOOTH",
"152 674 OFFCURVE",
"58 626 OFFCURVE",
"58 506 CURVE SMOOTH",
"58 409 OFFCURVE",
"116 351 OFFCURVE",
"249 292 CURVE SMOOTH",
"365 240 OFFCURVE",
"404 200 OFFCURVE",
"404 139 CURVE SMOOTH",
"404 61 OFFCURVE",
"334 31 OFFCURVE",
"264 31 CURVE SMOOTH",
"214 31 OFFCURVE",
"150 46 OFFCURVE",
"67 87 CURVE",
"52 37 LINE",
"131 3 OFFCURVE",
"203 -14 OFFCURVE",
"274 -14 CURVE SMOOTH",
"396 -14 OFFCURVE",
"490 36 OFFCURVE",
"490 154 CURVE SMOOTH",
"490 277 OFFCURVE",
"386 331 OFFCURVE",
"296 371 CURVE SMOOTH",
"188 418 OFFCURVE",
"137 460 OFFCURVE",
"137 521 CURVE SMOOTH",
"137 578 OFFCURVE",
"182 629 OFFCURVE",
"269 629 CURVE SMOOTH",
"309 629 OFFCURVE",
"370 617 OFFCURVE",
"451 590 CURVE",
"462 637 LINE"
);
}
);
};
layerId = "21D66A2E-3203-408D-B482-78BB09110413";
paths = (
{
closed = 1;
nodes = (
"800 -18 OFFCURVE",
"932 56 OFFCURVE",
"932 304 CURVE SMOOTH",
"932 569 OFFCURVE",
"725 619 OFFCURVE",
"548 688 CURVE SMOOTH",
"407 743 OFFCURVE",
"360 788 OFFCURVE",
"360 867 CURVE SMOOTH",
"360 963 OFFCURVE",
"422 993 OFFCURVE",
"512 993 CURVE SMOOTH",
"595 993 OFFCURVE",
"675 970 OFFCURVE",
"649 849 CURVE",
"896 849 LINE",
"922 1155 OFFCURVE",
"704 1177 OFFCURVE",
"553 1177 CURVE SMOOTH",
"483 1177 LINE SMOOTH",
"255 1177 OFFCURVE",
"108 1105 OFFCURVE",
"108 845 CURVE SMOOTH",
"108 602 OFFCURVE",
"264 549 OFFCURVE",
"465 475 CURVE SMOOTH",
"608 422 OFFCURVE",
"660 393 OFFCURVE",
"660 294 CURVE SMOOTH",
"660 197 OFFCURVE",
"601 166 OFFCURVE",
"511 166 CURVE SMOOTH",
"440 166 OFFCURVE",
"352 188 OFFCURVE",
"324 357 CURVE",
"66 268 LINE",
"104 13 OFFCURVE",
"270 -18 OFFCURVE",
"460 -18 CURVE SMOOTH",
"520 -18 LINE SMOOTH"
);
}
);
width = 992;
},
{
anchors = (
{
name = bottom;
position = "{146, 0}";
},
{
name = top;
position = "{146, 1152}";
}
);
background = {
paths = (
{
closed = 1;
nodes = (
"-258 158 LINE",
"-233 -5 OFFCURVE",
"-66 -26 OFFCURVE",
"18 -26 CURVE SMOOTH",
"182 -26 OFFCURVE",
"330 52 OFFCURVE",
"330 218 CURVE SMOOTH",
"330 365 OFFCURVE",
"209 401 OFFCURVE",
"65 454 CURVE SMOOTH",
"-15 485 OFFCURVE",
"-79 516 OFFCURVE",
"-79 590 CURVE SMOOTH",
"-79 665 OFFCURVE",
"-22 703 OFFCURVE",
"60 703 CURVE SMOOTH",
"130 703 OFFCURVE",
"176 676 OFFCURVE",
"165 622 CURVE",
"281 622 LINE",
"307 771 OFFCURVE",
"154 793 OFFCURVE",
"73 793 CURVE SMOOTH",
"-91 793 OFFCURVE",
"-215 709 OFFCURVE",
"-215 568 CURVE SMOOTH",
"-215 444 OFFCURVE",
"-117 386 OFFCURVE",
"31 337 CURVE SMOOTH",
"140 300 OFFCURVE",
"194 260 OFFCURVE",
"194 190 CURVE SMOOTH",
"194 99 OFFCURVE",
"123 65 OFFCURVE",
"31 65 CURVE SMOOTH",
"-56 65 OFFCURVE",
"-118 97 OFFCURVE",
"-131 193 CURVE"
);
}
);
};
layerId = "C5422B82-5DE8-4106-A997-45BC085AEC07";
paths = (
{
closed = 1;
nodes = (
"500 -18 OFFCURVE",
"600 46 OFFCURVE",
"600 274 CURVE SMOOTH",
"600 506 OFFCURVE",
"485 593 OFFCURVE",
"373 674 CURVE SMOOTH",
"274 746 OFFCURVE",
"208 800 OFFCURVE",
"208 928 CURVE SMOOTH",
"208 1031 OFFCURVE",
"253 1074 OFFCURVE",
"348 1074 CURVE SMOOTH",
"399 1074 OFFCURVE",
"473 1059 OFFCURVE",
"445 862 CURVE",
"570 862 LINE",
"608 1156 OFFCURVE",
"469 1170 OFFCURVE",
"365 1170 CURVE SMOOTH",
"322 1170 LINE SMOOTH",
"179 1170 OFFCURVE",
"86 1115 OFFCURVE",
"86 914 CURVE SMOOTH",
"86 718 OFFCURVE",
"181 642 OFFCURVE",
"307 553 CURVE SMOOTH",
"419 474 OFFCURVE",
"468 415 OFFCURVE",
"468 265 CURVE SMOOTH",
"468 125 OFFCURVE",
"422 80 OFFCURVE",
"330 80 CURVE SMOOTH",
"246 80 OFFCURVE",
"156 118 OFFCURVE",
"230 427 CURVE",
"90 368 LINE",
"33 5 OFFCURVE",
"170 -18 OFFCURVE",
"289 -18 CURVE SMOOTH",
"355 -18 LINE SMOOTH"
);
}
);
width = 650;
}
);
unicode = 0053;
},
{
glyphname = Germandbls;
lastChange = "2019-05-01 22:57:23 +0000";
layers = (
{
background = {
paths = (
{
closed = 1;
nodes = (
"-12 40 LINE",
"-12 0 LINE",
"176 0 LINE",
"156 40 LINE"
);
},
{
closed = 1;
nodes = (
"545 631 LINE",
"445 641 LINE",
"278 369 LINE",
"378 359 LINE"
);
},
{
closed = 1;
nodes = (
"545 631 LINE",
"481 653 OFFCURVE",
"389 674 OFFCURVE",
"314 674 CURVE SMOOTH",
"175 674 OFFCURVE",
"66 597 OFFCURVE",
"66 410 CURVE SMOOTH",
"66 24 LINE",
"156 24 LINE",
"156 410 LINE SMOOTH",
"156 557 OFFCURVE",
"211 617 OFFCURVE",
"283 651 CURVE",
"507 589 LINE"
);
},
{
closed = 1;
nodes = (
"278 321 LINE",
"298 323 OFFCURVE",
"316 324 OFFCURVE",
"332 324 CURVE SMOOTH",
"473 324 OFFCURVE",
"503 244 OFFCURVE",
"503 179 CURVE SMOOTH",
"503 125 OFFCURVE",
"482 41 OFFCURVE",
"385 21 CURVE",
"239 86 LINE",
"211 14 LINE",
"268 -2 OFFCURVE",
"324 -14 OFFCURVE",
"377 -14 CURVE SMOOTH",
"518 -14 OFFCURVE",
"597 71 OFFCURVE",
"597 185 CURVE SMOOTH",
"597 298 OFFCURVE",
"515 372 OFFCURVE",
"335 372 CURVE SMOOTH",
"317 372 OFFCURVE",
"298 371 OFFCURVE",
"278 369 CURVE"
);
}
);
};
layerId = "B520048A-B5B0-4F8C-90F0-FFAF6C62D524";
paths = (
{
closed = 1;
nodes = (
"170 972 LINE",
"170 180 LINE",
"152 0 LINE",
"332 0 LINE",
"314 180 LINE",
"314 1052 LINE",
"746 1052 LINE",
"746 1039 LINE SMOOTH",
"746 887 OFFCURVE",
"521 688 OFFCURVE",
"465 688 CURVE",
"465 568 LINE",
"604 568 LINE SMOOTH",
"772 568 OFFCURVE",
"780 552 OFFCURVE",
"780 388 CURVE SMOOTH",
"780 271 LINE SMOOTH",
"780 119 OFFCURVE",
"727 88 OFFCURVE",
"638 88 CURVE SMOOTH",
"578 88 OFFCURVE",
"511 102 OFFCURVE",
"448 171 CURVE",
"425 22 LINE",
"467 -3 OFFCURVE",
"539 -16 OFFCURVE",
"628 -16 CURVE SMOOTH",
"674 -16 LINE SMOOTH",
"790 -16 OFFCURVE",
"924 6 OFFCURVE",
"924 273 CURVE SMOOTH",
"924 399 LINE SMOOTH",
"924 651 OFFCURVE",
"903 668 OFFCURVE",
"756 668 CURVE SMOOTH",
"659 668 LINE",
"659 672 LINE",
"694 703 OFFCURVE",
"896 868 OFFCURVE",
"896 1054 CURVE SMOOTH",
"896 1152 LINE",
"152 1152 LINE"
);
}
);
width = 972;
},
{
background = {
paths = (
{
closed = 1;
nodes = (
"0 40 LINE",
"0 0 LINE",
"246 0 LINE",
"246 40 LINE"
);
},
{
closed = 1;
nodes = (
"646 593 LINE",
"616 622 LINE",
"391 410 LINE",
"421 381 LINE"
);
},
{
closed = 1;
nodes = (
"607 561 LINE",
"527 651 OFFCURVE",
"436 674 OFFCURVE",
"355 674 CURVE SMOOTH",
"207 674 OFFCURVE",
"78 597 OFFCURVE",
"78 390 CURVE SMOOTH",
"78 24 LINE",
"168 24 LINE",
"168 390 LINE SMOOTH",
"168 557 OFFCURVE",
"255 629 OFFCURVE",
"355 629 CURVE SMOOTH",
"429 629 OFFCURVE",
"485 592 OFFCURVE",
"549 509 CURVE"
);
},
{
closed = 1;
nodes = (
"361 379 LINE",
"541 383 OFFCURVE",
"588 280 OFFCURVE",
"588 185 CURVE SMOOTH",
"588 111 OFFCURVE",
"558 31 OFFCURVE",
"458 31 CURVE SMOOTH",
"423 31 OFFCURVE",
"378 41 OFFCURVE",
"322 76 CURVE",
"284 34 LINE",
"341 8 OFFCURVE",
"407 -14 OFFCURVE",
"460 -14 CURVE SMOOTH",
"581 -14 OFFCURVE",
"680 87 OFFCURVE",
"680 201 CURVE SMOOTH",
"680 325 OFFCURVE",
"561 431 OFFCURVE",
"361 419 CURVE"
);
},
{
closed = 1;
nodes = (
"347 34 LINE",
"339 140 LINE",
"304 140 LINE",
"284 34 LINE"
);
}
);
};
layerId = "21D66A2E-3203-408D-B482-78BB09110413";
paths = (
{
closed = 1;
nodes = (
"108 972 LINE",
"108 180 LINE",
"90 0 LINE",
"366 0 LINE",
"348 180 LINE",
"348 972 LINE",
"746 972 LINE",
"746 959 LINE SMOOTH",
"746 907 OFFCURVE",
"521 678 OFFCURVE",
"465 678 CURVE",
"465 508 LINE",
"666 508 LINE SMOOTH",
"772 508 OFFCURVE",
"784 479 OFFCURVE",
"784 378 CURVE SMOOTH",
"784 294 LINE SMOOTH",
"784 180 OFFCURVE",
"727 148 OFFCURVE",
"638 148 CURVE SMOOTH",
"578 148 OFFCURVE",
"511 162 OFFCURVE",
"448 231 CURVE",
"425 12 LINE",
"487 -13 OFFCURVE",
"559 -26 OFFCURVE",
"632 -26 CURVE SMOOTH",
"758 -26 LINE SMOOTH",
"890 -26 OFFCURVE",
"1024 37 OFFCURVE",
"1024 316 CURVE SMOOTH",
"1024 439 LINE SMOOTH",
"1024 571 OFFCURVE",
"1003 688 OFFCURVE",
"802 688 CURVE SMOOTH",
"744 688 LINE",
"744 692 LINE",
"779 723 OFFCURVE",
"996 868 OFFCURVE",
"996 1054 CURVE SMOOTH",
"996 1152 LINE",
"90 1152 LINE"
);
}
);
width = 1130;
},
{
background = {
paths = (
{
closed = 1;
nodes = (
"-12 40 LINE",
"-12 0 LINE",
"176 0 LINE",
"156 40 LINE"
);
},
{
closed = 1;
nodes = (
"545 631 LINE",
"445 641 LINE",
"278 369 LINE",
"378 359 LINE"
);
},
{
closed = 1;
nodes = (
"545 631 LINE",
"481 653 OFFCURVE",
"389 674 OFFCURVE",
"314 674 CURVE SMOOTH",
"175 674 OFFCURVE",
"66 597 OFFCURVE",
"66 410 CURVE SMOOTH",
"66 24 LINE",
"156 24 LINE",
"156 410 LINE SMOOTH",
"156 557 OFFCURVE",
"211 617 OFFCURVE",
"283 651 CURVE",
"507 589 LINE"
);
},
{
closed = 1;
nodes = (
"278 321 LINE",
"298 323 OFFCURVE",
"316 324 OFFCURVE",
"332 324 CURVE SMOOTH",
"473 324 OFFCURVE",
"503 244 OFFCURVE",
"503 179 CURVE SMOOTH",
"503 125 OFFCURVE",
"482 41 OFFCURVE",
"385 21 CURVE",
"239 86 LINE",
"211 14 LINE",
"268 -2 OFFCURVE",
"324 -14 OFFCURVE",
"377 -14 CURVE SMOOTH",
"518 -14 OFFCURVE",
"597 71 OFFCURVE",
"597 185 CURVE SMOOTH",
"597 298 OFFCURVE",
"515 372 OFFCURVE",
"335 372 CURVE SMOOTH",
"317 372 OFFCURVE",
"298 371 OFFCURVE",
"278 369 CURVE"
);
}
);
};
layerId = "C5422B82-5DE8-4106-A997-45BC085AEC07";
paths = (
{
closed = 1;
nodes = (
"90 972 LINE",
"90 180 LINE",
"72 0 LINE",
"234 0 LINE",
"216 180 LINE",
"216 1052 LINE",
"588 1052 LINE",
"588 1039 LINE SMOOTH",
"588 887 OFFCURVE",
"404 688 OFFCURVE",
"358 688 CURVE",
"358 568 LINE",
"472 568 LINE SMOOTH",
"609 568 OFFCURVE",
"609 512 OFFCURVE",
"609 378 CURVE SMOOTH",
"609 294 LINE SMOOTH",
"609 120 OFFCURVE",
"572 88 OFFCURVE",
"499 88 CURVE SMOOTH",
"450 88 OFFCURVE",
"395 102 OFFCURVE",
"344 171 CURVE",
"325 22 LINE",
"376 -3 OFFCURVE",
"435 -16 OFFCURVE",
"494 -16 CURVE SMOOTH",
"516 -16 LINE SMOOTH",
"624 -16 OFFCURVE",
"735 47 OFFCURVE",
"735 256 CURVE SMOOTH",
"735 389 LINE SMOOTH",
"735 551 OFFCURVE",
"716 668 OFFCURVE",
"596 668 CURVE SMOOTH",
"517 668 LINE",
"517 672 LINE",
"545 703 OFFCURVE",
"723 868 OFFCURVE",
"723 1054 CURVE SMOOTH",
"723 1152 LINE",
"72 1152 LINE"
);
}
);
width = 787;
}
);
leftMetricsKey = H;
unicode = 1E9E;
},
{
glyphname = T;
lastChange = "2019-05-01 22:57:23 +0000";
layers = (
{
anchors = (
{
name = bottom;
position = "{487, 0}";
},
{
name = center;
position = "{487, 576}";
},
{
name = top;
position = "{487, 1152}";
}
);
layerId = "B520048A-B5B0-4F8C-90F0-FFAF6C62D524";
paths = (
{
closed = 1;
nodes = (
"568 1056 LINE",
"922 1048 LINE",
"932 1162 LINE",
"732 1152 LINE",
"252 1152 LINE",
"52 1162 LINE",
"42 1048 LINE",
"424 1056 LINE",
"424 180 LINE",
"406 0 LINE",
"586 0 LINE",
"568 180 LINE"
);
}
);
width = 974;
},
{
anchors = (
{
name = bottom;
position = "{479, 0}";
},
{
name = center;
position = "{479, 576}";
},
{
name = top;
position = "{479, 1152}";
}
);
layerId = "21D66A2E-3203-408D-B482-78BB09110413";
paths = (
{
closed = 1;
nodes = (
"620 968 LINE",
"966 960 LINE",
"976 1162 LINE",
"776 1152 LINE",
"218 1152 LINE",
"18 1162 LINE",
"8 960 LINE",
"380 968 LINE",
"380 180 LINE",
"362 0 LINE",
"638 0 LINE",
"620 180 LINE"
);
}
);
width = 984;
},
{
anchors = (
{
name = bottom;
position = "{299, 0}";
},
{
name = center;
position = "{349, 576}";
},
{
name = top;
position = "{349, 1152}";
}
);
layerId = "C5422B82-5DE8-4106-A997-45BC085AEC07";
paths = (
{
closed = 1;
nodes = (
"428 1054 LINE",
"694 1052 LINE",
"704 1162 LINE",
"504 1152 LINE",
"218 1152 LINE",
"18 1162 LINE",
"8 1052 LINE",
"302 1054 LINE",
"302 180 LINE",
"284 0 LINE",
"446 0 LINE",
"428 180 LINE"
);
}
);
width = 712;
}
);
unicode = 0054;
},
{
glyphname = U;
lastChange = "2019-05-01 22:57:23 +0000";
layers = (
{
anchors = (
{
name = bottom;
position = "{588, 0}";
},
{
name = ogonek;
position = "{818, 0}";
},
{
name = top;
position = "{588, 1152}";
},
{
name = topright;
position = "{1126, 1152}";
}
);
background = {
paths = (
{
closed = 1;
nodes = (
"541 140 LINE",
"480 101 OFFCURVE",
"410 55 OFFCURVE",
"339 55 CURVE SMOOTH",
"273 55 OFFCURVE",
"221 96 OFFCURVE",
"201 153 CURVE SMOOTH",
"191 180 OFFCURVE",
"190 206 OFFCURVE",
"190 237 CURVE SMOOTH",
"190 636 LINE",
"100 636 LINE",
"100 237 LINE SMOOTH",
"100 195 OFFCURVE",
"102 158 OFFCURVE",
"118 117 CURVE SMOOTH",
"157 14 OFFCURVE",
"245 -14 OFFCURVE",
"338 -14 CURVE",
"541 69 LINE"
);
},
{
closed = 1;
nodes = (
"268 620 LINE",
"268 660 LINE",
"22 660 LINE",
"22 620 LINE"
);
},
{
closed = 1;
nodes = (
"470 78 LINE",
"485 -10 LINE",
"638 0 LINE",
"638 38 LINE",
"560 41 LINE",
"560 636 LINE",
"470 636 LINE"
);
},
{
closed = 1;
nodes = (
"638 620 LINE",
"638 660 LINE",
"392 660 LINE",
"392 620 LINE"
);
}
);
};
layerId = "B520048A-B5B0-4F8C-90F0-FFAF6C62D524";
paths = (
{
closed = 1;
nodes = (
"332 1152 LINE",
"144 1152 LINE",
"162 972 LINE",
"162 401 LINE SMOOTH",
"162 81 OFFCURVE",
"286 -30 OFFCURVE",
"588 -30 CURVE SMOOTH",
"900 -30 OFFCURVE",
"1014 81 OFFCURVE",
"1014 391 CURVE SMOOTH",
"1014 1080 LINE",
"1026 1152 LINE",
"874 1152 LINE",
"886 1080 LINE",
"886 411 LINE SMOOTH",
"886 183 OFFCURVE",
"824 82 OFFCURVE",
"614 82 CURVE SMOOTH",
"387 82 OFFCURVE",
"314 193 OFFCURVE",
"314 451 CURVE SMOOTH",
"314 972 LINE"
);
}
);
width = 1176;
},
{
anchors = (
{
name = bottom;
position = "{507, 0}";
},
{
name = ogonek;
position = "{961, 10}";
},
{
name = top;
position = "{507, 1152}";
},
{
name = topright;
position = "{1054, 1152}";
}
);
layerId = "21D66A2E-3203-408D-B482-78BB09110413";
paths = (
{
closed = 1;
nodes = (
"360 1152 LINE",
"84 1152 LINE",
"102 972 LINE",
"102 341 LINE SMOOTH",
"102 41 OFFCURVE",
"226 -30 OFFCURVE",
"558 -30 CURVE SMOOTH",
"880 -30 OFFCURVE",
"1034 41 OFFCURVE",
"1034 331 CURVE SMOOTH",
"1034 1080 LINE",
"1046 1152 LINE",
"810 1152 LINE",
"822 1080 LINE",
"822 441 LINE SMOOTH",
"822 203 OFFCURVE",
"764 142 OFFCURVE",
"583 142 CURVE SMOOTH",
"387 142 OFFCURVE",
"342 213 OFFCURVE",
"342 471 CURVE SMOOTH",
"342 972 LINE"
);
}
);
width = 1130;
},
{
anchors = (
{
name = bottom;
position = "{492, 0}";
},
{
name = ogonek;
position = "{722, 0}";
},
{
name = top;
position = "{492, 1152}";
},
{
name = topright;
position = "{1030, 1152}";
}
);
background = {
paths = (
{
closed = 1;
nodes = (
"445 140 LINE",
"384 101 OFFCURVE",
"314 55 OFFCURVE",
"243 55 CURVE SMOOTH",
"177 55 OFFCURVE",
"125 96 OFFCURVE",
"105 153 CURVE SMOOTH",
"95 180 OFFCURVE",
"94 206 OFFCURVE",
"94 237 CURVE SMOOTH",
"94 636 LINE",
"4 636 LINE",
"4 237 LINE SMOOTH",
"4 195 OFFCURVE",
"6 158 OFFCURVE",
"22 117 CURVE SMOOTH",
"61 14 OFFCURVE",
"149 -14 OFFCURVE",
"242 -14 CURVE",
"445 69 LINE"
);
},
{
closed = 1;
nodes = (
"172 620 LINE",
"172 660 LINE",
"-74 660 LINE",
"-74 620 LINE"
);
},
{
closed = 1;
nodes = (
"374 78 LINE",
"389 -10 LINE",
"542 0 LINE",
"542 38 LINE",
"464 41 LINE",
"464 636 LINE",
"374 636 LINE"
);
},
{
closed = 1;
nodes = (
"542 620 LINE",
"542 660 LINE",
"296 660 LINE",
"296 620 LINE"
);
}
);
};
layerId = "C5422B82-5DE8-4106-A997-45BC085AEC07";
paths = (
{
closed = 1;
nodes = (
"236 1152 LINE",
"70 1152 LINE",
"88 972 LINE",
"88 320 LINE SMOOTH",
"88 60 OFFCURVE",
"190 -30 OFFCURVE",
"397 -30 CURVE SMOOTH",
"604 -30 OFFCURVE",
"704 60 OFFCURVE",
"704 310 CURVE SMOOTH",
"704 1080 LINE",
"716 1152 LINE",
"578 1152 LINE",
"590 1080 LINE",
"590 320 LINE SMOOTH",
"590 152 OFFCURVE",
"528 82 OFFCURVE",
"409 82 CURVE SMOOTH",
"281 82 OFFCURVE",
"218 162 OFFCURVE",
"218 340 CURVE SMOOTH",
"218 972 LINE"
);
}
);
width = 792;
}
);
unicode = 0055;
},
{
glyphname = V;
lastChange = "2019-05-01 22:57:23 +0000";
layers = (
{
anchors = (
{
name = bottom;
position = "{545, 0}";
},
{
name = top;
position = "{545, 1152}";
}
);
layerId = "B520048A-B5B0-4F8C-90F0-FFAF6C62D524";
paths = (
{
closed = 1;
nodes = (
"473 0 LINE",
"755 0 LINE",
"1057 973 LINE",
"1126 1152 LINE",
"954 1152 LINE",
"917 988 LINE",
"639 104 LINE",
"593 104 LINE",
"307 988 LINE",
"274 1152 LINE",
"80 1152 LINE",
"154 966 LINE"
);
}
);
width = 1198;
},
{
anchors = (
{
name = bottom;
position = "{553, 0}";
},
{
name = top;
position = "{553, 1152}";
}
);
layerId = "21D66A2E-3203-408D-B482-78BB09110413";
paths = (
{
closed = 1;
nodes = (
"402 0 LINE",
"814 0 LINE",
"1106 973 LINE",
"1176 1152 LINE",
"904 1152 LINE",
"866 988 LINE",
"638 184 LINE",
"592 184 LINE",
"336 988 LINE",
"302 1152 LINE",
"18 1152 LINE",
"92 966 LINE"
);
}
);
width = 1188;
},
{
anchors = (
{
name = bottom;
position = "{545, 0}";
},
{
name = top;
position = "{545, 1152}";
}
);
layerId = "C5422B82-5DE8-4106-A997-45BC085AEC07";
paths = (
{
closed = 1;
nodes = (
"284 0 LINE",
"533 0 LINE",
"717 973 LINE",
"768 1152 LINE",
"638 1152 LINE",
"613 988 LINE",
"432 104 LINE",
"392 104 LINE",
"202 988 LINE",
"177 1152 LINE",
"12 1152 LINE",
"68 966 LINE"
);
}
);
width = 780;
}
);
leftKerningGroup = V;
rightKerningGroup = V;
unicode = 0056;
},
{
glyphname = W;
lastChange = "2019-05-01 22:57:23 +0000";
layers = (
{
anchors = (
{
name = bottom;
position = "{758, 0}";
},
{
name = top;
position = "{768, 1152}";
}
);
background = {
paths = (
{
closed = 1;
nodes = (
"122 1152 LINE",
"392 0 LINE",
"650 0 LINE",
"1008 1152 LINE",
"882 1152 LINE",
"556 104 LINE",
"514 104 LINE",
"268 1152 LINE"
);
},
{
closed = 1;
nodes = (
"550 1152 LINE",
"928 0 LINE",
"1174 0 LINE",
"1442 1152 LINE",
"1316 1152 LINE",
"1070 104 LINE",
"1020 104 LINE",
"682 1152 LINE"
);
}
);
};
layerId = "B520048A-B5B0-4F8C-90F0-FFAF6C62D524";
paths = (
{
closed = 1;
nodes = (
"270 1152 LINE",
"90 1152 LINE",
"158 966 LINE",
"324 0 LINE",
"602 0 LINE",
"746 1048 LINE",
"818 1048 LINE",
"970 0 LINE",
"1236 0 LINE",
"1402 973 LINE",
"1460 1152 LINE",
"1314 1152 LINE",
"1294 1108 LINE",
"1120 104 LINE",
"1082 104 LINE",
"940 1085 LINE",
"964 1152 LINE",
"604 1152 LINE",
"632 1081 LINE",
"488 104 LINE",
"446 104 LINE",
"297 988 LINE"
);
}
);
width = 1551;
},
{
anchors = (
{
name = bottom;
position = "{827, 0}";
},
{
name = top;
position = "{837, 1152}";
}
);
background = {
paths = (
{
closed = 1;
nodes = (
"79 1152 LINE",
"384 0 LINE",
"802 0 LINE",
"1197 1152 LINE",
"981 1152 LINE",
"651 186 LINE",
"601 186 LINE",
"353 1152 LINE"
);
},
{
closed = 1;
nodes = (
"599 1152 LINE",
"984 0 LINE",
"1402 0 LINE",
"1717 1152 LINE",
"1501 1152 LINE",
"1251 186 LINE",
"1201 186 LINE",
"873 1152 LINE"
);
}
);
};
layerId = "21D66A2E-3203-408D-B482-78BB09110413";
paths = (
{
closed = 1;
nodes = (
"300 1152 LINE",
"18 1152 LINE",
"86 966 LINE",
"232 0 LINE",
"700 0 LINE",
"815 968 LINE",
"867 968 LINE",
"982 0 LINE",
"1458 0 LINE",
"1608 973 LINE",
"1667 1152 LINE",
"1405 1152 LINE",
"1385 1108 LINE",
"1243 184 LINE",
"1191 184 LINE",
"1095 1085 LINE",
"1119 1152 LINE",
"573 1152 LINE",
"601 1081 LINE",
"502 184 LINE",
"450 184 LINE",
"327 988 LINE"
);
}
);
width = 1679;
},
{
anchors = (
{
name = bottom;
position = "{583, 0}";
},
{
name = top;
position = "{593, 1152}";
}
);
background = {
paths = (
{
closed = 1;
nodes = (
"-53 1152 LINE",
"217 0 LINE",
"475 0 LINE",
"833 1152 LINE",
"707 1152 LINE",
"381 104 LINE",
"339 104 LINE",
"93 1152 LINE"
);
},
{
closed = 1;
nodes = (
"375 1152 LINE",
"753 0 LINE",
"999 0 LINE",
"1267 1152 LINE",
"1141 1152 LINE",
"895 104 LINE",
"845 104 LINE",
"507 1152 LINE"
);
}
);
};
layerId = "C5422B82-5DE8-4106-A997-45BC085AEC07";
paths = (
{
closed = 1;
nodes = (
"231 1152 LINE",
"72 1152 LINE",
"122 966 LINE",
"245 0 LINE",
"484 0 LINE",
"589 1048 LINE",
"611 1048 LINE",
"722 0 LINE",
"966 0 LINE",
"1088 973 LINE",
"1130 1152 LINE",
"993 1152 LINE",
"979 1108 LINE",
"852 104 LINE",
"834 104 LINE",
"730 1085 LINE",
"748 1152 LINE",
"465 1152 LINE",
"486 1081 LINE",
"378 104 LINE",
"360 104 LINE",
"251 988 LINE"
);
}
);
width = 1202;
}
);
leftKerningGroup = V;
rightKerningGroup = V;
unicode = 0057;
},
{
glyphname = X;
lastChange = "2019-05-01 22:57:23 +0000";
layers = (
{
anchors = (
{
name = bottom;
position = "{534, 0}";
},
{
name = top;
position = "{534, 1152}";
}
);
background = {
paths = (
{
closed = 1;
nodes = (
"635 594 LINE",
"1002 0 LINE",
"818 0 LINE",
"551 474 LINE",
"519 474 LINE",
"225 0 LINE",
"76 0 LINE",
"445 594 LINE",
"94 1152 LINE",
"253 1152 LINE",
"529 704 LINE",
"561 704 LINE",
"838 1152 LINE",
"984 1152 LINE"
);
}
);
};
layerId = "B520048A-B5B0-4F8C-90F0-FFAF6C62D524";
paths = (
{
closed = 1;
nodes = (
"61 0 LINE",
"236 0 LINE",
"326 164 LINE",
"519 474 LINE",
"551 474 LINE",
"726 164 LINE",
"809 0 LINE",
"1015 0 LINE",
"887 186 LINE",
"635 594 LINE",
"872 973 LINE",
"1000 1152 LINE",
"827 1152 LINE",
"737 988 LINE",
"561 704 LINE",
"529 704 LINE",
"354 988 LINE",
"264 1152 LINE",
"77 1152 LINE",
"211 966 LINE",
"445 594 LINE",
"187 179 LINE"
);
}
);
width = 1068;
},
{
anchors = (
{
name = bottom;
position = "{546, 0}";
},
{
name = top;
position = "{546, 1152}";
}
);
background = {
paths = (
{
closed = 1;
nodes = (
"103 0 LINE",
"278 0 LINE",
"368 164 LINE",
"561 474 LINE",
"593 474 LINE",
"768 164 LINE",
"851 0 LINE",
"1057 0 LINE",
"929 186 LINE",
"677 594 LINE",
"914 973 LINE",
"1042 1152 LINE",
"869 1152 LINE",
"779 988 LINE",
"603 704 LINE",
"571 704 LINE",
"396 988 LINE",
"306 1152 LINE",
"119 1152 LINE",
"253 966 LINE",
"487 594 LINE",
"229 179 LINE"
);
}
);
};
layerId = "21D66A2E-3203-408D-B482-78BB09110413";
paths = (
{
closed = 1;
nodes = (
"12 0 LINE",
"298 0 LINE",
"388 164 LINE",
"551 424 LINE",
"593 424 LINE",
"738 164 LINE",
"821 0 LINE",
"1127 0 LINE",
"999 186 LINE",
"757 594 LINE",
"1004 973 LINE",
"1132 1152 LINE",
"849 1152 LINE",
"759 988 LINE",
"613 754 LINE",
"571 754 LINE",
"426 988 LINE",
"336 1152 LINE",
"59 1152 LINE",
"193 966 LINE",
"397 594 LINE",
"138 179 LINE"
);
}
);
width = 1144;
},
{
anchors = (
{
name = bottom;
position = "{543, 0}";
},
{
name = top;
position = "{543, 1152}";
}
);
background = {
paths = (
{
closed = 1;
nodes = (
"644 594 LINE",
"1011 0 LINE",
"827 0 LINE",
"560 474 LINE",
"528 474 LINE",
"234 0 LINE",
"85 0 LINE",
"454 594 LINE",
"103 1152 LINE",
"262 1152 LINE",
"538 704 LINE",
"570 704 LINE",
"847 1152 LINE",
"993 1152 LINE"
);
}
);
};
layerId = "C5422B82-5DE8-4106-A997-45BC085AEC07";
paths = (
{
closed = 1;
nodes = (
"50 0 LINE",
"190 0 LINE",
"247 164 LINE",
"358 474 LINE",
"378 474 LINE",
"478 164 LINE",
"530 0 LINE",
"690 0 LINE",
"609 186 LINE",
"461 594 LINE",
"600 973 LINE",
"681 1152 LINE",
"542 1152 LINE",
"485 988 LINE",
"384 704 LINE",
"364 704 LINE",
"264 988 LINE",
"208 1152 LINE",
"50 1152 LINE",
"134 966 LINE",
"272 594 LINE",
"129 179 LINE"
);
}
);
width = 740;
}
);
unicode = 0058;
},
{
glyphname = Y;
lastChange = "2019-05-01 22:57:23 +0000";
layers = (
{
anchors = (
{
name = bottom;
position = "{489, 0}";
},
{
name = top;
position = "{489, 1152}";
},
{
name = topleft;
position = "{34, 1152}";
}
);
layerId = "B520048A-B5B0-4F8C-90F0-FFAF6C62D524";
paths = (
{
closed = 1;
nodes = (
"446 224 LINE",
"332 0 LINE",
"500 0 LINE",
"570 180 LINE",
"916 973 LINE",
"1004 1152 LINE",
"830 1152 LINE",
"774 988 LINE"
);
},
{
closed = 1;
nodes = (
"593 508 LINE",
"505 508 LINE",
"296 988 LINE",
"222 1152 LINE",
"46 1152 LINE",
"143 966 LINE",
"392 408 LINE",
"540 408 LINE"
);
}
);
width = 1028;
},
{
anchors = (
{
name = bottom;
position = "{569, 0}";
},
{
name = top;
position = "{569, 1152}";
},
{
name = topleft;
position = "{26, 1152}";
}
);
layerId = "21D66A2E-3203-408D-B482-78BB09110413";
paths = (
{
closed = 1;
nodes = (
"422 234 LINE",
"293 0 LINE",
"567 0 LINE",
"648 180 LINE",
"1040 973 LINE",
"1138 1152 LINE",
"870 1152 LINE",
"794 988 LINE"
);
},
{
closed = 1;
nodes = (
"601 588 LINE",
"551 588 LINE",
"372 988 LINE",
"298 1152 LINE",
"22 1152 LINE",
"119 966 LINE",
"368 408 LINE",
"526 408 LINE"
);
}
);
width = 1154;
},
{
anchors = (
{
name = bottom;
position = "{323, 0}";
},
{
name = top;
position = "{323, 1152}";
},
{
name = topleft;
position = "{68, 1152}";
}
);
layerId = "C5422B82-5DE8-4106-A997-45BC085AEC07";
paths = (
{
closed = 1;
nodes = (
"280 224 LINE",
"223 0 LINE",
"366 0 LINE",
"391 180 LINE",
"564 973 LINE",
"608 1152 LINE",
"472 1152 LINE",
"444 988 LINE"
);
},
{
closed = 1;
nodes = (
"374 568 LINE",
"290 568 LINE",
"184 988 LINE",
"147 1152 LINE",
"6 1152 LINE",
"55 966 LINE",
"180 468 LINE",
"347 468 LINE"
);
}
);
width = 680;
}
);
unicode = 0059;
},
{
glyphname = Z;
lastChange = "2019-05-01 22:57:23 +0000";
layers = (
{
anchors = (
{
name = bottom;
position = "{459, 0}";
},
{
name = top;
position = "{459, 1152}";
}
);
background = {
paths = (
{
closed = 1;
nodes = (
"274 110 LINE",
"274 113 LINE",
"838 1122 LINE",
"838 1152 LINE",
"88 1152 LINE",
"88 1044 LINE",
"612 1044 LINE",
"612 1041 LINE",
"48 30 LINE",
"48 0 LINE",
"860 0 LINE",
"870 110 LINE"
);
}
);
};
layerId = "B520048A-B5B0-4F8C-90F0-FFAF6C62D524";
paths = (
{
closed = 1;
nodes = (
"88 1044 LINE",
"612 1044 LINE",
"612 1041 LINE",
"48 30 LINE",
"48 0 LINE",
"860 0 LINE",
"870 120 LINE",
"274 110 LINE",
"274 113 LINE",
"838 1122 LINE",
"838 1152 LINE",
"298 1156 LINE",
"98 1166 LINE"
);
}
);
width = 918;
},
{
anchors = (
{
name = bottom;
position = "{451, 0}";
},
{
name = top;
position = "{451, 1152}";
}
);
background = {
paths = (
{
closed = 1;
nodes = (
"366 190 LINE",
"366 193 LINE",
"814 1122 LINE",
"814 1152 LINE",
"64 1152 LINE",
"64 964 LINE",
"472 964 LINE",
"472 961 LINE",
"24 30 LINE",
"24 0 LINE",
"836 0 LINE",
"846 190 LINE"
);
}
);
};
layerId = "21D66A2E-3203-408D-B482-78BB09110413";
paths = (
{
closed = 1;
nodes = (
"46 980 LINE",
"516 980 LINE",
"516 977 LINE",
"24 30 LINE",
"24 0 LINE",
"876 0 LINE",
"886 190 LINE",
"382 180 LINE",
"382 183 LINE",
"874 1122 LINE",
"874 1152 LINE",
"256 1152 LINE",
"56 1162 LINE"
);
}
);
width = 910;
},
{
anchors = (
{
name = bottom;
position = "{288, 0}";
},
{
name = top;
position = "{288, 1152}";
}
);
background = {
paths = (
{
closed = 1;
nodes = (
"103 110 LINE",
"103 113 LINE",
"667 1122 LINE",
"667 1152 LINE",
"-83 1152 LINE",
"-83 1044 LINE",
"441 1044 LINE",
"441 1041 LINE",
"-123 30 LINE",
"-123 0 LINE",
"689 0 LINE",
"699 110 LINE"
);
}
);
};
layerId = "C5422B82-5DE8-4106-A997-45BC085AEC07";
paths = (
{
closed = 1;
nodes = (
"71 1050 LINE",
"411 1050 LINE",
"411 1047 LINE",
"48 30 LINE",
"48 0 LINE",
"592 0 LINE",
"598 110 LINE",
"216 110 LINE",
"216 113 LINE",
"579 1122 LINE",
"579 1152 LINE",
"194 1156 LINE",
"77 1166 LINE"
);
}
);
width = 650;
}
);
unicode = 005A;
},
{
glyphname = A.ss02;
lastChange = "2019-05-01 22:57:23 +0000";
layers = (
{
background = {
paths = (
{
closed = 1;
nodes = (
"901 -448 LINE",
"901 1152 LINE",
"724 1152 LINE",
"724 -448 LINE"
);
},
{
closed = 1;
nodes = (
"1408 -448 LINE",
"1408 1152 LINE",
"1231 1152 LINE",
"1231 -448 LINE"
);
},
{
closed = 1;
nodes = (
"786 -448 LINE",
"786 -288 LINE",
"177 -288 LINE",
"177 -448 LINE"
);
},
{
closed = 1;
nodes = (
"1954 -448 LINE",
"1954 -288 LINE",
"1345 -288 LINE",
"1345 -448 LINE"
);
},
{
closed = 1;
nodes = (
"1954 992 LINE",
"1954 1152 LINE",
"177 1152 LINE",
"177 992 LINE"
);
},
{
closed = 1;
nodes = (
"1954 32 LINE",
"1954 192 LINE",
"177 192 LINE",
"177 32 LINE"
);
},
{
closed = 1;
nodes = (
"854 512 LINE",
"854 672 LINE",
"177 672 LINE",
"177 512 LINE"
);
},
{
closed = 1;
nodes = (
"1954 512 LINE",
"1954 672 LINE",
"1277 672 LINE",
"1277 512 LINE"
);
}
);
};
layerId = "B520048A-B5B0-4F8C-90F0-FFAF6C62D524";
paths = (
{
closed = 1;
nodes = (
"887 -348 LINE",
"887 1252 LINE",
"710 1252 LINE",
"710 -348 LINE"
);
},
{
closed = 1;
nodes = (
"1421 -348 LINE",
"1421 1252 LINE",
"1244 1252 LINE",
"1244 -348 LINE"
);
},
{
closed = 1;
nodes = (
"786 -348 LINE",
"786 -188 LINE",
"177 -188 LINE",
"177 -348 LINE"
);
},
{
closed = 1;
nodes = (
"1954 -348 LINE",
"1954 -188 LINE",
"1345 -188 LINE",
"1345 -348 LINE"
);
},
{
closed = 1;
nodes = (
"1954 1092 LINE",
"1954 1252 LINE",
"177 1252 LINE",
"177 1092 LINE"
);
},
{
closed = 1;
nodes = (
"1954 132 LINE",
"1954 292 LINE",
"177 292 LINE",
"177 132 LINE"
);
},
{
closed = 1;
nodes = (
"854 612 LINE",
"854 772 LINE",
"177 772 LINE",
"177 612 LINE"
);
},
{
closed = 1;
nodes = (
"1954 612 LINE",
"1954 772 LINE",
"1277 772 LINE",
"1277 612 LINE"
);
}
);
width = 2131;
},
{
layerId = "21D66A2E-3203-408D-B482-78BB09110413";
paths = (
{
closed = 1;
nodes = (
"1006 -348 LINE",
"1006 1252 LINE",
"652 1252 LINE",
"652 -348 LINE"
);
},
{
closed = 1;
nodes = (
"1480 -348 LINE",
"1480 1252 LINE",
"1126 1252 LINE",
"1126 -348 LINE"
);
},
{
closed = 1;
nodes = (
"786 -348 LINE",
"786 -28 LINE",
"177 -28 LINE",
"177 -348 LINE"
);
},
{
closed = 1;
nodes = (
"1954 -348 LINE",
"1954 -28 LINE",
"1345 -28 LINE",
"1345 -348 LINE"
);
},
{
closed = 1;
nodes = (
"1954 932 LINE",
"1954 1252 LINE",
"177 1252 LINE",
"177 932 LINE"
);
},
{
closed = 1;
nodes = (
"1954 79 LINE",
"1954 399 LINE",
"177 399 LINE",
"177 79 LINE"
);
},
{
closed = 1;
nodes = (
"854 506 LINE",
"854 826 LINE",
"177 826 LINE",
"177 506 LINE"
);
},
{
closed = 1;
nodes = (
"1954 506 LINE",
"1954 826 LINE",
"1277 826 LINE",
"1277 506 LINE"
);
}
);
width = 2131;
},
{
background = {
paths = (
{
closed = 1;
nodes = (
"901 -448 LINE",
"901 1152 LINE",
"724 1152 LINE",
"724 -448 LINE"
);
},
{
closed = 1;
nodes = (
"1408 -448 LINE",
"1408 1152 LINE",
"1231 1152 LINE",
"1231 -448 LINE"
);
},
{
closed = 1;
nodes = (
"786 -448 LINE",
"786 -288 LINE",
"177 -288 LINE",
"177 -448 LINE"
);
},
{
closed = 1;
nodes = (
"1954 -448 LINE",
"1954 -288 LINE",
"1345 -288 LINE",
"1345 -448 LINE"
);
},
{
closed = 1;
nodes = (
"1954 992 LINE",
"1954 1152 LINE",
"177 1152 LINE",
"177 992 LINE"
);
},
{
closed = 1;
nodes = (
"1954 32 LINE",
"1954 192 LINE",
"177 192 LINE",
"177 32 LINE"
);
},
{
closed = 1;
nodes = (
"854 512 LINE",
"854 672 LINE",
"177 672 LINE",
"177 512 LINE"
);
},
{
closed = 1;
nodes = (
"1954 512 LINE",
"1954 672 LINE",
"1277 672 LINE",
"1277 512 LINE"
);
}
);
};
layerId = "C5422B82-5DE8-4106-A997-45BC085AEC07";
paths = (
{
closed = 1;
nodes = (
"887 -348 LINE",
"887 1252 LINE",
"710 1252 LINE",
"710 -348 LINE"
);
},
{
closed = 1;
nodes = (
"1421 -348 LINE",
"1421 1252 LINE",
"1244 1252 LINE",
"1244 -348 LINE"
);
},
{
closed = 1;
nodes = (
"786 -348 LINE",
"786 -188 LINE",
"177 -188 LINE",
"177 -348 LINE"
);
},
{
closed = 1;
nodes = (
"1954 -348 LINE",
"1954 -188 LINE",
"1345 -188 LINE",
"1345 -348 LINE"
);
},
{
closed = 1;
nodes = (
"1954 1092 LINE",
"1954 1252 LINE",
"177 1252 LINE",
"177 1092 LINE"
);
},
{
closed = 1;
nodes = (
"1954 132 LINE",
"1954 292 LINE",
"177 292 LINE",
"177 132 LINE"
);
},
{
closed = 1;
nodes = (
"854 612 LINE",
"854 772 LINE",
"177 772 LINE",
"177 612 LINE"
);
},
{
closed = 1;
nodes = (
"1954 612 LINE",
"1954 772 LINE",
"1277 772 LINE",
"1277 612 LINE"
);
}
);
width = 2131;
}
);
},
{
glyphname = B.ss02;
lastChange = "2019-05-01 22:57:23 +0000";
layers = (
{
layerId = "B520048A-B5B0-4F8C-90F0-FFAF6C62D524";
paths = (
{
closed = 1;
nodes = (
"887 -348 LINE",
"887 1252 LINE",
"710 1252 LINE",
"710 -348 LINE"
);
},
{
closed = 1;
nodes = (
"1954 -348 LINE",
"1954 -188 LINE",
"845 -188 LINE",
"845 -348 LINE"
);
},
{
closed = 1;
nodes = (
"1954 1092 LINE",
"1954 1252 LINE",
"177 1252 LINE",
"177 1092 LINE"
);
},
{
closed = 1;
nodes = (
"1954 612 LINE",
"1954 772 LINE",
"788 772 LINE",
"788 612 LINE"
);
},
{
closed = 1;
nodes = (
"354 -348 LINE",
"354 772 LINE",
"177 772 LINE",
"177 -348 LINE"
);
},
{
closed = 1;
nodes = (
"1954 -288 LINE",
"1954 1132 LINE",
"1777 1132 LINE",
"1777 -288 LINE"
);
},
{
closed = 1;
nodes = (
"1600 132 LINE",
"1600 292 LINE",
"1064 292 LINE",
"1064 132 LINE"
);
}
);
width = 2131;
},
{
layerId = "21D66A2E-3203-408D-B482-78BB09110413";
paths = (
{
closed = 1;
nodes = (
"1006 -348 LINE",
"1006 1252 LINE",
"652 1252 LINE",
"652 -348 LINE"
);
},
{
closed = 1;
nodes = (
"1954 -348 LINE",
"1954 -28 LINE",
"845 -28 LINE",
"845 -348 LINE"
);
},
{
closed = 1;
nodes = (
"1954 932 LINE",
"1954 1252 LINE",
"177 1252 LINE",
"177 932 LINE"
);
},
{
closed = 1;
nodes = (
"1954 506 LINE",
"1954 826 LINE",
"794 826 LINE",
"794 506 LINE"
);
},
{
closed = 1;
nodes = (
"531 -348 LINE",
"531 826 LINE",
"177 826 LINE",
"177 -348 LINE"
);
},
{
closed = 1;
nodes = (
"1954 -288 LINE",
"1954 1132 LINE",
"1600 1132 LINE",
"1600 -288 LINE"
);
},
{
closed = 1;
nodes = (
"1480 79 LINE",
"1480 399 LINE",
"1126 399 LINE",
"1126 79 LINE"
);
}
);
width = 2131;
},
{
layerId = "C5422B82-5DE8-4106-A997-45BC085AEC07";
paths = (
{
closed = 1;
nodes = (
"887 -348 LINE",
"887 1252 LINE",
"710 1252 LINE",
"710 -348 LINE"
);
},
{
closed = 1;
nodes = (
"1954 -348 LINE",
"1954 -188 LINE",
"845 -188 LINE",
"845 -348 LINE"
);
},
{
closed = 1;
nodes = (
"1954 1092 LINE",
"1954 1252 LINE",
"177 1252 LINE",
"177 1092 LINE"
);
},
{
closed = 1;
nodes = (
"1954 612 LINE",
"1954 772 LINE",
"730 772 LINE",
"730 612 LINE"
);
},
{
closed = 1;
nodes = (
"354 -348 LINE",
"354 768 LINE",
"177 768 LINE",
"177 -348 LINE"
);
},
{
closed = 1;
nodes = (
"1954 -288 LINE",
"1954 1132 LINE",
"1777 1132 LINE",
"1777 -288 LINE"
);
},
{
closed = 1;
nodes = (
"1600 132 LINE",
"1600 292 LINE",
"1064 292 LINE",
"1064 132 LINE"
);
}
);
width = 2131;
}
);
},
{
glyphname = C.ss02;
lastChange = "2019-05-01 22:57:23 +0000";
layers = (
{
layerId = "B520048A-B5B0-4F8C-90F0-FFAF6C62D524";
paths = (
{
closed = 1;
nodes = (
"1954 -348 LINE",
"1954 -188 LINE",
"710 -188 LINE",
"710 -348 LINE"
);
},
{
closed = 1;
nodes = (
"1954 1092 LINE",
"1954 1252 LINE",
"710 1252 LINE",
"710 1092 LINE"
);
},
{
closed = 1;
nodes = (
"887 -348 LINE",
"887 1252 LINE",
"710 1252 LINE",
"710 -348 LINE"
);
},
{
closed = 1;
nodes = (
"1421 132 LINE",
"1421 773 LINE",
"1244 773 LINE",
"1244 132 LINE"
);
},
{
closed = 1;
nodes = (
"1954 132 LINE",
"1954 292 LINE",
"1244 292 LINE",
"1244 132 LINE"
);
},
{
closed = 1;
nodes = (
"1954 192 LINE",
"1954 712 LINE",
"1777 712 LINE",
"1777 192 LINE"
);
},
{
closed = 1;
nodes = (
"1954 612 LINE",
"1954 772 LINE",
"1244 773 LINE",
"1244 613 LINE"
);
},
{
closed = 1;
nodes = (
"354 -348 LINE",
"354 1252 LINE",
"177 1252 LINE",
"177 -348 LINE"
);
}
);
width = 2131;
},
{
layerId = "21D66A2E-3203-408D-B482-78BB09110413";
paths = (
{
closed = 1;
nodes = (
"1954 -348 LINE",
"1954 -28 LINE",
"652 -28 LINE",
"652 -348 LINE"
);
},
{
closed = 1;
nodes = (
"1954 932 LINE",
"1954 1252 LINE",
"652 1252 LINE",
"652 932 LINE"
);
},
{
closed = 1;
nodes = (
"1006 -348 LINE",
"1006 1252 LINE",
"652 1252 LINE",
"652 -348 LINE"
);
},
{
closed = 1;
nodes = (
"1480 79 LINE",
"1480 826 LINE",
"1126 826 LINE",
"1126 79 LINE"
);
},
{
closed = 1;
nodes = (
"1954 79 LINE",
"1954 399 LINE",
"1126 399 LINE",
"1126 79 LINE"
);
},
{
closed = 1;
nodes = (
"1954 79 LINE",
"1954 826 LINE",
"1600 826 LINE",
"1600 79 LINE"
);
},
{
closed = 1;
nodes = (
"1954 506 LINE",
"1954 826 LINE",
"1126 826 LINE",
"1126 506 LINE"
);
},
{
closed = 1;
nodes = (
"531 -348 LINE",
"531 1252 LINE",
"177 1252 LINE",
"177 -348 LINE"
);
}
);
width = 2131;
},
{
layerId = "C5422B82-5DE8-4106-A997-45BC085AEC07";
paths = (
{
closed = 1;
nodes = (
"1954 -348 LINE",
"1954 -188 LINE",
"710 -188 LINE",
"710 -348 LINE"
);
},
{
closed = 1;
nodes = (
"1954 1092 LINE",
"1954 1252 LINE",
"710 1252 LINE",
"710 1092 LINE"
);
},
{
closed = 1;
nodes = (
"887 -348 LINE",
"887 1252 LINE",
"710 1252 LINE",
"710 -348 LINE"
);
},
{
closed = 1;
nodes = (
"1421 132 LINE",
"1421 773 LINE",
"1244 773 LINE",
"1244 132 LINE"
);
},
{
closed = 1;
nodes = (
"1954 132 LINE",
"1954 292 LINE",
"1244 292 LINE",
"1244 132 LINE"
);
},
{
closed = 1;
nodes = (
"1954 192 LINE",
"1954 712 LINE",
"1777 712 LINE",
"1777 192 LINE"
);
},
{
closed = 1;
nodes = (
"1954 612 LINE",
"1954 772 LINE",
"1244 773 LINE",
"1244 613 LINE"
);
},
{
closed = 1;
nodes = (
"354 -348 LINE",
"354 1252 LINE",
"177 1252 LINE",
"177 -348 LINE"
);
}
);
width = 2131;
}
);
},
{
glyphname = D.ss02;
lastChange = "2019-05-01 22:57:23 +0000";
layers = (
{
layerId = "B520048A-B5B0-4F8C-90F0-FFAF6C62D524";
paths = (
{
closed = 1;
nodes = (
"887 -348 LINE",
"887 1252 LINE",
"710 1252 LINE",
"710 -348 LINE"
);
},
{
closed = 1;
nodes = (
"1954 -348 LINE",
"1954 -188 LINE",
"845 -188 LINE",
"845 -348 LINE"
);
},
{
closed = 1;
nodes = (
"1954 1092 LINE",
"1954 1252 LINE",
"177 1252 LINE",
"177 1092 LINE"
);
},
{
closed = 1;
nodes = (
"1954 -288 LINE",
"1954 1132 LINE",
"1777 1132 LINE",
"1777 -288 LINE"
);
}
);
width = 2131;
},
{
background = {
paths = (
{
closed = 1;
nodes = (
"531 -348 LINE",
"531 826 LINE",
"177 826 LINE",
"177 -348 LINE"
);
},
{
closed = 1;
nodes = (
"1480 78 LINE",
"1480 826 LINE",
"1126 826 LINE",
"1126 78 LINE"
);
}
);
};
layerId = "21D66A2E-3203-408D-B482-78BB09110413";
paths = (
{
closed = 1;
nodes = (
"1006 -348 LINE",
"1006 1252 LINE",
"652 1252 LINE",
"652 -348 LINE"
);
},
{
closed = 1;
nodes = (
"1954 -348 LINE",
"1954 -28 LINE",
"845 -28 LINE",
"845 -348 LINE"
);
},
{
closed = 1;
nodes = (
"1954 932 LINE",
"1954 1252 LINE",
"177 1252 LINE",
"177 932 LINE"
);
},
{
closed = 1;
nodes = (
"1954 -288 LINE",
"1954 1132 LINE",
"1600 1132 LINE",
"1600 -288 LINE"
);
}
);
width = 2131;
},
{
background = {
paths = (
{
closed = 1;
nodes = (
"887 -348 LINE",
"887 1252 LINE",
"710 1252 LINE",
"710 -348 LINE"
);
},
{
closed = 1;
nodes = (
"1954 -348 LINE",
"1954 -188 LINE",
"845 -188 LINE",
"845 -348 LINE"
);
},
{
closed = 1;
nodes = (
"1954 1092 LINE",
"1954 1252 LINE",
"177 1252 LINE",
"177 1092 LINE"
);
},
{
closed = 1;
nodes = (
"354 -348 LINE",
"354 292 LINE",
"177 292 LINE",
"177 -348 LINE"
);
},
{
closed = 1;
nodes = (
"1954 -288 LINE",
"1954 1132 LINE",
"1777 1132 LINE",
"1777 -288 LINE"
);
},
{
closed = 1;
nodes = (
"1421 132 LINE",
"1421 773 LINE",
"1244 773 LINE",
"1244 132 LINE"
);
},
{
closed = 1;
nodes = (
"854 612 LINE",
"854 772 LINE",
"177 772 LINE",
"177 612 LINE"
);
}
);
};
layerId = "C5422B82-5DE8-4106-A997-45BC085AEC07";
paths = (
{
closed = 1;
nodes = (
"887 -348 LINE",
"887 1252 LINE",
"710 1252 LINE",
"710 -348 LINE"
);
},
{
closed = 1;
nodes = (
"1954 -348 LINE",
"1954 -188 LINE",
"845 -188 LINE",
"845 -348 LINE"
);
},
{
closed = 1;
nodes = (
"1954 1092 LINE",
"1954 1252 LINE",
"177 1252 LINE",
"177 1092 LINE"
);
},
{
closed = 1;
nodes = (
"1954 -288 LINE",
"1954 1132 LINE",
"1777 1132 LINE",
"1777 -288 LINE"
);
}
);
width = 2131;
}
);
},
{
glyphname = E.ss02;
lastChange = "2019-05-01 22:57:23 +0000";
layers = (
{
layerId = "B520048A-B5B0-4F8C-90F0-FFAF6C62D524";
paths = (
{
closed = 1;
nodes = (
"887 -348 LINE",
"887 1252 LINE",
"710 1252 LINE",
"710 -348 LINE"
);
},
{
closed = 1;
nodes = (
"1954 -348 LINE",
"1954 -188 LINE",
"845 -188 LINE",
"845 -348 LINE"
);
},
{
closed = 1;
nodes = (
"1954 612 LINE",
"1954 772 LINE",
"777 772 LINE",
"777 612 LINE"
);
},
{
closed = 1;
nodes = (
"354 -348 LINE",
"354 772 LINE",
"177 772 LINE",
"177 -348 LINE"
);
},
{
closed = 1;
nodes = (
"1954 132 LINE",
"1954 292 LINE",
"845 292 LINE",
"845 132 LINE"
);
},
{
closed = 1;
nodes = (
"1954 1092 LINE",
"1954 1252 LINE",
"177 1252 LINE",
"177 1092 LINE"
);
}
);
width = 2131;
},
{
layerId = "21D66A2E-3203-408D-B482-78BB09110413";
paths = (
{
closed = 1;
nodes = (
"1006 -348 LINE",
"1006 1206 LINE",
"652 1206 LINE",
"652 -348 LINE"
);
},
{
closed = 1;
nodes = (
"1954 -348 LINE",
"1954 -28 LINE",
"845 -28 LINE",
"845 -348 LINE"
);
},
{
closed = 1;
nodes = (
"1954 506 LINE",
"1954 826 LINE",
"777 826 LINE",
"777 506 LINE"
);
},
{
closed = 1;
nodes = (
"531 -348 LINE",
"531 826 LINE",
"177 826 LINE",
"177 -348 LINE"
);
},
{
closed = 1;
nodes = (
"1954 79 LINE",
"1954 399 LINE",
"845 399 LINE",
"845 79 LINE"
);
},
{
closed = 1;
nodes = (
"1954 932 LINE",
"1954 1252 LINE",
"177 1252 LINE",
"177 932 LINE"
);
}
);
width = 2131;
},
{
layerId = "C5422B82-5DE8-4106-A997-45BC085AEC07";
paths = (
{
closed = 1;
nodes = (
"887 -348 LINE",
"887 1152 LINE",
"710 1152 LINE",
"710 -348 LINE"
);
},
{
closed = 1;
nodes = (
"1954 -348 LINE",
"1954 -188 LINE",
"845 -188 LINE",
"845 -348 LINE"
);
},
{
closed = 1;
nodes = (
"1954 612 LINE",
"1954 772 LINE",
"177 772 LINE",
"177 612 LINE"
);
},
{
closed = 1;
nodes = (
"354 -348 LINE",
"354 292 LINE",
"177 292 LINE",
"177 -348 LINE"
);
},
{
closed = 1;
nodes = (
"1954 132 LINE",
"1954 292 LINE",
"845 292 LINE",
"845 132 LINE"
);
},
{
closed = 1;
nodes = (
"1954 1092 LINE",
"1954 1252 LINE",
"177 1252 LINE",
"177 1092 LINE"
);
}
);
width = 2131;
}
);
},
{
glyphname = F.ss02;
lastChange = "2019-05-01 22:57:23 +0000";
layers = (
{
background = {
paths = (
{
closed = 1;
nodes = (
"354 -348 LINE",
"354 772 LINE",
"177 772 LINE",
"177 -348 LINE"
);
},
{
closed = 1;
nodes = (
"1421 -348 LINE",
"1421 293 LINE",
"1244 293 LINE",
"1244 -348 LINE"
);
},
{
closed = 1;
nodes = (
"1954 -348 LINE",
"1954 292 LINE",
"1777 292 LINE",
"1777 -348 LINE"
);
}
);
};
layerId = "B520048A-B5B0-4F8C-90F0-FFAF6C62D524";
paths = (
{
closed = 1;
nodes = (
"887 -348 LINE",
"887 1252 LINE",
"710 1252 LINE",
"710 -348 LINE"
);
},
{
closed = 1;
nodes = (
"1954 1092 LINE",
"1954 1252 LINE",
"177 1252 LINE",
"177 1092 LINE"
);
},
{
closed = 1;
nodes = (
"1954 612 LINE",
"1954 772 LINE",
"785 772 LINE",
"785 612 LINE"
);
}
);
width = 2131;
},
{
background = {
paths = (
{
closed = 1;
nodes = (
"531 -348 LINE",
"531 826 LINE",
"177 826 LINE",
"177 -348 LINE"
);
},
{
closed = 1;
nodes = (
"1480 -348 LINE",
"1480 399 LINE",
"1126 399 LINE",
"1126 -348 LINE"
);
},
{
closed = 1;
nodes = (
"1954 -348 LINE",
"1954 399 LINE",
"1600 399 LINE",
"1600 -348 LINE"
);
}
);
};
layerId = "21D66A2E-3203-408D-B482-78BB09110413";
paths = (
{
closed = 1;
nodes = (
"1006 -348 LINE",
"1006 1206 LINE",
"652 1206 LINE",
"652 -348 LINE"
);
},
{
closed = 1;
nodes = (
"1954 932 LINE",
"1954 1252 LINE",
"177 1252 LINE",
"177 932 LINE"
);
},
{
closed = 1;
nodes = (
"1954 506 LINE",
"1954 826 LINE",
"777 826 LINE",
"777 506 LINE"
);
}
);
width = 2131;
},
{
background = {
paths = (
{
closed = 1;
nodes = (
"354 -348 LINE",
"354 772 LINE",
"177 772 LINE",
"177 -348 LINE"
);
},
{
closed = 1;
nodes = (
"1421 -348 LINE",
"1421 293 LINE",
"1244 293 LINE",
"1244 -348 LINE"
);
},
{
closed = 1;
nodes = (
"1954 -348 LINE",
"1954 292 LINE",
"1777 292 LINE",
"1777 -348 LINE"
);
}
);
};
layerId = "C5422B82-5DE8-4106-A997-45BC085AEC07";
paths = (
{
closed = 1;
nodes = (
"887 -348 LINE",
"887 1152 LINE",
"710 1152 LINE",
"710 -348 LINE"
);
},
{
closed = 1;
nodes = (
"1954 1092 LINE",
"1954 1252 LINE",
"177 1252 LINE",
"177 1092 LINE"
);
},
{
closed = 1;
nodes = (
"1954 612 LINE",
"1954 772 LINE",
"777 772 LINE",
"777 612 LINE"
);
}
);
width = 2131;
}
);
},
{
glyphname = G.ss02;
lastChange = "2019-05-01 22:57:23 +0000";
layers = (
{
layerId = "B520048A-B5B0-4F8C-90F0-FFAF6C62D524";
paths = (
{
closed = 1;
nodes = (
"1954 -348 LINE",
"1954 -188 LINE",
"278 -188 LINE",
"278 -348 LINE"
);
},
{
closed = 1;
nodes = (
"1954 1092 LINE",
"1954 1252 LINE",
"210 1252 LINE",
"210 1092 LINE"
);
},
{
closed = 1;
nodes = (
"921 132 LINE",
"921 773 LINE",
"744 773 LINE",
"744 132 LINE"
);
},
{
closed = 1;
nodes = (
"1454 132 LINE",
"1454 292 LINE",
"744 292 LINE",
"744 132 LINE"
);
},
{
closed = 1;
nodes = (
"1954 -228 LINE",
"1954 712 LINE",
"1777 712 LINE",
"1777 -228 LINE"
);
},
{
closed = 1;
nodes = (
"1954 612 LINE",
"1954 772 LINE",
"744 772 LINE",
"744 612 LINE"
);
},
{
closed = 1;
nodes = (
"354 -348 LINE",
"354 1252 LINE",
"177 1252 LINE",
"177 -348 LINE"
);
}
);
width = 2131;
},
{
layerId = "21D66A2E-3203-408D-B482-78BB09110413";
paths = (
{
closed = 1;
nodes = (
"1954 -348 LINE",
"1954 -28 LINE",
"278 -28 LINE",
"278 -348 LINE"
);
},
{
closed = 1;
nodes = (
"1954 932 LINE",
"1954 1252 LINE",
"210 1252 LINE",
"210 932 LINE"
);
},
{
closed = 1;
nodes = (
"1006 132 LINE",
"1006 773 LINE",
"652 773 LINE",
"652 132 LINE"
);
},
{
closed = 1;
nodes = (
"1480 79 LINE",
"1480 399 LINE",
"652 399 LINE",
"652 79 LINE"
);
},
{
closed = 1;
nodes = (
"1954 -228 LINE",
"1954 712 LINE",
"1600 712 LINE",
"1600 -228 LINE"
);
},
{
closed = 1;
nodes = (
"1954 506 LINE",
"1954 826 LINE",
"652 826 LINE",
"652 506 LINE"
);
},
{
closed = 1;
nodes = (
"531 -348 LINE",
"531 1252 LINE",
"177 1252 LINE",
"177 -348 LINE"
);
}
);
width = 2131;
},
{
layerId = "C5422B82-5DE8-4106-A997-45BC085AEC07";
paths = (
{
closed = 1;
nodes = (
"1954 -348 LINE",
"1954 -188 LINE",
"278 -188 LINE",
"278 -348 LINE"
);
},
{
closed = 1;
nodes = (
"1954 1092 LINE",
"1954 1252 LINE",
"210 1252 LINE",
"210 1092 LINE"
);
},
{
closed = 1;
nodes = (
"921 132 LINE",
"921 773 LINE",
"744 773 LINE",
"744 132 LINE"
);
},
{
closed = 1;
nodes = (
"1454 132 LINE",
"1454 292 LINE",
"744 292 LINE",
"744 132 LINE"
);
},
{
closed = 1;
nodes = (
"1954 -228 LINE",
"1954 712 LINE",
"1777 712 LINE",
"1777 -228 LINE"
);
},
{
closed = 1;
nodes = (
"1954 612 LINE",
"1954 772 LINE",
"744 772 LINE",
"744 612 LINE"
);
},
{
closed = 1;
nodes = (
"354 -348 LINE",
"354 1252 LINE",
"177 1252 LINE",
"177 -348 LINE"
);
}
);
width = 2131;
}
);
},
{
glyphname = H.ss02;
lastChange = "2019-05-01 22:57:23 +0000";
layers = (
{
background = {
paths = (
{
closed = 1;
nodes = (
"621 992 LINE",
"621 1152 LINE",
"177 1152 LINE",
"177 992 LINE"
);
},
{
closed = 1;
nodes = (
"786 -288 LINE",
"177 -288 LINE",
"177 -448 LINE",
"786 -448 LINE"
);
},
{
closed = 1;
nodes = (
"888 -448 LINE",
"888 1152 LINE",
"711 1152 LINE",
"711 -448 LINE"
);
},
{
closed = 1;
nodes = (
"1421 -448 LINE",
"1421 1152 LINE",
"1244 1152 LINE",
"1244 -448 LINE"
);
},
{
closed = 1;
nodes = (
"1154 512 LINE",
"1154 672 LINE",
"711 672 LINE",
"711 512 LINE"
);
},
{
closed = 1;
nodes = (
"1687 32 LINE",
"1687 192 LINE",
"1244 192 LINE",
"1244 32 LINE"
);
},
{
closed = 1;
nodes = (
"1954 -208 LINE",
"1954 -48 LINE",
"1511 -48 LINE",
"1511 -208 LINE"
);
},
{
closed = 1;
nodes = (
"1421 272 LINE",
"1421 432 LINE",
"977 432 LINE",
"977 272 LINE"
);
},
{
closed = 1;
nodes = (
"888 752 LINE",
"888 912 LINE",
"444 912 LINE",
"444 752 LINE"
);
},
{
closed = 1;
nodes = (
"1954 -448 LINE",
"1954 1152 LINE",
"1777 1152 LINE",
"1777 -448 LINE"
);
},
{
closed = 1;
nodes = (
"354 -448 LINE",
"354 1152 LINE",
"177 1152 LINE",
"177 -448 LINE"
);
},
{
closed = 1;
nodes = (
"1154 -448 LINE",
"1154 1152 LINE",
"978 1152 LINE",
"978 -448 LINE"
);
},
{
closed = 1;
nodes = (
"621 -448 LINE",
"621 1152 LINE",
"444 1152 LINE",
"444 -448 LINE"
);
},
{
closed = 1;
nodes = (
"1687 -448 LINE",
"1687 1152 LINE",
"1511 1152 LINE",
"1511 -448 LINE"
);
}
);
};
layerId = "B520048A-B5B0-4F8C-90F0-FFAF6C62D524";
paths = (
{
closed = 1;
nodes = (
"887 652 LINE",
"887 1252 LINE",
"710 1252 LINE",
"710 652 LINE"
);
},
{
closed = 1;
nodes = (
"1421 652 LINE",
"1421 1252 LINE",
"1244 1252 LINE",
"1244 652 LINE"
);
},
{
closed = 1;
nodes = (
"1954 -348 LINE",
"1954 -188 LINE",
"1345 -188 LINE",
"1345 -348 LINE"
);
},
{
closed = 1;
nodes = (
"854 1092 LINE",
"854 1252 LINE",
"177 1252 LINE",
"177 1092 LINE"
);
},
{
closed = 1;
nodes = (
"1954 1092 LINE",
"1954 1252 LINE",
"1277 1252 LINE",
"1277 1092 LINE"
);
},
{
closed = 1;
nodes = (
"786 -188 LINE",
"177 -188 LINE",
"177 -348 LINE",
"786 -348 LINE"
);
},
{
closed = 1;
nodes = (
"887 -348 LINE",
"887 252 LINE",
"710 252 LINE",
"710 -348 LINE"
);
},
{
closed = 1;
nodes = (
"1421 -348 LINE",
"1421 252 LINE",
"1244 252 LINE",
"1244 -348 LINE"
);
},
{
closed = 1;
nodes = (
"1954 612 LINE",
"1954 772 LINE",
"177 772 LINE",
"177 612 LINE"
);
},
{
closed = 1;
nodes = (
"1954 132 LINE",
"1954 292 LINE",
"177 292 LINE",
"177 132 LINE"
);
}
);
width = 2131;
},
{
layerId = "21D66A2E-3203-408D-B482-78BB09110413";
paths = (
{
closed = 1;
nodes = (
"1006 652 LINE",
"1006 1252 LINE",
"652 1252 LINE",
"652 652 LINE"
);
},
{
closed = 1;
nodes = (
"1480 652 LINE",
"1480 1252 LINE",
"1126 1252 LINE",
"1126 652 LINE"
);
},
{
closed = 1;
nodes = (
"1954 -348 LINE",
"1954 -28 LINE",
"1345 -28 LINE",
"1345 -348 LINE"
);
},
{
closed = 1;
nodes = (
"854 932 LINE",
"854 1252 LINE",
"177 1252 LINE",
"177 932 LINE"
);
},
{
closed = 1;
nodes = (
"1954 932 LINE",
"1954 1252 LINE",
"1277 1252 LINE",
"1277 932 LINE"
);
},
{
closed = 1;
nodes = (
"786 -28 LINE",
"177 -28 LINE",
"177 -348 LINE",
"786 -348 LINE"
);
},
{
closed = 1;
nodes = (
"1006 -348 LINE",
"1006 252 LINE",
"652 252 LINE",
"652 -348 LINE"
);
},
{
closed = 1;
nodes = (
"1480 -348 LINE",
"1480 252 LINE",
"1126 252 LINE",
"1126 -348 LINE"
);
},
{
closed = 1;
nodes = (
"1954 506 LINE",
"1954 826 LINE",
"177 826 LINE",
"177 506 LINE"
);
},
{
closed = 1;
nodes = (
"1954 79 LINE",
"1954 399 LINE",
"177 399 LINE",
"177 79 LINE"
);
}
);
width = 2131;
},
{
background = {
paths = (
{
closed = 1;
nodes = (
"621 992 LINE",
"621 1152 LINE",
"177 1152 LINE",
"177 992 LINE"
);
},
{
closed = 1;
nodes = (
"786 -288 LINE",
"177 -288 LINE",
"177 -448 LINE",
"786 -448 LINE"
);
},
{
closed = 1;
nodes = (
"888 -448 LINE",
"888 1152 LINE",
"711 1152 LINE",
"711 -448 LINE"
);
},
{
closed = 1;
nodes = (
"1421 -448 LINE",
"1421 1152 LINE",
"1244 1152 LINE",
"1244 -448 LINE"
);
},
{
closed = 1;
nodes = (
"1154 512 LINE",
"1154 672 LINE",
"711 672 LINE",
"711 512 LINE"
);
},
{
closed = 1;
nodes = (
"1687 32 LINE",
"1687 192 LINE",
"1244 192 LINE",
"1244 32 LINE"
);
},
{
closed = 1;
nodes = (
"1954 -208 LINE",
"1954 -48 LINE",
"1511 -48 LINE",
"1511 -208 LINE"
);
},
{
closed = 1;
nodes = (
"1421 272 LINE",
"1421 432 LINE",
"977 432 LINE",
"977 272 LINE"
);
},
{
closed = 1;
nodes = (
"888 752 LINE",
"888 912 LINE",
"444 912 LINE",
"444 752 LINE"
);
},
{
closed = 1;
nodes = (
"1954 -448 LINE",
"1954 1152 LINE",
"1777 1152 LINE",
"1777 -448 LINE"
);
},
{
closed = 1;
nodes = (
"354 -448 LINE",
"354 1152 LINE",
"177 1152 LINE",
"177 -448 LINE"
);
},
{
closed = 1;
nodes = (
"1154 -448 LINE",
"1154 1152 LINE",
"978 1152 LINE",
"978 -448 LINE"
);
},
{
closed = 1;
nodes = (
"621 -448 LINE",
"621 1152 LINE",
"444 1152 LINE",
"444 -448 LINE"
);
},
{
closed = 1;
nodes = (
"1687 -448 LINE",
"1687 1152 LINE",
"1511 1152 LINE",
"1511 -448 LINE"
);
}
);
};
layerId = "C5422B82-5DE8-4106-A997-45BC085AEC07";
paths = (
{
closed = 1;
nodes = (
"887 652 LINE",
"887 1252 LINE",
"710 1252 LINE",
"710 652 LINE"
);
},
{
closed = 1;
nodes = (
"1421 652 LINE",
"1421 1252 LINE",
"1244 1252 LINE",
"1244 652 LINE"
);
},
{
closed = 1;
nodes = (
"1954 -348 LINE",
"1954 -188 LINE",
"1345 -188 LINE",
"1345 -348 LINE"
);
},
{
closed = 1;
nodes = (
"854 1092 LINE",
"854 1252 LINE",
"177 1252 LINE",
"177 1092 LINE"
);
},
{
closed = 1;
nodes = (
"1954 1092 LINE",
"1954 1252 LINE",
"1277 1252 LINE",
"1277 1092 LINE"
);
},
{
closed = 1;
nodes = (
"786 -188 LINE",
"177 -188 LINE",
"177 -348 LINE",
"786 -348 LINE"
);
},
{
closed = 1;
nodes = (
"887 -348 LINE",
"887 252 LINE",
"710 252 LINE",
"710 -348 LINE"
);
},
{
closed = 1;
nodes = (
"1421 -348 LINE",
"1421 252 LINE",
"1244 252 LINE",
"1244 -348 LINE"
);
},
{
closed = 1;
nodes = (
"1954 612 LINE",
"1954 772 LINE",
"177 772 LINE",
"177 612 LINE"
);
},
{
closed = 1;
nodes = (
"1954 132 LINE",
"1954 292 LINE",
"177 292 LINE",
"177 132 LINE"
);
}
);
width = 2131;
}
);
},
{
glyphname = I.ss02;
lastChange = "2019-05-01 22:57:23 +0000";
layers = (
{
layerId = "B520048A-B5B0-4F8C-90F0-FFAF6C62D524";
paths = (
{
closed = 1;
nodes = (
"887 -348 LINE",
"887 1252 LINE",
"710 1252 LINE",
"710 -348 LINE"
);
},
{
closed = 1;
nodes = (
"1421 -348 LINE",
"1421 1252 LINE",
"1244 1252 LINE",
"1244 -348 LINE"
);
},
{
closed = 1;
nodes = (
"1954 -348 LINE",
"1954 -188 LINE",
"1345 -188 LINE",
"1345 -348 LINE"
);
},
{
closed = 1;
nodes = (
"854 1092 LINE",
"854 1252 LINE",
"177 1252 LINE",
"177 1092 LINE"
);
},
{
closed = 1;
nodes = (
"1954 1092 LINE",
"1954 1252 LINE",
"1277 1252 LINE",
"1277 1092 LINE"
);
},
{
closed = 1;
nodes = (
"1898 132 LINE",
"1898 772 LINE",
"1721 772 LINE",
"1721 132 LINE"
);
},
{
closed = 1;
nodes = (
"786 -188 LINE",
"177 -188 LINE",
"177 -348 LINE",
"786 -348 LINE"
);
},
{
closed = 1;
nodes = (
"410 772 LINE",
"233 772 LINE",
"233 132 LINE",
"410 132 LINE"
);
}
);
width = 2131;
},
{
layerId = "21D66A2E-3203-408D-B482-78BB09110413";
paths = (
{
closed = 1;
nodes = (
"1006 -348 LINE",
"1006 1252 LINE",
"652 1252 LINE",
"652 -348 LINE"
);
},
{
closed = 1;
nodes = (
"1480 -348 LINE",
"1480 1252 LINE",
"1126 1252 LINE",
"1126 -348 LINE"
);
},
{
closed = 1;
nodes = (
"1954 -348 LINE",
"1954 -28 LINE",
"1345 -28 LINE",
"1345 -348 LINE"
);
},
{
closed = 1;
nodes = (
"854 932 LINE",
"854 1252 LINE",
"177 1252 LINE",
"177 932 LINE"
);
},
{
closed = 1;
nodes = (
"1954 932 LINE",
"1954 1252 LINE",
"1277 1252 LINE",
"1277 932 LINE"
);
},
{
closed = 1;
nodes = (
"1954 79 LINE",
"1954 826 LINE",
"1600 826 LINE",
"1600 79 LINE"
);
},
{
closed = 1;
nodes = (
"786 -28 LINE",
"177 -28 LINE",
"177 -348 LINE",
"786 -348 LINE"
);
},
{
closed = 1;
nodes = (
"531 826 LINE",
"177 826 LINE",
"177 79 LINE",
"531 79 LINE"
);
}
);
width = 2131;
},
{
layerId = "C5422B82-5DE8-4106-A997-45BC085AEC07";
paths = (
{
closed = 1;
nodes = (
"887 -348 LINE",
"887 1252 LINE",
"710 1252 LINE",
"710 -348 LINE"
);
},
{
closed = 1;
nodes = (
"1421 -348 LINE",
"1421 1252 LINE",
"1244 1252 LINE",
"1244 -348 LINE"
);
},
{
closed = 1;
nodes = (
"1954 -348 LINE",
"1954 -188 LINE",
"1345 -188 LINE",
"1345 -348 LINE"
);
},
{
closed = 1;
nodes = (
"854 1092 LINE",
"854 1252 LINE",
"177 1252 LINE",
"177 1092 LINE"
);
},
{
closed = 1;
nodes = (
"1954 1092 LINE",
"1954 1252 LINE",
"1277 1252 LINE",
"1277 1092 LINE"
);
},
{
closed = 1;
nodes = (
"1898 132 LINE",
"1898 772 LINE",
"1721 772 LINE",
"1721 132 LINE"
);
},
{
closed = 1;
nodes = (
"786 -188 LINE",
"177 -188 LINE",
"177 -348 LINE",
"786 -348 LINE"
);
},
{
closed = 1;
nodes = (
"410 772 LINE",
"233 772 LINE",
"233 132 LINE",
"410 132 LINE"
);
}
);
width = 2131;
}
);
},
{
glyphname = J.ss02;
lastChange = "2019-05-01 22:57:23 +0000";
layers = (
{
layerId = "B520048A-B5B0-4F8C-90F0-FFAF6C62D524";
paths = (
{
closed = 1;
nodes = (
"1421 -188 LINE",
"177 -188 LINE",
"177 -348 LINE",
"1421 -348 LINE"
);
},
{
closed = 1;
nodes = (
"1921 1252 LINE",
"177 1252 LINE",
"177 1092 LINE",
"1921 1092 LINE"
);
},
{
closed = 1;
nodes = (
"887 773 LINE",
"710 773 LINE",
"710 132 LINE",
"887 132 LINE"
);
},
{
closed = 1;
nodes = (
"354 712 LINE",
"177 712 LINE",
"177 -228 LINE",
"354 -228 LINE"
);
},
{
closed = 1;
nodes = (
"866 772 LINE",
"177 772 LINE",
"177 612 LINE",
"866 612 LINE"
);
},
{
closed = 1;
nodes = (
"1954 772 LINE",
"1777 772 LINE",
"1777 -348 LINE",
"1954 -348 LINE"
);
},
{
closed = 1;
nodes = (
"1421 1212 LINE",
"1244 1212 LINE",
"1244 -228 LINE",
"1421 -228 LINE"
);
}
);
width = 2131;
},
{
layerId = "21D66A2E-3203-408D-B482-78BB09110413";
paths = (
{
closed = 1;
nodes = (
"1421 -28 LINE",
"177 -28 LINE",
"177 -348 LINE",
"1421 -348 LINE"
);
},
{
closed = 1;
nodes = (
"1954 1252 LINE",
"177 1252 LINE",
"177 932 LINE",
"1954 932 LINE"
);
},
{
closed = 1;
nodes = (
"1006 826 LINE",
"652 826 LINE",
"652 78 LINE",
"1006 78 LINE"
);
},
{
closed = 1;
nodes = (
"531 766 LINE",
"177 766 LINE",
"177 -228 LINE",
"531 -228 LINE"
);
},
{
closed = 1;
nodes = (
"866 826 LINE",
"177 826 LINE",
"177 506 LINE",
"866 506 LINE"
);
},
{
closed = 1;
nodes = (
"1954 826 LINE",
"1600 826 LINE",
"1600 -348 LINE",
"1954 -348 LINE"
);
},
{
closed = 1;
nodes = (
"1480 1212 LINE",
"1126 1212 LINE",
"1126 -348 LINE",
"1480 -348 LINE"
);
}
);
width = 2131;
},
{
background = {
paths = (
{
closed = 1;
nodes = (
"1421 -188 LINE",
"177 -188 LINE",
"177 -348 LINE",
"1421 -348 LINE"
);
},
{
closed = 1;
nodes = (
"1921 1252 LINE",
"177 1252 LINE",
"177 1092 LINE",
"1921 1092 LINE"
);
},
{
closed = 1;
nodes = (
"887 773 LINE",
"710 773 LINE",
"710 132 LINE",
"887 132 LINE"
);
},
{
closed = 1;
nodes = (
"354 712 LINE",
"177 712 LINE",
"177 -228 LINE",
"354 -228 LINE"
);
},
{
closed = 1;
nodes = (
"866 772 LINE",
"177 772 LINE",
"177 612 LINE",
"866 612 LINE"
);
},
{
closed = 1;
nodes = (
"1954 282 LINE",
"1777 282 LINE",
"1777 -348 LINE",
"1954 -348 LINE"
);
},
{
closed = 1;
nodes = (
"1954 612 LINE",
"1954 772 LINE",
"1345 772 LINE",
"1345 612 LINE"
);
},
{
closed = 1;
nodes = (
"1421 1212 LINE",
"1244 1212 LINE",
"1244 -228 LINE",
"1421 -228 LINE"
);
}
);
};
layerId = "C5422B82-5DE8-4106-A997-45BC085AEC07";
paths = (
{
closed = 1;
nodes = (
"1421 -188 LINE",
"177 -188 LINE",
"177 -348 LINE",
"1421 -348 LINE"
);
},
{
closed = 1;
nodes = (
"1921 1252 LINE",
"177 1252 LINE",
"177 1092 LINE",
"1921 1092 LINE"
);
},
{
closed = 1;
nodes = (
"887 773 LINE",
"710 773 LINE",
"710 132 LINE",
"887 132 LINE"
);
},
{
closed = 1;
nodes = (
"354 712 LINE",
"177 712 LINE",
"177 -228 LINE",
"354 -228 LINE"
);
},
{
closed = 1;
nodes = (
"866 772 LINE",
"177 772 LINE",
"177 612 LINE",
"866 612 LINE"
);
},
{
closed = 1;
nodes = (
"1954 772 LINE",
"1777 772 LINE",
"1777 -348 LINE",
"1954 -348 LINE"
);
},
{
closed = 1;
nodes = (
"1421 1212 LINE",
"1244 1212 LINE",
"1244 -228 LINE",
"1421 -228 LINE"
);
}
);
width = 2131;
}
);
},
{
glyphname = K.ss02;
lastChange = "2019-05-01 22:57:23 +0000";
layers = (
{
background = {
paths = (
{
closed = 1;
nodes = (
"444 700 LINE",
"111 700 LINE",
"111 600 LINE",
"444 600 LINE"
);
},
{
closed = 1;
nodes = (
"444 660 LINE",
"333 660 LINE",
"333 0 LINE",
"444 0 LINE"
);
},
{
closed = 1;
nodes = (
"222 300 LINE",
"111 300 LINE",
"111 0 LINE",
"222 0 LINE"
);
},
{
closed = 1;
nodes = (
"666 400 LINE",
"400 400 LINE",
"400 300 LINE",
"666 300 LINE"
);
},
{
closed = 1;
nodes = (
"366 500 LINE",
"111 500 LINE",
"111 400 LINE",
"366 400 LINE"
);
},
{
closed = 1;
nodes = (
"888 100 LINE",
"622 100 LINE",
"622 0 LINE",
"888 0 LINE"
);
},
{
closed = 1;
nodes = (
"777 20 LINE",
"888 20 LINE",
"888 500 LINE",
"777 500 LINE"
);
},
{
closed = 1;
nodes = (
"888 700 LINE",
"555 700 LINE",
"555 600 LINE",
"888 600 LINE"
);
},
{
closed = 1;
nodes = (
"666 0 LINE",
"666 700 LINE",
"555 700 LINE",
"555 0 LINE"
);
}
);
};
layerId = "B520048A-B5B0-4F8C-90F0-FFAF6C62D524";
paths = (
{
closed = 1;
nodes = (
"354 -348 LINE",
"354 1252 LINE",
"177 1252 LINE",
"177 -348 LINE"
);
},
{
closed = 1;
nodes = (
"1954 132 LINE",
"1954 292 LINE",
"244 293 LINE",
"244 133 LINE"
);
},
{
closed = 1;
nodes = (
"1954 -348 LINE",
"1954 232 LINE",
"1777 232 LINE",
"1777 -348 LINE"
);
},
{
closed = 1;
nodes = (
"1421 132 LINE",
"1421 1252 LINE",
"1244 1252 LINE",
"1244 132 LINE"
);
},
{
closed = 1;
nodes = (
"1954 1092 LINE",
"1954 1252 LINE",
"1277 1252 LINE",
"1277 1092 LINE"
);
},
{
closed = 1;
nodes = (
"1954 612 LINE",
"1954 1222 LINE",
"1777 1222 LINE",
"1777 612 LINE"
);
}
);
width = 2131;
},
{
layerId = "21D66A2E-3203-408D-B482-78BB09110413";
paths = (
{
closed = 1;
nodes = (
"531 -348 LINE",
"531 1252 LINE",
"177 1252 LINE",
"177 -348 LINE"
);
},
{
closed = 1;
nodes = (
"1954 79 LINE",
"1954 399 LINE",
"477 399 LINE",
"477 79 LINE"
);
},
{
closed = 1;
nodes = (
"1954 -348 LINE",
"1954 286 LINE",
"1600 286 LINE",
"1600 -348 LINE"
);
},
{
closed = 1;
nodes = (
"1480 252 LINE",
"1480 1252 LINE",
"1126 1252 LINE",
"1126 252 LINE"
);
},
{
closed = 1;
nodes = (
"1954 932 LINE",
"1954 1252 LINE",
"1277 1252 LINE",
"1277 932 LINE"
);
},
{
closed = 1;
nodes = (
"1954 506 LINE",
"1954 1140 LINE",
"1600 1140 LINE",
"1600 506 LINE"
);
}
);
width = 2131;
},
{
background = {
paths = (
{
closed = 1;
nodes = (
"444 700 LINE",
"111 700 LINE",
"111 600 LINE",
"444 600 LINE"
);
},
{
closed = 1;
nodes = (
"444 660 LINE",
"333 660 LINE",
"333 0 LINE",
"444 0 LINE"
);
},
{
closed = 1;
nodes = (
"222 300 LINE",
"111 300 LINE",
"111 0 LINE",
"222 0 LINE"
);
},
{
closed = 1;
nodes = (
"666 400 LINE",
"400 400 LINE",
"400 300 LINE",
"666 300 LINE"
);
},
{
closed = 1;
nodes = (
"366 500 LINE",
"111 500 LINE",
"111 400 LINE",
"366 400 LINE"
);
},
{
closed = 1;
nodes = (
"888 100 LINE",
"622 100 LINE",
"622 0 LINE",
"888 0 LINE"
);
},
{
closed = 1;
nodes = (
"777 20 LINE",
"888 20 LINE",
"888 500 LINE",
"777 500 LINE"
);
},
{
closed = 1;
nodes = (
"888 700 LINE",
"555 700 LINE",
"555 600 LINE",
"888 600 LINE"
);
},
{
closed = 1;
nodes = (
"666 0 LINE",
"666 700 LINE",
"555 700 LINE",
"555 0 LINE"
);
},
{
closed = 1;
nodes = (
"887 -348 LINE",
"887 1252 LINE",
"710 1252 LINE",
"710 -348 LINE"
);
},
{
closed = 1;
nodes = (
"1421 -348 LINE",
"1421 1252 LINE",
"1244 1252 LINE",
"1244 -348 LINE"
);
},
{
closed = 1;
nodes = (
"1954 -348 LINE",
"1954 -188 LINE",
"1345 -188 LINE",
"1345 -348 LINE"
);
},
{
closed = 1;
nodes = (
"854 1092 LINE",
"854 1252 LINE",
"177 1252 LINE",
"177 1092 LINE"
);
},
{
closed = 1;
nodes = (
"1354 612 LINE",
"1354 772 LINE",
"177 772 LINE",
"177 612 LINE"
);
},
{
closed = 1;
nodes = (
"354 -348 LINE",
"354 292 LINE",
"177 292 LINE",
"177 -348 LINE"
);
},
{
closed = 1;
nodes = (
"1954 1092 LINE",
"1954 1252 LINE",
"1277 1252 LINE",
"1277 1092 LINE"
);
},
{
closed = 1;
nodes = (
"1954 -288 LINE",
"1954 732 LINE",
"1777 732 LINE",
"1777 -288 LINE"
);
}
);
};
layerId = "C5422B82-5DE8-4106-A997-45BC085AEC07";
paths = (
{
closed = 1;
nodes = (
"354 -348 LINE",
"354 1252 LINE",
"177 1252 LINE",
"177 -348 LINE"
);
},
{
closed = 1;
nodes = (
"1954 132 LINE",
"1954 292 LINE",
"244 293 LINE",
"244 133 LINE"
);
},
{
closed = 1;
nodes = (
"1954 -348 LINE",
"1954 232 LINE",
"1777 232 LINE",
"1777 -348 LINE"
);
},
{
closed = 1;
nodes = (
"1421 132 LINE",
"1421 1252 LINE",
"1244 1252 LINE",
"1244 132 LINE"
);
},
{
closed = 1;
nodes = (
"1954 1092 LINE",
"1954 1252 LINE",
"1277 1252 LINE",
"1277 1092 LINE"
);
},
{
closed = 1;
nodes = (
"1954 612 LINE",
"1954 1222 LINE",
"1777 1222 LINE",
"1777 612 LINE"
);
}
);
width = 2131;
}
);
},
{
glyphname = L.ss02;
lastChange = "2019-05-01 22:57:23 +0000";
layers = (
{
layerId = "B520048A-B5B0-4F8C-90F0-FFAF6C62D524";
paths = (
{
closed = 1;
nodes = (
"887 -348 LINE",
"887 1252 LINE",
"710 1252 LINE",
"710 -348 LINE"
);
},
{
closed = 1;
nodes = (
"1421 -348 LINE",
"1421 252 LINE",
"1244 252 LINE",
"1244 -348 LINE"
);
},
{
closed = 1;
nodes = (
"1954 -348 LINE",
"1954 -188 LINE",
"845 -188 LINE",
"845 -348 LINE"
);
},
{
closed = 1;
nodes = (
"854 1092 LINE",
"854 1252 LINE",
"177 1252 LINE",
"177 1092 LINE"
);
},
{
closed = 1;
nodes = (
"354 -348 LINE",
"354 292 LINE",
"177 292 LINE",
"177 -348 LINE"
);
},
{
closed = 1;
nodes = (
"1954 -288 LINE",
"1954 232 LINE",
"1777 232 LINE",
"1777 -288 LINE"
);
},
{
closed = 1;
nodes = (
"1954 612 LINE",
"1954 772 LINE",
"1244 772 LINE",
"1244 612 LINE"
);
},
{
closed = 1;
nodes = (
"1954 1092 LINE",
"1954 1252 LINE",
"1244 1252 LINE",
"1244 1092 LINE"
);
}
);
width = 2131;
},
{
layerId = "21D66A2E-3203-408D-B482-78BB09110413";
paths = (
{
closed = 1;
nodes = (
"1006 -348 LINE",
"1006 1252 LINE",
"652 1252 LINE",
"652 -348 LINE"
);
},
{
closed = 1;
nodes = (
"1480 -348 LINE",
"1480 400 LINE",
"1126 400 LINE",
"1126 -348 LINE"
);
},
{
closed = 1;
nodes = (
"1954 -348 LINE",
"1954 -28 LINE",
"845 -28 LINE",
"845 -348 LINE"
);
},
{
closed = 1;
nodes = (
"854 932 LINE",
"854 1252 LINE",
"177 1252 LINE",
"177 932 LINE"
);
},
{
closed = 1;
nodes = (
"531 -348 LINE",
"531 826 LINE",
"177 826 LINE",
"177 -348 LINE"
);
},
{
closed = 1;
nodes = (
"1954 -288 LINE",
"1954 400 LINE",
"1600 400 LINE",
"1600 -288 LINE"
);
},
{
closed = 1;
nodes = (
"1954 506 LINE",
"1954 826 LINE",
"1126 826 LINE",
"1126 506 LINE"
);
},
{
closed = 1;
nodes = (
"1954 932 LINE",
"1954 1252 LINE",
"1126 1252 LINE",
"1126 932 LINE"
);
}
);
width = 2131;
},
{
layerId = "C5422B82-5DE8-4106-A997-45BC085AEC07";
paths = (
{
closed = 1;
nodes = (
"887 -348 LINE",
"887 1252 LINE",
"710 1252 LINE",
"710 -348 LINE"
);
},
{
closed = 1;
nodes = (
"1421 -348 LINE",
"1421 252 LINE",
"1244 252 LINE",
"1244 -348 LINE"
);
},
{
closed = 1;
nodes = (
"1954 -348 LINE",
"1954 -188 LINE",
"845 -188 LINE",
"845 -348 LINE"
);
},
{
closed = 1;
nodes = (
"854 1092 LINE",
"854 1252 LINE",
"177 1252 LINE",
"177 1092 LINE"
);
},
{
closed = 1;
nodes = (
"354 -348 LINE",
"354 292 LINE",
"177 292 LINE",
"177 -348 LINE"
);
},
{
closed = 1;
nodes = (
"1954 -288 LINE",
"1954 232 LINE",
"1777 232 LINE",
"1777 -288 LINE"
);
},
{
closed = 1;
nodes = (
"1954 612 LINE",
"1954 772 LINE",
"1244 772 LINE",
"1244 612 LINE"
);
},
{
closed = 1;
nodes = (
"1954 1092 LINE",
"1954 1252 LINE",
"1244 1252 LINE",
"1244 1092 LINE"
);
}
);
width = 2131;
}
);
},
{
glyphname = M.ss02;
lastChange = "2019-05-01 22:57:23 +0000";
layers = (
{
layerId = "B520048A-B5B0-4F8C-90F0-FFAF6C62D524";
paths = (
{
closed = 1;
nodes = (
"1421 -188 LINE",
"710 -188 LINE",
"710 -348 LINE",
"1421 -348 LINE"
);
},
{
closed = 1;
nodes = (
"887 1252 LINE",
"710 1252 LINE",
"710 -348 LINE",
"887 -348 LINE"
);
},
{
closed = 1;
nodes = (
"354 1251 LINE",
"177 1251 LINE",
"177 -348 LINE",
"354 -348 LINE"
);
},
{
closed = 1;
nodes = (
"887 1252 LINE",
"177 1251 LINE",
"177 1091 LINE",
"887 1092 LINE"
);
},
{
closed = 1;
nodes = (
"1954 1252 LINE",
"1777 1252 LINE",
"1777 -348 LINE",
"1954 -348 LINE"
);
},
{
closed = 1;
nodes = (
"1954 1092 LINE",
"1954 1252 LINE",
"1244 1252 LINE",
"1244 1092 LINE"
);
},
{
closed = 1;
nodes = (
"1421 1252 LINE",
"1244 1252 LINE",
"1244 -348 LINE",
"1421 -348 LINE"
);
}
);
width = 2131;
},
{
layerId = "21D66A2E-3203-408D-B482-78BB09110413";
paths = (
{
closed = 1;
nodes = (
"1480 -28 LINE",
"652 -28 LINE",
"652 -348 LINE",
"1480 -348 LINE"
);
},
{
closed = 1;
nodes = (
"1006 1252 LINE",
"652 1252 LINE",
"652 -348 LINE",
"1006 -348 LINE"
);
},
{
closed = 1;
nodes = (
"531 1251 LINE",
"177 1251 LINE",
"177 -348 LINE",
"531 -348 LINE"
);
},
{
closed = 1;
nodes = (
"1006 1252 LINE",
"177 1251 LINE",
"177 931 LINE",
"1006 932 LINE"
);
},
{
closed = 1;
nodes = (
"1954 1252 LINE",
"1600 1252 LINE",
"1600 -348 LINE",
"1954 -348 LINE"
);
},
{
closed = 1;
nodes = (
"1954 932 LINE",
"1954 1252 LINE",
"1126 1252 LINE",
"1126 932 LINE"
);
},
{
closed = 1;
nodes = (
"1480 1252 LINE",
"1126 1252 LINE",
"1126 -348 LINE",
"1480 -348 LINE"
);
}
);
width = 2131;
},
{
layerId = "C5422B82-5DE8-4106-A997-45BC085AEC07";
paths = (
{
closed = 1;
nodes = (
"1421 -188 LINE",
"710 -188 LINE",
"710 -348 LINE",
"1421 -348 LINE"
);
},
{
closed = 1;
nodes = (
"887 1252 LINE",
"710 1252 LINE",
"710 -348 LINE",
"887 -348 LINE"
);
},
{
closed = 1;
nodes = (
"354 1251 LINE",
"177 1251 LINE",
"177 -348 LINE",
"354 -348 LINE"
);
},
{
closed = 1;
nodes = (
"887 1252 LINE",
"177 1251 LINE",
"177 1091 LINE",
"887 1092 LINE"
);
},
{
closed = 1;
nodes = (
"1954 1252 LINE",
"1777 1252 LINE",
"1777 -348 LINE",
"1954 -348 LINE"
);
},
{
closed = 1;
nodes = (
"1954 1092 LINE",
"1954 1252 LINE",
"1244 1252 LINE",
"1244 1092 LINE"
);
},
{
closed = 1;
nodes = (
"1421 1252 LINE",
"1244 1252 LINE",
"1244 -348 LINE",
"1421 -348 LINE"
);
}
);
width = 2131;
}
);
},
{
glyphname = N.ss02;
lastChange = "2019-05-01 22:57:23 +0000";
layers = (
{
layerId = "B520048A-B5B0-4F8C-90F0-FFAF6C62D524";
paths = (
{
closed = 1;
nodes = (
"1954 -188 LINE",
"1243 -188 LINE",
"1243 -348 LINE",
"1954 -348 LINE"
);
},
{
closed = 1;
nodes = (
"1420 -348 LINE",
"1421 1252 LINE",
"1244 1252 LINE",
"1243 -348 LINE"
);
},
{
closed = 1;
nodes = (
"1954 -348 LINE",
"1954 1252 LINE",
"1777 1252 LINE",
"1777 -348 LINE"
);
},
{
closed = 1;
nodes = (
"354 -348 LINE",
"354 772 LINE",
"177 772 LINE",
"177 -348 LINE"
);
},
{
closed = 1;
nodes = (
"887 -348 LINE",
"887 1252 LINE",
"710 1252 LINE",
"710 -348 LINE"
);
},
{
closed = 1;
nodes = (
"1421 1092 LINE",
"1421 1252 LINE",
"177 1252 LINE",
"177 1092 LINE"
);
}
);
width = 2131;
},
{
layerId = "21D66A2E-3203-408D-B482-78BB09110413";
paths = (
{
closed = 1;
nodes = (
"1954 -28 LINE",
"1243 -28 LINE",
"1243 -348 LINE",
"1954 -348 LINE"
);
},
{
closed = 1;
nodes = (
"1480 -348 LINE",
"1480 1252 LINE",
"1126 1252 LINE",
"1126 -348 LINE"
);
},
{
closed = 1;
nodes = (
"1954 -348 LINE",
"1954 1252 LINE",
"1600 1252 LINE",
"1600 -348 LINE"
);
},
{
closed = 1;
nodes = (
"531 -348 LINE",
"531 826 LINE",
"177 826 LINE",
"177 -348 LINE"
);
},
{
closed = 1;
nodes = (
"1006 -348 LINE",
"1006 1252 LINE",
"652 1252 LINE",
"652 -348 LINE"
);
},
{
closed = 1;
nodes = (
"1399 932 LINE",
"1399 1252 LINE",
"177 1252 LINE",
"177 932 LINE"
);
}
);
width = 2131;
},
{
layerId = "C5422B82-5DE8-4106-A997-45BC085AEC07";
paths = (
{
closed = 1;
nodes = (
"1954 -188 LINE",
"1243 -188 LINE",
"1243 -348 LINE",
"1954 -348 LINE"
);
},
{
closed = 1;
nodes = (
"1420 -348 LINE",
"1421 1252 LINE",
"1244 1252 LINE",
"1243 -348 LINE"
);
},
{
closed = 1;
nodes = (
"1954 -348 LINE",
"1954 1252 LINE",
"1777 1252 LINE",
"1777 -348 LINE"
);
},
{
closed = 1;
nodes = (
"354 -348 LINE",
"354 772 LINE",
"177 772 LINE",
"177 -348 LINE"
);
},
{
closed = 1;
nodes = (
"887 -348 LINE",
"887 1252 LINE",
"710 1252 LINE",
"710 -348 LINE"
);
},
{
closed = 1;
nodes = (
"1421 1092 LINE",
"1421 1252 LINE",
"177 1252 LINE",
"177 1092 LINE"
);
}
);
width = 2131;
}
);
},
{
glyphname = O.ss02;
lastChange = "2019-05-01 22:57:23 +0000";
layers = (
{
layerId = "B520048A-B5B0-4F8C-90F0-FFAF6C62D524";
paths = (
{
closed = 1;
nodes = (
"1954 -348 LINE",
"1954 -188 LINE",
"177 -188 LINE",
"177 -348 LINE"
);
},
{
closed = 1;
nodes = (
"1954 1092 LINE",
"1954 1252 LINE",
"177 1252 LINE",
"177 1092 LINE"
);
},
{
closed = 1;
nodes = (
"354 -348 LINE",
"354 1252 LINE",
"177 1252 LINE",
"177 -348 LINE"
);
},
{
closed = 1;
nodes = (
"888 132 LINE",
"888 773 LINE",
"711 773 LINE",
"711 132 LINE"
);
},
{
closed = 1;
nodes = (
"1421 132 LINE",
"1421 292 LINE",
"711 292 LINE",
"711 132 LINE"
);
},
{
closed = 1;
nodes = (
"1421 132 LINE",
"1421 772 LINE",
"1244 772 LINE",
"1244 132 LINE"
);
},
{
closed = 1;
nodes = (
"1421 612 LINE",
"1421 772 LINE",
"711 772 LINE",
"711 612 LINE"
);
},
{
closed = 1;
nodes = (
"1954 -348 LINE",
"1954 1252 LINE",
"1777 1252 LINE",
"1777 -348 LINE"
);
}
);
width = 2131;
},
{
layerId = "21D66A2E-3203-408D-B482-78BB09110413";
paths = (
{
closed = 1;
nodes = (
"1954 -348 LINE",
"1954 -28 LINE",
"177 -28 LINE",
"177 -348 LINE"
);
},
{
closed = 1;
nodes = (
"1954 932 LINE",
"1954 1252 LINE",
"177 1252 LINE",
"177 932 LINE"
);
},
{
closed = 1;
nodes = (
"531 -348 LINE",
"531 1252 LINE",
"177 1252 LINE",
"177 -348 LINE"
);
},
{
closed = 1;
nodes = (
"1006 79 LINE",
"1006 826 LINE",
"652 826 LINE",
"652 79 LINE"
);
},
{
closed = 1;
nodes = (
"1421 79 LINE",
"1421 399 LINE",
"711 399 LINE",
"711 79 LINE"
);
},
{
closed = 1;
nodes = (
"1480 79 LINE",
"1480 826 LINE",
"1126 826 LINE",
"1126 79 LINE"
);
},
{
closed = 1;
nodes = (
"1421 506 LINE",
"1421 826 LINE",
"711 826 LINE",
"711 506 LINE"
);
},
{
closed = 1;
nodes = (
"1954 -348 LINE",
"1954 1252 LINE",
"1600 1252 LINE",
"1600 -348 LINE"
);
}
);
width = 2131;
},
{
layerId = "C5422B82-5DE8-4106-A997-45BC085AEC07";
paths = (
{
closed = 1;
nodes = (
"1954 -348 LINE",
"1954 -188 LINE",
"177 -188 LINE",
"177 -348 LINE"
);
},
{
closed = 1;
nodes = (
"1954 1092 LINE",
"1954 1252 LINE",
"177 1252 LINE",
"177 1092 LINE"
);
},
{
closed = 1;
nodes = (
"354 -348 LINE",
"354 1252 LINE",
"177 1252 LINE",
"177 -348 LINE"
);
},
{
closed = 1;
nodes = (
"888 132 LINE",
"888 773 LINE",
"711 773 LINE",
"711 132 LINE"
);
},
{
closed = 1;
nodes = (
"1421 132 LINE",
"1421 292 LINE",
"711 292 LINE",
"711 132 LINE"
);
},
{
closed = 1;
nodes = (
"1421 132 LINE",
"1421 772 LINE",
"1244 772 LINE",
"1244 132 LINE"
);
},
{
closed = 1;
nodes = (
"1421 612 LINE",
"1421 772 LINE",
"711 772 LINE",
"711 612 LINE"
);
},
{
closed = 1;
nodes = (
"1954 -348 LINE",
"1954 1252 LINE",
"1777 1252 LINE",
"1777 -348 LINE"
);
}
);
width = 2131;
}
);
},
{
glyphname = P.ss02;
lastChange = "2019-05-01 22:57:23 +0000";
layers = (
{
background = {
paths = (
{
closed = 1;
nodes = (
"111 600 LINE",
"826 600 LINE",
"826 700 LINE",
"111 700 LINE"
);
},
{
closed = 1;
nodes = (
"111 0 LINE",
"222 0 LINE",
"222 300 LINE",
"111 300 LINE"
);
},
{
closed = 1;
nodes = (
"777 400 LINE",
"888 400 LINE",
"888 700 LINE",
"777 700 LINE"
);
},
{
closed = 1;
nodes = (
"555 200 LINE",
"888 200 LINE",
"888 300 LINE",
"555 300 LINE"
);
},
{
closed = 1;
nodes = (
"555 0 LINE",
"888 0 LINE",
"888 100 LINE",
"555 100 LINE"
);
},
{
closed = 1;
nodes = (
"777 20 LINE",
"888 20 LINE",
"888 280 LINE",
"777 280 LINE"
);
},
{
closed = 1;
nodes = (
"555 20 LINE",
"666 20 LINE",
"666 280 LINE",
"555 280 LINE"
);
},
{
closed = 1;
nodes = (
"870 400 LINE",
"870 500 LINE",
"111 500 LINE",
"111 400 LINE"
);
},
{
closed = 1;
nodes = (
"444 0 LINE",
"444 680 LINE",
"333 680 LINE",
"333 0 LINE"
);
}
);
};
layerId = "B520048A-B5B0-4F8C-90F0-FFAF6C62D524";
paths = (
{
closed = 1;
nodes = (
"887 -348 LINE",
"887 1252 LINE",
"710 1252 LINE",
"710 -348 LINE"
);
},
{
closed = 1;
nodes = (
"1954 1092 LINE",
"1954 1252 LINE",
"177 1252 LINE",
"177 1092 LINE"
);
},
{
closed = 1;
nodes = (
"1954 202 LINE",
"1954 1222 LINE",
"1777 1222 LINE",
"1777 202 LINE"
);
},
{
closed = 1;
nodes = (
"1954 132 LINE",
"1954 292 LINE",
"844 293 LINE",
"844 133 LINE"
);
}
);
width = 2131;
},
{
background = {
paths = (
{
closed = 1;
nodes = (
"1954 -347 LINE",
"1954 -27 LINE",
"1126 -27 LINE",
"1126 -347 LINE"
);
},
{
closed = 1;
nodes = (
"531 -348 LINE",
"531 826 LINE",
"177 826 LINE",
"177 -348 LINE"
);
},
{
closed = 1;
nodes = (
"1480 506 LINE",
"1480 826 LINE",
"1126 826 LINE",
"1126 506 LINE"
);
}
);
};
layerId = "21D66A2E-3203-408D-B482-78BB09110413";
paths = (
{
closed = 1;
nodes = (
"1006 -348 LINE",
"1006 1252 LINE",
"652 1252 LINE",
"652 -348 LINE"
);
},
{
closed = 1;
nodes = (
"1954 932 LINE",
"1954 1252 LINE",
"177 1252 LINE",
"177 932 LINE"
);
},
{
closed = 1;
nodes = (
"1954 79 LINE",
"1954 1222 LINE",
"1600 1222 LINE",
"1600 79 LINE"
);
},
{
closed = 1;
nodes = (
"1954 79 LINE",
"1954 399 LINE",
"877 399 LINE",
"877 79 LINE"
);
}
);
width = 2131;
},
{
background = {
paths = (
{
closed = 1;
nodes = (
"111 600 LINE",
"826 600 LINE",
"826 700 LINE",
"111 700 LINE"
);
},
{
closed = 1;
nodes = (
"111 0 LINE",
"222 0 LINE",
"222 300 LINE",
"111 300 LINE"
);
},
{
closed = 1;
nodes = (
"777 400 LINE",
"888 400 LINE",
"888 700 LINE",
"777 700 LINE"
);
},
{
closed = 1;
nodes = (
"555 200 LINE",
"888 200 LINE",
"888 300 LINE",
"555 300 LINE"
);
},
{
closed = 1;
nodes = (
"555 0 LINE",
"888 0 LINE",
"888 100 LINE",
"555 100 LINE"
);
},
{
closed = 1;
nodes = (
"777 20 LINE",
"888 20 LINE",
"888 280 LINE",
"777 280 LINE"
);
},
{
closed = 1;
nodes = (
"555 20 LINE",
"666 20 LINE",
"666 280 LINE",
"555 280 LINE"
);
},
{
closed = 1;
nodes = (
"870 400 LINE",
"870 500 LINE",
"111 500 LINE",
"111 400 LINE"
);
},
{
closed = 1;
nodes = (
"444 0 LINE",
"444 680 LINE",
"333 680 LINE",
"333 0 LINE"
);
},
{
closed = 1;
nodes = (
"887 -348 LINE",
"887 1252 LINE",
"710 1252 LINE",
"710 -348 LINE"
);
},
{
closed = 1;
nodes = (
"1954 -348 LINE",
"1954 -188 LINE",
"1244 -187 LINE",
"1244 -347 LINE"
);
},
{
closed = 1;
nodes = (
"1954 1092 LINE",
"1954 1252 LINE",
"177 1252 LINE",
"177 1092 LINE"
);
},
{
closed = 1;
nodes = (
"354 -348 LINE",
"354 772 LINE",
"177 772 LINE",
"177 -348 LINE"
);
},
{
closed = 1;
nodes = (
"1954 202 LINE",
"1954 1222 LINE",
"1777 1222 LINE",
"1777 202 LINE"
);
},
{
closed = 1;
nodes = (
"1954 132 LINE",
"1954 292 LINE",
"844 293 LINE",
"844 133 LINE"
);
},
{
closed = 1;
nodes = (
"1600 612 LINE",
"1600 772 LINE",
"1064 772 LINE",
"1064 612 LINE"
);
}
);
};
layerId = "C5422B82-5DE8-4106-A997-45BC085AEC07";
paths = (
{
closed = 1;
nodes = (
"887 -348 LINE",
"887 1252 LINE",
"710 1252 LINE",
"710 -348 LINE"
);
},
{
closed = 1;
nodes = (
"1954 1092 LINE",
"1954 1252 LINE",
"177 1252 LINE",
"177 1092 LINE"
);
},
{
closed = 1;
nodes = (
"1954 202 LINE",
"1954 1222 LINE",
"1777 1222 LINE",
"1777 202 LINE"
);
},
{
closed = 1;
nodes = (
"1954 132 LINE",
"1954 292 LINE",
"844 293 LINE",
"844 133 LINE"
);
}
);
width = 2131;
}
);
},
{
glyphname = Thorn.ss02;
lastChange = "2019-05-01 22:57:23 +0000";
layers = (
{
layerId = "B520048A-B5B0-4F8C-90F0-FFAF6C62D524";
paths = (
{
closed = 1;
nodes = (
"887 -348 LINE",
"887 1252 LINE",
"710 1252 LINE",
"710 -348 LINE"
);
},
{
closed = 1;
nodes = (
"1954 -348 LINE",
"1954 -188 LINE",
"177 -188 LINE",
"177 -348 LINE"
);
},
{
closed = 1;
nodes = (
"1954 1092 LINE",
"1954 1252 LINE",
"177 1252 LINE",
"177 1092 LINE"
);
},
{
closed = 1;
nodes = (
"354 132 LINE",
"354 772 LINE",
"177 772 LINE",
"177 132 LINE"
);
},
{
closed = 1;
nodes = (
"1954 612 LINE",
"1954 772 LINE",
"777 772 LINE",
"777 612 LINE"
);
},
{
closed = 1;
nodes = (
"1954 132 LINE",
"1954 292 LINE",
"777 292 LINE",
"777 132 LINE"
);
},
{
closed = 1;
nodes = (
"1954 222 LINE",
"1954 742 LINE",
"1777 742 LINE",
"1777 222 LINE"
);
}
);
width = 2131;
},
{
layerId = "21D66A2E-3203-408D-B482-78BB09110413";
paths = (
{
closed = 1;
nodes = (
"1006 -348 LINE",
"1006 1252 LINE",
"652 1252 LINE",
"652 -348 LINE"
);
},
{
closed = 1;
nodes = (
"1954 -348 LINE",
"1954 -28 LINE",
"177 -28 LINE",
"177 -348 LINE"
);
},
{
closed = 1;
nodes = (
"1954 932 LINE",
"1954 1252 LINE",
"177 1252 LINE",
"177 932 LINE"
);
},
{
closed = 1;
nodes = (
"531 78 LINE",
"531 825 LINE",
"177 825 LINE",
"177 78 LINE"
);
},
{
closed = 1;
nodes = (
"1954 505 LINE",
"1954 825 LINE",
"777 825 LINE",
"777 505 LINE"
);
},
{
closed = 1;
nodes = (
"1954 78 LINE",
"1954 398 LINE",
"777 398 LINE",
"777 78 LINE"
);
},
{
closed = 1;
nodes = (
"1954 222 LINE",
"1954 742 LINE",
"1600 742 LINE",
"1600 222 LINE"
);
}
);
width = 2131;
},
{
layerId = "C5422B82-5DE8-4106-A997-45BC085AEC07";
paths = (
{
closed = 1;
nodes = (
"887 -348 LINE",
"887 1252 LINE",
"710 1252 LINE",
"710 -348 LINE"
);
},
{
closed = 1;
nodes = (
"1954 -348 LINE",
"1954 -188 LINE",
"177 -188 LINE",
"177 -348 LINE"
);
},
{
closed = 1;
nodes = (
"1954 1092 LINE",
"1954 1252 LINE",
"177 1252 LINE",
"177 1092 LINE"
);
},
{
closed = 1;
nodes = (
"354 132 LINE",
"354 772 LINE",
"177 772 LINE",
"177 132 LINE"
);
},
{
closed = 1;
nodes = (
"1954 612 LINE",
"1954 772 LINE",
"777 772 LINE",
"777 612 LINE"
);
},
{
closed = 1;
nodes = (
"1954 132 LINE",
"1954 292 LINE",
"777 292 LINE",
"777 132 LINE"
);
},
{
closed = 1;
nodes = (
"1954 222 LINE",
"1954 742 LINE",
"1777 742 LINE",
"1777 222 LINE"
);
}
);
width = 2131;
}
);
},
{
glyphname = Q.ss02;
lastChange = "2019-05-01 22:57:23 +0000";
layers = (
{
layerId = "B520048A-B5B0-4F8C-90F0-FFAF6C62D524";
paths = (
{
closed = 1;
nodes = (
"354 132 LINE",
"354 1252 LINE",
"177 1252 LINE",
"177 132 LINE"
);
},
{
closed = 1;
nodes = (
"1954 132 LINE",
"1954 292 LINE",
"177 292 LINE",
"177 132 LINE"
);
},
{
closed = 1;
nodes = (
"1954 1092 LINE",
"1954 1252 LINE",
"177 1252 LINE",
"177 1092 LINE"
);
},
{
closed = 1;
nodes = (
"1404 612 LINE",
"1404 772 LINE",
"727 772 LINE",
"727 612 LINE"
);
},
{
closed = 1;
nodes = (
"1954 192 LINE",
"1954 1132 LINE",
"1777 1132 LINE",
"1777 192 LINE"
);
},
{
closed = 1;
nodes = (
"1954 -348 LINE",
"1954 -188 LINE",
"177 -188 LINE",
"177 -348 LINE"
);
}
);
width = 2131;
},
{
layerId = "21D66A2E-3203-408D-B482-78BB09110413";
paths = (
{
closed = 1;
nodes = (
"531 132 LINE",
"531 1252 LINE",
"177 1252 LINE",
"177 132 LINE"
);
},
{
closed = 1;
nodes = (
"1954 78 LINE",
"1954 398 LINE",
"177 398 LINE",
"177 78 LINE"
);
},
{
closed = 1;
nodes = (
"1954 932 LINE",
"1954 1252 LINE",
"177 1252 LINE",
"177 932 LINE"
);
},
{
closed = 1;
nodes = (
"1480 505 LINE",
"1480 825 LINE",
"652 825 LINE",
"652 505 LINE"
);
},
{
closed = 1;
nodes = (
"1954 192 LINE",
"1954 1132 LINE",
"1600 1132 LINE",
"1600 192 LINE"
);
},
{
closed = 1;
nodes = (
"1954 -348 LINE",
"1954 -28 LINE",
"177 -28 LINE",
"177 -348 LINE"
);
}
);
width = 2131;
},
{
layerId = "C5422B82-5DE8-4106-A997-45BC085AEC07";
paths = (
{
closed = 1;
nodes = (
"354 132 LINE",
"354 1252 LINE",
"177 1252 LINE",
"177 132 LINE"
);
},
{
closed = 1;
nodes = (
"1954 132 LINE",
"1954 292 LINE",
"177 292 LINE",
"177 132 LINE"
);
},
{
closed = 1;
nodes = (
"1954 1092 LINE",
"1954 1252 LINE",
"177 1252 LINE",
"177 1092 LINE"
);
},
{
closed = 1;
nodes = (
"1404 612 LINE",
"1404 772 LINE",
"727 772 LINE",
"727 612 LINE"
);
},
{
closed = 1;
nodes = (
"1954 192 LINE",
"1954 1132 LINE",
"1777 1132 LINE",
"1777 192 LINE"
);
},
{
closed = 1;
nodes = (
"1954 -348 LINE",
"1954 -188 LINE",
"177 -188 LINE",
"177 -348 LINE"
);
}
);
width = 2131;
}
);
},
{
glyphname = R.ss02;
lastChange = "2019-05-01 22:57:23 +0000";
layers = (
{
layerId = "B520048A-B5B0-4F8C-90F0-FFAF6C62D524";
paths = (
{
closed = 1;
nodes = (
"887 -348 LINE",
"887 1252 LINE",
"710 1252 LINE",
"710 -348 LINE"
);
},
{
closed = 1;
nodes = (
"1421 -348 LINE",
"1421 693 LINE",
"1244 693 LINE",
"1244 -348 LINE"
);
},
{
closed = 1;
nodes = (
"1954 -348 LINE",
"1954 -188 LINE",
"1345 -188 LINE",
"1345 -348 LINE"
);
},
{
closed = 1;
nodes = (
"1954 1092 LINE",
"1954 1252 LINE",
"177 1252 LINE",
"177 1092 LINE"
);
},
{
closed = 1;
nodes = (
"1954 612 LINE",
"1954 772 LINE",
"755 772 LINE",
"755 612 LINE"
);
},
{
closed = 1;
nodes = (
"354 -348 LINE",
"354 772 LINE",
"177 772 LINE",
"177 -348 LINE"
);
},
{
closed = 1;
nodes = (
"1954 -288 LINE",
"1954 292 LINE",
"1777 292 LINE",
"1777 -288 LINE"
);
},
{
closed = 1;
nodes = (
"1954 702 LINE",
"1954 1222 LINE",
"1777 1222 LINE",
"1777 702 LINE"
);
}
);
width = 2131;
},
{
layerId = "21D66A2E-3203-408D-B482-78BB09110413";
paths = (
{
closed = 1;
nodes = (
"1006 -348 LINE",
"1006 1252 LINE",
"652 1252 LINE",
"652 -348 LINE"
);
},
{
closed = 1;
nodes = (
"1480 -348 LINE",
"1480 693 LINE",
"1126 693 LINE",
"1126 -348 LINE"
);
},
{
closed = 1;
nodes = (
"1954 -348 LINE",
"1954 -28 LINE",
"1345 -28 LINE",
"1345 -348 LINE"
);
},
{
closed = 1;
nodes = (
"1954 932 LINE",
"1954 1252 LINE",
"177 1252 LINE",
"177 932 LINE"
);
},
{
closed = 1;
nodes = (
"1954 506 LINE",
"1954 826 LINE",
"767 826 LINE",
"767 506 LINE"
);
},
{
closed = 1;
nodes = (
"531 -348 LINE",
"531 826 LINE",
"177 826 LINE",
"177 -348 LINE"
);
},
{
closed = 1;
nodes = (
"1954 -288 LINE",
"1954 400 LINE",
"1600 400 LINE",
"1600 -288 LINE"
);
},
{
closed = 1;
nodes = (
"1954 702 LINE",
"1954 1222 LINE",
"1600 1222 LINE",
"1600 702 LINE"
);
}
);
width = 2131;
},
{
layerId = "C5422B82-5DE8-4106-A997-45BC085AEC07";
paths = (
{
closed = 1;
nodes = (
"887 -348 LINE",
"887 1252 LINE",
"710 1252 LINE",
"710 -348 LINE"
);
},
{
closed = 1;
nodes = (
"1421 -348 LINE",
"1421 693 LINE",
"1244 693 LINE",
"1244 -348 LINE"
);
},
{
closed = 1;
nodes = (
"1954 -348 LINE",
"1954 -188 LINE",
"1345 -188 LINE",
"1345 -348 LINE"
);
},
{
closed = 1;
nodes = (
"1954 1092 LINE",
"1954 1252 LINE",
"177 1252 LINE",
"177 1092 LINE"
);
},
{
closed = 1;
nodes = (
"1954 612 LINE",
"1954 772 LINE",
"177 772 LINE",
"177 612 LINE"
);
},
{
closed = 1;
nodes = (
"354 -348 LINE",
"354 292 LINE",
"177 292 LINE",
"177 -348 LINE"
);
},
{
closed = 1;
nodes = (
"1954 -288 LINE",
"1954 292 LINE",
"1777 292 LINE",
"1777 -288 LINE"
);
},
{
closed = 1;
nodes = (
"1954 702 LINE",
"1954 1222 LINE",
"1777 1222 LINE",
"1777 702 LINE"
);
}
);
width = 2131;
}
);
},
{
glyphname = S.ss02;
lastChange = "2019-05-01 22:57:23 +0000";
layers = (
{
layerId = "B520048A-B5B0-4F8C-90F0-FFAF6C62D524";
paths = (
{
closed = 1;
nodes = (
"1954 -348 LINE",
"1954 -188 LINE",
"177 -188 LINE",
"177 -348 LINE"
);
},
{
closed = 1;
nodes = (
"1954 1092 LINE",
"1954 1252 LINE",
"177 1252 LINE",
"177 1092 LINE"
);
},
{
closed = 1;
nodes = (
"1954 612 LINE",
"1954 772 LINE",
"710 772 LINE",
"710 612 LINE"
);
},
{
closed = 1;
nodes = (
"354 132 LINE",
"354 1252 LINE",
"177 1252 LINE",
"177 132 LINE"
);
},
{
closed = 1;
nodes = (
"1421 132 LINE",
"1421 292 LINE",
"177 292 LINE",
"177 132 LINE"
);
},
{
closed = 1;
nodes = (
"1954 -348 LINE",
"1954 772 LINE",
"1777 772 LINE",
"1777 -348 LINE"
);
}
);
width = 2131;
},
{
layerId = "21D66A2E-3203-408D-B482-78BB09110413";
paths = (
{
closed = 1;
nodes = (
"1954 -348 LINE",
"1954 -28 LINE",
"177 -28 LINE",
"177 -348 LINE"
);
},
{
closed = 1;
nodes = (
"1954 932 LINE",
"1954 1252 LINE",
"177 1252 LINE",
"177 932 LINE"
);
},
{
closed = 1;
nodes = (
"1955 506 LINE",
"1955 826 LINE",
"651 826 LINE",
"651 506 LINE"
);
},
{
closed = 1;
nodes = (
"531 132 LINE",
"531 1252 LINE",
"177 1252 LINE",
"177 132 LINE"
);
},
{
closed = 1;
nodes = (
"1482 79 LINE",
"1482 399 LINE",
"177 399 LINE",
"177 79 LINE"
);
},
{
closed = 1;
nodes = (
"1954 -348 LINE",
"1954 772 LINE",
"1602 772 LINE",
"1602 -348 LINE"
);
}
);
width = 2131;
},
{
layerId = "C5422B82-5DE8-4106-A997-45BC085AEC07";
paths = (
{
closed = 1;
nodes = (
"1954 -348 LINE",
"1954 -188 LINE",
"177 -188 LINE",
"177 -348 LINE"
);
},
{
closed = 1;
nodes = (
"1954 1092 LINE",
"1954 1252 LINE",
"177 1252 LINE",
"177 1092 LINE"
);
},
{
closed = 1;
nodes = (
"1954 612 LINE",
"1954 772 LINE",
"710 772 LINE",
"710 612 LINE"
);
},
{
closed = 1;
nodes = (
"354 132 LINE",
"354 1252 LINE",
"177 1252 LINE",
"177 132 LINE"
);
},
{
closed = 1;
nodes = (
"1421 132 LINE",
"1421 292 LINE",
"177 292 LINE",
"177 132 LINE"
);
},
{
closed = 1;
nodes = (
"1954 -348 LINE",
"1954 772 LINE",
"1777 772 LINE",
"1777 -348 LINE"
);
}
);
width = 2131;
}
);
},
{
glyphname = T.ss02;
lastChange = "2019-05-01 22:57:23 +0000";
layers = (
{
layerId = "B520048A-B5B0-4F8C-90F0-FFAF6C62D524";
paths = (
{
closed = 1;
nodes = (
"887 -348 LINE",
"887 712 LINE",
"710 712 LINE",
"710 -348 LINE"
);
},
{
closed = 1;
nodes = (
"1421 -348 LINE",
"1421 712 LINE",
"1244 712 LINE",
"1244 -348 LINE"
);
},
{
closed = 1;
nodes = (
"1954 1092 LINE",
"1954 1252 LINE",
"177 1252 LINE",
"177 1092 LINE"
);
},
{
closed = 1;
nodes = (
"887 612 LINE",
"887 772 LINE",
"177 772 LINE",
"177 612 LINE"
);
},
{
closed = 1;
nodes = (
"1954 612 LINE",
"1954 772 LINE",
"1244 772 LINE",
"1244 612 LINE"
);
}
);
width = 2131;
},
{
layerId = "21D66A2E-3203-408D-B482-78BB09110413";
paths = (
{
closed = 1;
nodes = (
"1006 -348 LINE",
"1006 712 LINE",
"652 712 LINE",
"652 -348 LINE"
);
},
{
closed = 1;
nodes = (
"1480 -348 LINE",
"1480 712 LINE",
"1126 712 LINE",
"1126 -348 LINE"
);
},
{
closed = 1;
nodes = (
"1954 932 LINE",
"1954 1252 LINE",
"177 1252 LINE",
"177 932 LINE"
);
},
{
closed = 1;
nodes = (
"1006 506 LINE",
"1006 826 LINE",
"177 826 LINE",
"177 506 LINE"
);
},
{
closed = 1;
nodes = (
"1955 506 LINE",
"1955 826 LINE",
"1126 826 LINE",
"1126 506 LINE"
);
}
);
width = 2131;
},
{
background = {
paths = (
{
closed = 1;
nodes = (
"887 -348 LINE",
"887 712 LINE",
"710 712 LINE",
"710 -348 LINE"
);
},
{
closed = 1;
nodes = (
"1421 -348 LINE",
"1421 712 LINE",
"1244 712 LINE",
"1244 -348 LINE"
);
},
{
closed = 1;
nodes = (
"1954 -348 LINE",
"1954 -188 LINE",
"177 -188 LINE",
"177 -348 LINE"
);
},
{
closed = 1;
nodes = (
"1954 1092 LINE",
"1954 1252 LINE",
"177 1252 LINE",
"177 1092 LINE"
);
},
{
closed = 1;
nodes = (
"1954 132 LINE",
"1954 712 LINE",
"1777 712 LINE",
"1777 132 LINE"
);
},
{
closed = 1;
nodes = (
"354 712 LINE",
"177 712 LINE",
"177 132 LINE",
"354 132 LINE"
);
},
{
closed = 1;
nodes = (
"1954 612 LINE",
"1954 772 LINE",
"177 772 LINE",
"177 612 LINE"
);
}
);
};
layerId = "C5422B82-5DE8-4106-A997-45BC085AEC07";
paths = (
{
closed = 1;
nodes = (
"887 -348 LINE",
"887 712 LINE",
"710 712 LINE",
"710 -348 LINE"
);
},
{
closed = 1;
nodes = (
"1421 -348 LINE",
"1421 712 LINE",
"1244 712 LINE",
"1244 -348 LINE"
);
},
{
closed = 1;
nodes = (
"1954 1092 LINE",
"1954 1252 LINE",
"177 1252 LINE",
"177 1092 LINE"
);
},
{
closed = 1;
nodes = (
"887 612 LINE",
"887 772 LINE",
"177 772 LINE",
"177 612 LINE"
);
},
{
closed = 1;
nodes = (
"1954 612 LINE",
"1954 772 LINE",
"1244 772 LINE",
"1244 612 LINE"
);
}
);
width = 2131;
}
);
},
{
glyphname = U.ss02;
lastChange = "2019-05-01 22:57:23 +0000";
layers = (
{
layerId = "B520048A-B5B0-4F8C-90F0-FFAF6C62D524";
paths = (
{
closed = 1;
nodes = (
"887 -348 LINE",
"887 1252 LINE",
"710 1252 LINE",
"710 -348 LINE"
);
},
{
closed = 1;
nodes = (
"1421 132 LINE",
"1421 1252 LINE",
"1244 1252 LINE",
"1244 132 LINE"
);
},
{
closed = 1;
nodes = (
"1885 -348 LINE",
"1885 -188 LINE",
"745 -188 LINE",
"745 -348 LINE"
);
},
{
closed = 1;
nodes = (
"854 1092 LINE",
"854 1252 LINE",
"177 1252 LINE",
"177 1092 LINE"
);
},
{
closed = 1;
nodes = (
"354 -348 LINE",
"354 772 LINE",
"177 772 LINE",
"177 -348 LINE"
);
},
{
closed = 1;
nodes = (
"1954 -348 LINE",
"1954 1252 LINE",
"1777 1252 LINE",
"1777 -348 LINE"
);
}
);
width = 2131;
},
{
layerId = "21D66A2E-3203-408D-B482-78BB09110413";
paths = (
{
closed = 1;
nodes = (
"1006 -348 LINE",
"1006 1252 LINE",
"652 1252 LINE",
"652 -348 LINE"
);
},
{
closed = 1;
nodes = (
"1480 78 LINE",
"1480 1252 LINE",
"1126 1252 LINE",
"1126 78 LINE"
);
},
{
closed = 1;
nodes = (
"1815 -348 LINE",
"1815 -28 LINE",
"745 -28 LINE",
"745 -348 LINE"
);
},
{
closed = 1;
nodes = (
"854 932 LINE",
"854 1252 LINE",
"177 1252 LINE",
"177 932 LINE"
);
},
{
closed = 1;
nodes = (
"531 -348 LINE",
"531 826 LINE",
"177 826 LINE",
"177 -348 LINE"
);
},
{
closed = 1;
nodes = (
"1954 -348 LINE",
"1954 1252 LINE",
"1600 1252 LINE",
"1600 -348 LINE"
);
}
);
width = 2131;
},
{
layerId = "C5422B82-5DE8-4106-A997-45BC085AEC07";
paths = (
{
closed = 1;
nodes = (
"887 -348 LINE",
"887 1252 LINE",
"710 1252 LINE",
"710 -348 LINE"
);
},
{
closed = 1;
nodes = (
"1421 132 LINE",
"1421 1252 LINE",
"1244 1252 LINE",
"1244 132 LINE"
);
},
{
closed = 1;
nodes = (
"1885 -348 LINE",
"1885 -188 LINE",
"745 -188 LINE",
"745 -348 LINE"
);
},
{
closed = 1;
nodes = (
"854 1092 LINE",
"854 1252 LINE",
"177 1252 LINE",
"177 1092 LINE"
);
},
{
closed = 1;
nodes = (
"354 -348 LINE",
"354 772 LINE",
"177 772 LINE",
"177 -348 LINE"
);
},
{
closed = 1;
nodes = (
"1954 -348 LINE",
"1954 1252 LINE",
"1777 1252 LINE",
"1777 -348 LINE"
);
}
);
width = 2131;
}
);
},
{
glyphname = V.ss02;
lastChange = "2019-05-01 22:57:23 +0000";
layers = (
{
layerId = "B520048A-B5B0-4F8C-90F0-FFAF6C62D524";
paths = (
{
closed = 1;
nodes = (
"887 -348 LINE",
"887 1252 LINE",
"710 1252 LINE",
"710 -348 LINE"
);
},
{
closed = 1;
nodes = (
"1421 -348 LINE",
"1421 1252 LINE",
"1244 1252 LINE",
"1244 -348 LINE"
);
},
{
closed = 1;
nodes = (
"854 1092 LINE",
"854 1252 LINE",
"177 1252 LINE",
"177 1092 LINE"
);
},
{
closed = 1;
nodes = (
"1954 1092 LINE",
"1954 1252 LINE",
"1277 1252 LINE",
"1277 1092 LINE"
);
},
{
closed = 1;
nodes = (
"1898 -348 LINE",
"1898 772 LINE",
"1721 772 LINE",
"1721 -348 LINE"
);
},
{
closed = 1;
nodes = (
"410 772 LINE",
"233 772 LINE",
"233 -348 LINE",
"410 -348 LINE"
);
},
{
closed = 1;
nodes = (
"1345 -348 LINE",
"1345 -188 LINE",
"786 -188 LINE",
"786 -348 LINE"
);
}
);
width = 2131;
},
{
layerId = "21D66A2E-3203-408D-B482-78BB09110413";
paths = (
{
closed = 1;
nodes = (
"1006 -348 LINE",
"1006 1252 LINE",
"652 1252 LINE",
"652 -348 LINE"
);
},
{
closed = 1;
nodes = (
"1480 -348 LINE",
"1480 1252 LINE",
"1126 1252 LINE",
"1126 -348 LINE"
);
},
{
closed = 1;
nodes = (
"854 932 LINE",
"854 1252 LINE",
"177 1252 LINE",
"177 932 LINE"
);
},
{
closed = 1;
nodes = (
"1954 932 LINE",
"1954 1252 LINE",
"1277 1252 LINE",
"1277 932 LINE"
);
},
{
closed = 1;
nodes = (
"1954 -348 LINE",
"1954 826 LINE",
"1600 826 LINE",
"1600 -348 LINE"
);
},
{
closed = 1;
nodes = (
"531 826 LINE",
"177 826 LINE",
"177 -348 LINE",
"531 -348 LINE"
);
},
{
closed = 1;
nodes = (
"1343 -348 LINE",
"1343 -28 LINE",
"788 -28 LINE",
"788 -348 LINE"
);
}
);
width = 2131;
},
{
layerId = "C5422B82-5DE8-4106-A997-45BC085AEC07";
paths = (
{
closed = 1;
nodes = (
"887 -348 LINE",
"887 1252 LINE",
"710 1252 LINE",
"710 -348 LINE"
);
},
{
closed = 1;
nodes = (
"1421 -348 LINE",
"1421 1252 LINE",
"1244 1252 LINE",
"1244 -348 LINE"
);
},
{
closed = 1;
nodes = (
"854 1092 LINE",
"854 1252 LINE",
"177 1252 LINE",
"177 1092 LINE"
);
},
{
closed = 1;
nodes = (
"1954 1092 LINE",
"1954 1252 LINE",
"1277 1252 LINE",
"1277 1092 LINE"
);
},
{
closed = 1;
nodes = (
"1898 132 LINE",
"1898 772 LINE",
"1721 772 LINE",
"1721 132 LINE"
);
},
{
closed = 1;
nodes = (
"410 772 LINE",
"233 772 LINE",
"233 132 LINE",
"410 132 LINE"
);
},
{
closed = 1;
nodes = (
"1954 -348 LINE",
"1954 -188 LINE",
"177 -188 LINE",
"177 -348 LINE"
);
}
);
width = 2131;
}
);
},
{
glyphname = W.ss02;
lastChange = "2019-05-01 22:57:23 +0000";
layers = (
{
layerId = "B520048A-B5B0-4F8C-90F0-FFAF6C62D524";
paths = (
{
closed = 1;
nodes = (
"710 772 LINE",
"710 612 LINE",
"1421 612 LINE",
"1421 772 LINE"
);
},
{
closed = 1;
nodes = (
"710 1252 LINE",
"710 -348 LINE",
"887 -348 LINE",
"887 1252 LINE"
);
},
{
closed = 1;
nodes = (
"177 1252 LINE",
"177 -347 LINE",
"354 -347 LINE",
"354 1252 LINE"
);
},
{
closed = 1;
nodes = (
"177 -187 LINE",
"177 -347 LINE",
"866 -347 LINE",
"866 -187 LINE"
);
},
{
closed = 1;
nodes = (
"1777 1252 LINE",
"1777 -348 LINE",
"1954 -348 LINE",
"1954 1252 LINE"
);
},
{
closed = 1;
nodes = (
"1345 -348 LINE",
"1954 -348 LINE",
"1954 -188 LINE",
"1345 -188 LINE"
);
},
{
closed = 1;
nodes = (
"1244 1252 LINE",
"1244 -348 LINE",
"1421 -348 LINE",
"1421 1252 LINE"
);
}
);
width = 2131;
},
{
layerId = "21D66A2E-3203-408D-B482-78BB09110413";
paths = (
{
closed = 1;
nodes = (
"710 826 LINE",
"710 506 LINE",
"1421 506 LINE",
"1421 826 LINE"
);
},
{
closed = 1;
nodes = (
"652 1252 LINE",
"652 -348 LINE",
"1006 -348 LINE",
"1006 1252 LINE"
);
},
{
closed = 1;
nodes = (
"177 1252 LINE",
"177 -347 LINE",
"531 -347 LINE",
"531 1252 LINE"
);
},
{
closed = 1;
nodes = (
"177 -27 LINE",
"177 -347 LINE",
"866 -347 LINE",
"866 -27 LINE"
);
},
{
closed = 1;
nodes = (
"1600 1252 LINE",
"1600 -348 LINE",
"1954 -348 LINE",
"1954 1252 LINE"
);
},
{
closed = 1;
nodes = (
"1345 -348 LINE",
"1954 -348 LINE",
"1954 -28 LINE",
"1345 -28 LINE"
);
},
{
closed = 1;
nodes = (
"1126 1252 LINE",
"1126 -348 LINE",
"1480 -348 LINE",
"1480 1252 LINE"
);
}
);
width = 2131;
},
{
layerId = "C5422B82-5DE8-4106-A997-45BC085AEC07";
paths = (
{
closed = 1;
nodes = (
"710 772 LINE",
"710 612 LINE",
"1421 612 LINE",
"1421 772 LINE"
);
},
{
closed = 1;
nodes = (
"710 1252 LINE",
"710 -348 LINE",
"887 -348 LINE",
"887 1252 LINE"
);
},
{
closed = 1;
nodes = (
"177 1252 LINE",
"177 -347 LINE",
"354 -347 LINE",
"354 1252 LINE"
);
},
{
closed = 1;
nodes = (
"177 -187 LINE",
"177 -347 LINE",
"866 -347 LINE",
"866 -187 LINE"
);
},
{
closed = 1;
nodes = (
"1777 1252 LINE",
"1777 -348 LINE",
"1954 -348 LINE",
"1954 1252 LINE"
);
},
{
closed = 1;
nodes = (
"1345 -348 LINE",
"1954 -348 LINE",
"1954 -188 LINE",
"1345 -188 LINE"
);
},
{
closed = 1;
nodes = (
"1244 1252 LINE",
"1244 -348 LINE",
"1421 -348 LINE",
"1421 1252 LINE"
);
}
);
width = 2131;
}
);
},
{
glyphname = X.ss02;
lastChange = "2019-05-01 22:57:23 +0000";
layers = (
{
layerId = "B520048A-B5B0-4F8C-90F0-FFAF6C62D524";
paths = (
{
closed = 1;
nodes = (
"887 -348 LINE",
"887 1252 LINE",
"710 1252 LINE",
"710 -348 LINE"
);
},
{
closed = 1;
nodes = (
"1421 -348 LINE",
"1421 1252 LINE",
"1244 1252 LINE",
"1244 -348 LINE"
);
},
{
closed = 1;
nodes = (
"1954 -348 LINE",
"1954 -188 LINE",
"1345 -188 LINE",
"1345 -348 LINE"
);
},
{
closed = 1;
nodes = (
"854 1092 LINE",
"854 1252 LINE",
"177 1252 LINE",
"177 1092 LINE"
);
},
{
closed = 1;
nodes = (
"867 -348 LINE",
"867 -188 LINE",
"190 -188 LINE",
"190 -348 LINE"
);
},
{
closed = 1;
nodes = (
"1954 372 LINE",
"1954 532 LINE",
"177 532 LINE",
"177 372 LINE"
);
},
{
closed = 1;
nodes = (
"354 -348 LINE",
"354 192 LINE",
"177 192 LINE",
"177 -348 LINE"
);
},
{
closed = 1;
nodes = (
"1954 1092 LINE",
"1954 1252 LINE",
"1277 1252 LINE",
"1277 1092 LINE"
);
},
{
closed = 1;
nodes = (
"1954 -288 LINE",
"1954 192 LINE",
"1777 192 LINE",
"1777 -288 LINE"
);
},
{
closed = 1;
nodes = (
"1954 712 LINE",
"1954 1192 LINE",
"1777 1192 LINE",
"1777 712 LINE"
);
},
{
closed = 1;
nodes = (
"354 712 LINE",
"354 1152 LINE",
"177 1152 LINE",
"177 712 LINE"
);
}
);
width = 2131;
},
{
layerId = "21D66A2E-3203-408D-B482-78BB09110413";
paths = (
{
closed = 1;
nodes = (
"1006 -348 LINE",
"1006 1252 LINE",
"652 1252 LINE",
"652 -348 LINE"
);
},
{
closed = 1;
nodes = (
"1480 -348 LINE",
"1480 1252 LINE",
"1126 1252 LINE",
"1126 -348 LINE"
);
},
{
closed = 1;
nodes = (
"1954 -348 LINE",
"1954 -28 LINE",
"1345 -28 LINE",
"1345 -348 LINE"
);
},
{
closed = 1;
nodes = (
"854 932 LINE",
"854 1252 LINE",
"177 1252 LINE",
"177 932 LINE"
);
},
{
closed = 1;
nodes = (
"867 -348 LINE",
"867 -28 LINE",
"190 -28 LINE",
"190 -348 LINE"
);
},
{
closed = 1;
nodes = (
"1954 292 LINE",
"1954 612 LINE",
"177 612 LINE",
"177 292 LINE"
);
},
{
closed = 1;
nodes = (
"531 -348 LINE",
"531 186 LINE",
"177 186 LINE",
"177 -348 LINE"
);
},
{
closed = 1;
nodes = (
"1954 932 LINE",
"1954 1252 LINE",
"1277 1252 LINE",
"1277 932 LINE"
);
},
{
closed = 1;
nodes = (
"1954 -288 LINE",
"1954 186 LINE",
"1600 186 LINE",
"1600 -288 LINE"
);
},
{
closed = 1;
nodes = (
"1954 718 LINE",
"1954 1192 LINE",
"1600 1192 LINE",
"1600 718 LINE"
);
},
{
closed = 1;
nodes = (
"531 718 LINE",
"531 1152 LINE",
"177 1152 LINE",
"177 718 LINE"
);
}
);
width = 2131;
},
{
layerId = "C5422B82-5DE8-4106-A997-45BC085AEC07";
paths = (
{
closed = 1;
nodes = (
"887 -348 LINE",
"887 1252 LINE",
"710 1252 LINE",
"710 -348 LINE"
);
},
{
closed = 1;
nodes = (
"1421 -348 LINE",
"1421 1252 LINE",
"1244 1252 LINE",
"1244 -348 LINE"
);
},
{
closed = 1;
nodes = (
"1954 -348 LINE",
"1954 -188 LINE",
"1345 -188 LINE",
"1345 -348 LINE"
);
},
{
closed = 1;
nodes = (
"854 1092 LINE",
"854 1252 LINE",
"177 1252 LINE",
"177 1092 LINE"
);
},
{
closed = 1;
nodes = (
"867 -348 LINE",
"867 -188 LINE",
"190 -188 LINE",
"190 -348 LINE"
);
},
{
closed = 1;
nodes = (
"1954 372 LINE",
"1954 532 LINE",
"177 532 LINE",
"177 372 LINE"
);
},
{
closed = 1;
nodes = (
"354 -348 LINE",
"354 192 LINE",
"177 192 LINE",
"177 -348 LINE"
);
},
{
closed = 1;
nodes = (
"1954 1092 LINE",
"1954 1252 LINE",
"1277 1252 LINE",
"1277 1092 LINE"
);
},
{
closed = 1;
nodes = (
"1954 -288 LINE",
"1954 192 LINE",
"1777 192 LINE",
"1777 -288 LINE"
);
},
{
closed = 1;
nodes = (
"1954 712 LINE",
"1954 1192 LINE",
"1777 1192 LINE",
"1777 712 LINE"
);
},
{
closed = 1;
nodes = (
"354 712 LINE",
"354 1152 LINE",
"177 1152 LINE",
"177 712 LINE"
);
}
);
width = 2131;
}
);
},
{
glyphname = Y.ss02;
lastChange = "2019-05-01 22:57:23 +0000";
layers = (
{
layerId = "B520048A-B5B0-4F8C-90F0-FFAF6C62D524";
paths = (
{
closed = 1;
nodes = (
"887 -348 LINE",
"887 292 LINE",
"710 292 LINE",
"710 -348 LINE"
);
},
{
closed = 1;
nodes = (
"1421 -348 LINE",
"1421 292 LINE",
"1244 292 LINE",
"1244 -348 LINE"
);
},
{
closed = 1;
nodes = (
"1954 -348 LINE",
"1954 -188 LINE",
"177 -188 LINE",
"177 -348 LINE"
);
},
{
closed = 1;
nodes = (
"1954 132 LINE",
"1954 1252 LINE",
"1777 1252 LINE",
"1777 132 LINE"
);
},
{
closed = 1;
nodes = (
"354 1252 LINE",
"177 1252 LINE",
"177 132 LINE",
"354 132 LINE"
);
},
{
closed = 1;
nodes = (
"887 132 LINE",
"887 292 LINE",
"177 292 LINE",
"177 132 LINE"
);
},
{
closed = 1;
nodes = (
"1954 132 LINE",
"1954 292 LINE",
"1244 292 LINE",
"1244 132 LINE"
);
},
{
closed = 1;
nodes = (
"887 1092 LINE",
"887 1252 LINE",
"277 1252 LINE",
"277 1092 LINE"
);
},
{
closed = 1;
nodes = (
"1854 1092 LINE",
"1854 1252 LINE",
"1244 1252 LINE",
"1244 1092 LINE"
);
},
{
closed = 1;
nodes = (
"887 612 LINE",
"887 1192 LINE",
"710 1192 LINE",
"710 612 LINE"
);
},
{
closed = 1;
nodes = (
"1421 612 LINE",
"1421 1192 LINE",
"1244 1192 LINE",
"1244 612 LINE"
);
}
);
width = 2131;
},
{
layerId = "21D66A2E-3203-408D-B482-78BB09110413";
paths = (
{
closed = 1;
nodes = (
"1006 -348 LINE",
"1006 398 LINE",
"652 398 LINE",
"652 -348 LINE"
);
},
{
closed = 1;
nodes = (
"1480 -348 LINE",
"1480 398 LINE",
"1126 398 LINE",
"1126 -348 LINE"
);
},
{
closed = 1;
nodes = (
"1954 -348 LINE",
"1954 -28 LINE",
"177 -28 LINE",
"177 -348 LINE"
);
},
{
closed = 1;
nodes = (
"1954 132 LINE",
"1954 1252 LINE",
"1600 1252 LINE",
"1600 132 LINE"
);
},
{
closed = 1;
nodes = (
"531 1252 LINE",
"177 1252 LINE",
"177 132 LINE",
"531 132 LINE"
);
},
{
closed = 1;
nodes = (
"1006 78 LINE",
"1006 398 LINE",
"177 398 LINE",
"177 78 LINE"
);
},
{
closed = 1;
nodes = (
"1954 78 LINE",
"1954 398 LINE",
"1126 398 LINE",
"1126 78 LINE"
);
},
{
closed = 1;
nodes = (
"976 932 LINE",
"976 1252 LINE",
"277 1252 LINE",
"277 932 LINE"
);
},
{
closed = 1;
nodes = (
"1854 932 LINE",
"1854 1252 LINE",
"1156 1252 LINE",
"1156 932 LINE"
);
},
{
closed = 1;
nodes = (
"1006 504 LINE",
"1006 1252 LINE",
"652 1252 LINE",
"652 504 LINE"
);
},
{
closed = 1;
nodes = (
"1480 504 LINE",
"1480 1252 LINE",
"1126 1252 LINE",
"1126 504 LINE"
);
}
);
width = 2131;
},
{
layerId = "C5422B82-5DE8-4106-A997-45BC085AEC07";
paths = (
{
closed = 1;
nodes = (
"887 -348 LINE",
"887 292 LINE",
"710 292 LINE",
"710 -348 LINE"
);
},
{
closed = 1;
nodes = (
"1421 -348 LINE",
"1421 292 LINE",
"1244 292 LINE",
"1244 -348 LINE"
);
},
{
closed = 1;
nodes = (
"1954 -348 LINE",
"1954 -188 LINE",
"177 -188 LINE",
"177 -348 LINE"
);
},
{
closed = 1;
nodes = (
"1954 132 LINE",
"1954 1252 LINE",
"1777 1252 LINE",
"1777 132 LINE"
);
},
{
closed = 1;
nodes = (
"354 1252 LINE",
"177 1252 LINE",
"177 132 LINE",
"354 132 LINE"
);
},
{
closed = 1;
nodes = (
"887 132 LINE",
"887 292 LINE",
"177 292 LINE",
"177 132 LINE"
);
},
{
closed = 1;
nodes = (
"1954 132 LINE",
"1954 292 LINE",
"1244 292 LINE",
"1244 132 LINE"
);
},
{
closed = 1;
nodes = (
"887 1092 LINE",
"887 1252 LINE",
"277 1252 LINE",
"277 1092 LINE"
);
},
{
closed = 1;
nodes = (
"1854 1092 LINE",
"1854 1252 LINE",
"1244 1252 LINE",
"1244 1092 LINE"
);
},
{
closed = 1;
nodes = (
"887 612 LINE",
"887 1192 LINE",
"710 1192 LINE",
"710 612 LINE"
);
},
{
closed = 1;
nodes = (
"1421 612 LINE",
"1421 1192 LINE",
"1244 1192 LINE",
"1244 612 LINE"
);
}
);
width = 2131;
}
);
},
{
glyphname = Z.ss02;
lastChange = "2019-05-01 22:57:23 +0000";
layers = (
{
layerId = "B520048A-B5B0-4F8C-90F0-FFAF6C62D524";
paths = (
{
closed = 1;
nodes = (
"1954 -188 LINE",
"177 -188 LINE",
"177 -348 LINE",
"1954 -348 LINE"
);
},
{
closed = 1;
nodes = (
"1954 1252 LINE",
"177 1252 LINE",
"177 1092 LINE",
"1954 1092 LINE"
);
},
{
closed = 1;
nodes = (
"1954 772 LINE",
"178 772 LINE",
"178 612 LINE",
"1954 612 LINE"
);
},
{
closed = 1;
nodes = (
"1954 1252 LINE",
"1777 1252 LINE",
"1777 612 LINE",
"1954 612 LINE"
);
},
{
closed = 1;
nodes = (
"1954 292 LINE",
"177 292 LINE",
"177 132 LINE",
"1954 132 LINE"
);
},
{
closed = 1;
nodes = (
"354 292 LINE",
"177 292 LINE",
"177 -348 LINE",
"354 -348 LINE"
);
}
);
width = 2131;
},
{
layerId = "21D66A2E-3203-408D-B482-78BB09110413";
paths = (
{
closed = 1;
nodes = (
"1954 -28 LINE",
"177 -28 LINE",
"177 -348 LINE",
"1954 -348 LINE"
);
},
{
closed = 1;
nodes = (
"1954 1252 LINE",
"177 1252 LINE",
"177 932 LINE",
"1954 932 LINE"
);
},
{
closed = 1;
nodes = (
"1954 825 LINE",
"178 825 LINE",
"178 505 LINE",
"1954 505 LINE"
);
},
{
closed = 1;
nodes = (
"1954 1252 LINE",
"1600 1252 LINE",
"1600 612 LINE",
"1954 612 LINE"
);
},
{
closed = 1;
nodes = (
"1954 399 LINE",
"177 399 LINE",
"177 79 LINE",
"1954 79 LINE"
);
},
{
closed = 1;
nodes = (
"531 292 LINE",
"177 292 LINE",
"177 -348 LINE",
"531 -348 LINE"
);
}
);
width = 2131;
},
{
layerId = "C5422B82-5DE8-4106-A997-45BC085AEC07";
paths = (
{
closed = 1;
nodes = (
"1954 -188 LINE",
"177 -188 LINE",
"177 -348 LINE",
"1954 -348 LINE"
);
},
{
closed = 1;
nodes = (
"1954 1252 LINE",
"177 1252 LINE",
"177 1092 LINE",
"1954 1092 LINE"
);
},
{
closed = 1;
nodes = (
"1954 772 LINE",
"178 772 LINE",
"178 612 LINE",
"1954 612 LINE"
);
},
{
closed = 1;
nodes = (
"1954 1252 LINE",
"1777 1252 LINE",
"1777 612 LINE",
"1954 612 LINE"
);
},
{
closed = 1;
nodes = (
"1954 292 LINE",
"177 292 LINE",
"177 132 LINE",
"1954 132 LINE"
);
},
{
closed = 1;
nodes = (
"354 292 LINE",
"177 292 LINE",
"177 -348 LINE",
"354 -348 LINE"
);
}
);
width = 2131;
}
);
},
{
glyphname = a;
lastChange = "2019-07-30 19:32:59 +0000";
layers = (
{
anchors = (
{
name = bottom;
position = "{430, 0}";
},
{
name = ogonek;
position = "{698, -2}";
},
{
name = top;
position = "{408, 768}";
}
);
layerId = "B520048A-B5B0-4F8C-90F0-FFAF6C62D524";
paths = (
{
closed = 1;
nodes = (
"316 780 OFFCURVE",
"121 768 OFFCURVE",
"137 582 CURVE",
"263 582 LINE",
"256 667 OFFCURVE",
"327 680 OFFCURVE",
"403 680 CURVE SMOOTH",
"451 680 LINE SMOOTH",
"519 680 OFFCURVE",
"542 652 OFFCURVE",
"542 558 CURVE SMOOTH",
"542 486 LINE",
"189 378 LINE SMOOTH",
"130 360 OFFCURVE",
"100 336 OFFCURVE",
"100 272 CURVE SMOOTH",
"100 143 LINE SMOOTH",
"100 21 OFFCURVE",
"165 -9 OFFCURVE",
"251 -9 CURVE SMOOTH",
"301 -9 LINE SMOOTH",
"393 -9 OFFCURVE",
"488 12 OFFCURVE",
"540 98 CURVE",
"542 98 LINE",
"558 15 OFFCURVE",
"635 -10 OFFCURVE",
"716 -10 CURVE",
"750 90 LINE",
"709 90 OFFCURVE",
"676 107 OFFCURVE",
"676 150 CURVE SMOOTH",
"676 582 LINE SMOOTH",
"676 722 OFFCURVE",
"623 780 OFFCURVE",
"466 780 CURVE SMOOTH",
"407 780 LINE SMOOTH"
);
},
{
closed = 1;
nodes = (
"260 96 OFFCURVE",
"236 109 OFFCURVE",
"236 180 CURVE SMOOTH",
"236 285 LINE",
"542 380 LINE",
"542 197 LINE",
"487 124 OFFCURVE",
"408 96 OFFCURVE",
"333 96 CURVE SMOOTH",
"313 96 LINE SMOOTH"
);
}
);
width = 822;
},
{
anchors = (
{
name = bottom;
position = "{428, 0}";
},
{
name = ogonek;
position = "{742, 0}";
},
{
name = top;
position = "{428, 768}";
}
);
layerId = "21D66A2E-3203-408D-B482-78BB09110413";
paths = (
{
closed = 1;
nodes = (
"173 777 OFFCURVE",
"72 721 OFFCURVE",
"97 522 CURVE",
"313 522 LINE",
"303 600 OFFCURVE",
"326 627 OFFCURVE",
"393 627 CURVE SMOOTH",
"433 627 LINE SMOOTH",
"483 627 OFFCURVE",
"504 606 OFFCURVE",
"504 545 CURVE SMOOTH",
"504 480 LINE",
"209 400 LINE SMOOTH",
"104 372 OFFCURVE",
"80 340 OFFCURVE",
"80 252 CURVE SMOOTH",
"80 138 LINE SMOOTH",
"80 20 OFFCURVE",
"139 -22 OFFCURVE",
"252 -22 CURVE SMOOTH",
"310 -22 LINE SMOOTH",
"425 -22 OFFCURVE",
"483 11 OFFCURVE",
"518 82 CURVE",
"520 82 LINE",
"537 -2 OFFCURVE",
"652 -31 OFFCURVE",
"774 -14 CURVE",
"808 156 LINE",
"767 153 OFFCURVE",
"734 163 OFFCURVE",
"734 216 CURVE SMOOTH",
"734 535 LINE SMOOTH",
"734 734 OFFCURVE",
"656 777 OFFCURVE",
"477 777 CURVE SMOOTH",
"387 777 LINE SMOOTH"
);
},
{
closed = 1;
nodes = (
"327 128 OFFCURVE",
"311 147 OFFCURVE",
"312 202 CURVE SMOOTH",
"314 282 LINE",
"504 336 LINE",
"504 170 LINE",
"478 144 OFFCURVE",
"437 128 OFFCURVE",
"397 128 CURVE SMOOTH",
"379 128 LINE SMOOTH"
);
}
);
width = 854;
},
{
anchors = (
{
name = bottom;
position = "{300, 0}";
},
{
name = ogonek;
position = "{488, -2}";
},
{
name = top;
position = "{298, 768}";
}
);
layerId = "C5422B82-5DE8-4106-A997-45BC085AEC07";
paths = (
{
closed = 1;
nodes = (
"194 780 OFFCURVE",
"82 768 OFFCURVE",
"93 582 CURVE",
"209 582 LINE",
"204 679 OFFCURVE",
"221 698 OFFCURVE",
"272 698 CURVE SMOOTH",
"293 698 LINE SMOOTH",
"338 698 OFFCURVE",
"354 674 OFFCURVE",
"354 600 CURVE SMOOTH",
"354 490 LINE",
"135 378 LINE SMOOTH",
"96 358 OFFCURVE",
"76 336 OFFCURVE",
"76 272 CURVE SMOOTH",
"76 113 LINE SMOOTH",
"76 21 OFFCURVE",
"115 -9 OFFCURVE",
"177 -9 CURVE SMOOTH",
"214 -9 LINE SMOOTH",
"265 -9 OFFCURVE",
"318 8 OFFCURVE",
"352 64 CURVE",
"354 64 LINE",
"364 1 OFFCURVE",
"440 -10 OFFCURVE",
"512 -10 CURVE",
"530 78 LINE",
"484 78 OFFCURVE",
"468 95 OFFCURVE",
"468 148 CURVE SMOOTH",
"468 622 LINE SMOOTH",
"468 742 OFFCURVE",
"432 780 OFFCURVE",
"347 780 CURVE SMOOTH",
"255 780 LINE SMOOTH"
);
},
{
closed = 1;
nodes = (
"196 77 OFFCURVE",
"190 90 OFFCURVE",
"190 161 CURVE SMOOTH",
"190 305 LINE",
"354 393 LINE",
"354 138 LINE",
"317 95 OFFCURVE",
"294 77 OFFCURVE",
"244 77 CURVE SMOOTH",
"231 77 LINE SMOOTH"
);
}
);
width = 566;
}
);
unicode = 0061;
},
{
glyphname = ae;
lastChange = "2019-05-01 22:57:23 +0000";
layers = (
{
anchors = (
{
name = bottom;
position = "{624, 0}";
},
{
name = top;
position = "{624, 768}";
}
);
layerId = "B520048A-B5B0-4F8C-90F0-FFAF6C62D524";
paths = (
{
closed = 1;
nodes = (
"316 780 OFFCURVE",
"121 768 OFFCURVE",
"137 582 CURVE",
"263 582 LINE",
"256 667 OFFCURVE",
"327 680 OFFCURVE",
"403 680 CURVE SMOOTH",
"451 680 LINE SMOOTH",
"519 680 OFFCURVE",
"542 652 OFFCURVE",
"542 558 CURVE SMOOTH",
"542 486 LINE",
"189 378 LINE SMOOTH",
"130 360 OFFCURVE",
"100 336 OFFCURVE",
"100 272 CURVE SMOOTH",
"100 143 LINE SMOOTH",
"100 21 OFFCURVE",
"165 -9 OFFCURVE",
"251 -9 CURVE SMOOTH",
"341 -9 LINE SMOOTH",
"433 -9 OFFCURVE",
"528 12 OFFCURVE",
"580 98 CURVE",
"666 98 LINE",
"666 582 LINE SMOOTH",
"666 722 OFFCURVE",
"623 780 OFFCURVE",
"466 780 CURVE SMOOTH",
"407 780 LINE SMOOTH"
);
},
{
closed = 1;
nodes = (
"260 96 OFFCURVE",
"236 109 OFFCURVE",
"236 180 CURVE SMOOTH",
"236 285 LINE",
"542 380 LINE",
"542 197 LINE",
"487 124 OFFCURVE",
"408 96 OFFCURVE",
"333 96 CURVE SMOOTH",
"313 96 LINE SMOOTH"
);
},
{
closed = 1;
nodes = (
"668 547 OFFCURVE",
"697 688 OFFCURVE",
"892 688 CURVE SMOOTH",
"979 688 OFFCURVE",
"1035 662 OFFCURVE",
"1035 501 CURVE SMOOTH",
"1035 432 LINE",
"653 432 LINE",
"653 332 LINE",
"1174 332 LINE",
"1174 523 LINE SMOOTH",
"1174 744 OFFCURVE",
"1051 788 OFFCURVE",
"905 788 CURVE SMOOTH",
"680 788 OFFCURVE",
"542 680 OFFCURVE",
"542 361 CURVE SMOOTH",
"542 41 OFFCURVE",
"677 -24 OFFCURVE",
"872 -24 CURVE SMOOTH",
"976 -24 OFFCURVE",
"1081 -5 OFFCURVE",
"1166 47 CURVE",
"1143 142 LINE",
"1071 94 OFFCURVE",
"979 78 OFFCURVE",
"902 78 CURVE SMOOTH",
"739 78 OFFCURVE",
"668 143 OFFCURVE",
"668 405 CURVE SMOOTH",
"668 407 LINE SMOOTH"
);
}
);
width = 1274;
},
{
anchors = (
{
name = bottom;
position = "{623, 0}";
},
{
name = top;
position = "{623, 768}";
}
);
layerId = "21D66A2E-3203-408D-B482-78BB09110413";
paths = (
{
closed = 1;
nodes = (
"173 777 OFFCURVE",
"72 721 OFFCURVE",
"97 522 CURVE",
"313 522 LINE",
"303 600 OFFCURVE",
"326 627 OFFCURVE",
"393 627 CURVE SMOOTH",
"433 627 LINE SMOOTH",
"483 627 OFFCURVE",
"504 606 OFFCURVE",
"504 545 CURVE SMOOTH",
"504 480 LINE",
"209 400 LINE SMOOTH",
"104 372 OFFCURVE",
"80 340 OFFCURVE",
"80 252 CURVE SMOOTH",
"80 138 LINE SMOOTH",
"80 20 OFFCURVE",
"139 -22 OFFCURVE",
"252 -22 CURVE SMOOTH",
"310 -22 LINE SMOOTH",
"475 -22 OFFCURVE",
"533 11 OFFCURVE",
"568 82 CURVE",
"714 82 LINE",
"714 535 LINE SMOOTH",
"714 734 OFFCURVE",
"656 777 OFFCURVE",
"477 777 CURVE SMOOTH",
"387 777 LINE SMOOTH"
);
},
{
closed = 1;
nodes = (
"327 128 OFFCURVE",
"311 147 OFFCURVE",
"312 202 CURVE SMOOTH",
"314 282 LINE",
"504 336 LINE",
"504 170 LINE",
"478 144 OFFCURVE",
"437 128 OFFCURVE",
"397 128 CURVE SMOOTH",
"379 128 LINE SMOOTH"
);
},
{
closed = 1;
nodes = (
"714 576 OFFCURVE",
"764 640 OFFCURVE",
"862 640 CURVE SMOOTH",
"924 640 OFFCURVE",
"958 614 OFFCURVE",
"960 540 CURVE SMOOTH",
"962 460 LINE",
"655 460 LINE",
"655 320 LINE",
"1166 320 LINE",
"1166 560 LINE SMOOTH",
"1166 727 OFFCURVE",
"1067 790 OFFCURVE",
"880 790 CURVE SMOOTH",
"629 790 OFFCURVE",
"504 680 OFFCURVE",
"504 372 CURVE SMOOTH",
"504 33 OFFCURVE",
"658 -24 OFFCURVE",
"863 -24 CURVE SMOOTH",
"987 -24 OFFCURVE",
"1093 -4 OFFCURVE",
"1158 31 CURVE",
"1148 194 LINE",
"1086 163 OFFCURVE",
"1000 148 OFFCURVE",
"928 148 CURVE SMOOTH",
"790 148 OFFCURVE",
"714 204 OFFCURVE",
"714 315 CURVE SMOOTH",
"714 465 LINE SMOOTH"
);
}
);
width = 1246;
},
{
anchors = (
{
name = bottom;
position = "{454, 0}";
},
{
name = top;
position = "{424, 768}";
}
);
layerId = "C5422B82-5DE8-4106-A997-45BC085AEC07";
paths = (
{
closed = 1;
nodes = (
"214 780 OFFCURVE",
"82 768 OFFCURVE",
"93 582 CURVE",
"209 582 LINE",
"204 679 OFFCURVE",
"241 698 OFFCURVE",
"292 698 CURVE SMOOTH",
"313 698 LINE SMOOTH",
"358 698 OFFCURVE",
"374 674 OFFCURVE",
"374 600 CURVE SMOOTH",
"374 490 LINE",
"135 378 LINE SMOOTH",
"96 360 OFFCURVE",
"76 336 OFFCURVE",
"76 272 CURVE SMOOTH",
"76 113 LINE SMOOTH",
"76 21 OFFCURVE",
"115 -9 OFFCURVE",
"177 -9 CURVE SMOOTH",
"254 -9 LINE SMOOTH",
"315 -9 OFFCURVE",
"368 8 OFFCURVE",
"412 64 CURVE",
"478 64 LINE",
"478 622 LINE SMOOTH",
"478 742 OFFCURVE",
"442 780 OFFCURVE",
"367 780 CURVE SMOOTH",
"275 780 LINE SMOOTH"
);
},
{
closed = 1;
nodes = (
"206 77 OFFCURVE",
"190 90 OFFCURVE",
"190 161 CURVE SMOOTH",
"190 305 LINE",
"374 393 LINE",
"374 138 LINE",
"337 95 OFFCURVE",
"304 77 OFFCURVE",
"254 77 CURVE SMOOTH",
"241 77 LINE SMOOTH"
);
},
{
closed = 1;
nodes = (
"483 547 OFFCURVE",
"501 708 OFFCURVE",
"613 708 CURVE SMOOTH",
"666 708 OFFCURVE",
"689 672 OFFCURVE",
"689 601 CURVE SMOOTH",
"689 426 LINE",
"459 426 LINE",
"459 338 LINE",
"795 338 LINE",
"795 613 LINE SMOOTH",
"795 744 OFFCURVE",
"723 788 OFFCURVE",
"619 788 CURVE SMOOTH",
"453 788 OFFCURVE",
"373 680 OFFCURVE",
"373 350 CURVE SMOOTH",
"373 41 OFFCURVE",
"441 -24 OFFCURVE",
"589 -24 CURVE SMOOTH",
"673 -24 OFFCURVE",
"745 -3 OFFCURVE",
"805 25 CURVE",
"783 112 LINE",
"739 84 OFFCURVE",
"684 68 OFFCURVE",
"635 68 CURVE SMOOTH",
"516 68 OFFCURVE",
"483 163 OFFCURVE",
"483 325 CURVE SMOOTH",
"483 437 LINE SMOOTH"
);
}
);
width = 1178;
}
);
leftMetricsKey = a;
rightMetricsKey = e;
unicode = 00E6;
},
{
glyphname = b;
lastChange = "2019-05-01 22:57:23 +0000";
layers = (
{
background = {
paths = (
{
closed = 1;
nodes = (
"456 474 OFFCURVE",
"421 465 OFFCURVE",
"375 442 CURVE",
"387 392 LINE",
"416 405 OFFCURVE",
"436 411 OFFCURVE",
"471 411 CURVE SMOOTH",
"554 411 OFFCURVE",
"587 310 OFFCURVE",
"587 219 CURVE SMOOTH",
"587 89 OFFCURVE",
"519 42 OFFCURVE",
"445 42 CURVE SMOOTH",
"410 42 OFFCURVE",
"384 48 OFFCURVE",
"355 61 CURVE",
"355 720 LINE",
"197 706 LINE",
"197 668 LINE",
"275 667 LINE",
"275 20 LINE",
"325 0 OFFCURVE",
"377 -14 OFFCURVE",
"444 -14 CURVE SMOOTH",
"563 -14 OFFCURVE",
"677 84 OFFCURVE",
"677 251 CURVE SMOOTH",
"677 429 OFFCURVE",
"553 474 OFFCURVE",
"486 474 CURVE SMOOTH"
);
},
{
closed = 1;
nodes = (
"336 8 LINE",
"375 -6 OFFCURVE",
"418 -14 OFFCURVE",
"455 -14 CURVE SMOOTH",
"592 -14 OFFCURVE",
"677 93 OFFCURVE",
"677 239 CURVE SMOOTH",
"677 382 OFFCURVE",
"595 474 OFFCURVE",
"482 474 CURVE SMOOTH",
"422 474 OFFCURVE",
"370 448 OFFCURVE",
"336 420 CURVE",
"336 358 LINE",
"375 390 OFFCURVE",
"418 414 OFFCURVE",
"465 414 CURVE SMOOTH",
"544 414 OFFCURVE",
"587 342 OFFCURVE",
"587 226 CURVE SMOOTH",
"587 101 OFFCURVE",
"538 46 OFFCURVE",
"459 46 CURVE SMOOTH",
"428 46 OFFCURVE",
"388 54 OFFCURVE",
"336 70 CURVE"
);
}
);
};
layerId = "B520048A-B5B0-4F8C-90F0-FFAF6C62D524";
paths = (
{
closed = 1;
nodes = (
"140 1112 LINE",
"140 18 LINE",
"240 -13 OFFCURVE",
"330 -26 OFFCURVE",
"423 -26 CURVE SMOOTH",
"443 -26 LINE SMOOTH",
"633 -26 OFFCURVE",
"824 10 OFFCURVE",
"824 365 CURVE SMOOTH",
"824 435 LINE SMOOTH",
"824 717 OFFCURVE",
"708 780 OFFCURVE",
"540 780 CURVE SMOOTH",
"520 780 LINE SMOOTH",
"409 780 OFFCURVE",
"344 753 OFFCURVE",
"278 712 CURVE",
"274 712 LINE",
"274 1132 LINE",
"264 1280 LINE",
"110 1280 LINE"
);
},
{
closed = 1;
nodes = (
"341 659 OFFCURVE",
"427 680 OFFCURVE",
"497 680 CURVE SMOOTH",
"613 680 OFFCURVE",
"674 620 OFFCURVE",
"674 386 CURVE SMOOTH",
"674 346 LINE SMOOTH",
"674 111 OFFCURVE",
"582 68 OFFCURVE",
"450 68 CURVE SMOOTH",
"381 68 OFFCURVE",
"322 80 OFFCURVE",
"274 92 CURVE",
"274 600 LINE"
);
}
);
width = 924;
},
{
background = {
paths = (
{
closed = 1;
nodes = (
"115 474 OFFCURVE",
"80 465 OFFCURVE",
"34 442 CURVE",
"46 392 LINE",
"75 405 OFFCURVE",
"95 411 OFFCURVE",
"130 411 CURVE SMOOTH",
"213 411 OFFCURVE",
"246 310 OFFCURVE",
"246 219 CURVE SMOOTH",
"246 89 OFFCURVE",
"178 42 OFFCURVE",
"104 42 CURVE SMOOTH",
"69 42 OFFCURVE",
"43 48 OFFCURVE",
"14 61 CURVE",
"14 720 LINE",
"-144 706 LINE",
"-144 668 LINE",
"-66 667 LINE",
"-66 20 LINE",
"-16 0 OFFCURVE",
"36 -14 OFFCURVE",
"103 -14 CURVE SMOOTH",
"222 -14 OFFCURVE",
"336 84 OFFCURVE",
"336 251 CURVE SMOOTH",
"336 429 OFFCURVE",
"212 474 OFFCURVE",
"145 474 CURVE SMOOTH"
);
}
);
};
layerId = "21D66A2E-3203-408D-B482-78BB09110413";
paths = (
{
closed = 1;
nodes = (
"106 1052 LINE",
"106 18 LINE",
"187 8 OFFCURVE",
"324 -6 OFFCURVE",
"454 -6 CURVE SMOOTH",
"484 -6 LINE SMOOTH",
"683 -6 OFFCURVE",
"886 26 OFFCURVE",
"886 381 CURVE SMOOTH",
"886 421 LINE SMOOTH",
"886 723 OFFCURVE",
"759 784 OFFCURVE",
"592 784 CURVE SMOOTH",
"562 784 LINE SMOOTH",
"473 784 OFFCURVE",
"398 773 OFFCURVE",
"340 755 CURVE",
"336 755 LINE",
"336 1072 LINE",
"326 1280 LINE",
"76 1280 LINE"
);
},
{
closed = 1;
nodes = (
"374 612 OFFCURVE",
"429 626 OFFCURVE",
"484 626 CURVE SMOOTH",
"583 626 OFFCURVE",
"636 580 OFFCURVE",
"636 410 CURVE SMOOTH",
"636 379 LINE SMOOTH",
"636 190 OFFCURVE",
"577 150 OFFCURVE",
"461 150 CURVE SMOOTH",
"415 150 OFFCURVE",
"371 154 OFFCURVE",
"336 158 CURVE",
"336 600 LINE"
);
}
);
width = 946;
},
{
background = {
paths = (
{
closed = 1;
nodes = (
"393 474 OFFCURVE",
"358 465 OFFCURVE",
"312 442 CURVE",
"324 392 LINE",
"353 405 OFFCURVE",
"373 411 OFFCURVE",
"408 411 CURVE SMOOTH",
"491 411 OFFCURVE",
"524 310 OFFCURVE",
"524 219 CURVE SMOOTH",
"524 89 OFFCURVE",
"456 42 OFFCURVE",
"382 42 CURVE SMOOTH",
"347 42 OFFCURVE",
"321 48 OFFCURVE",
"292 61 CURVE",
"292 720 LINE",
"134 706 LINE",
"134 668 LINE",
"212 667 LINE",
"212 20 LINE",
"262 0 OFFCURVE",
"314 -14 OFFCURVE",
"381 -14 CURVE SMOOTH",
"500 -14 OFFCURVE",
"614 84 OFFCURVE",
"614 251 CURVE SMOOTH",
"614 429 OFFCURVE",
"490 474 OFFCURVE",
"423 474 CURVE SMOOTH"
);
},
{
closed = 1;
nodes = (
"273 8 LINE",
"312 -6 OFFCURVE",
"355 -14 OFFCURVE",
"392 -14 CURVE SMOOTH",
"529 -14 OFFCURVE",
"614 93 OFFCURVE",
"614 239 CURVE SMOOTH",
"614 382 OFFCURVE",
"532 474 OFFCURVE",
"419 474 CURVE SMOOTH",
"359 474 OFFCURVE",
"307 448 OFFCURVE",
"273 420 CURVE",
"273 358 LINE",
"312 390 OFFCURVE",
"355 414 OFFCURVE",
"402 414 CURVE SMOOTH",
"481 414 OFFCURVE",
"524 342 OFFCURVE",
"524 226 CURVE SMOOTH",
"524 101 OFFCURVE",
"475 46 OFFCURVE",
"396 46 CURVE SMOOTH",
"365 46 OFFCURVE",
"325 54 OFFCURVE",
"273 70 CURVE"
);
}
);
};
layerId = "C5422B82-5DE8-4106-A997-45BC085AEC07";
paths = (
{
closed = 1;
nodes = (
"80 1112 LINE",
"80 23 LINE",
"156 -6 OFFCURVE",
"231 -20 OFFCURVE",
"302 -20 CURVE SMOOTH",
"319 -20 LINE SMOOTH",
"462 -20 OFFCURVE",
"534 35 OFFCURVE",
"534 282 CURVE SMOOTH",
"534 538 LINE SMOOTH",
"534 749 OFFCURVE",
"444 785 OFFCURVE",
"366 785 CURVE SMOOTH",
"350 785 LINE SMOOTH",
"283 785 OFFCURVE",
"232 759 OFFCURVE",
"194 718 CURVE",
"191 718 LINE",
"191 1132 LINE",
"181 1280 LINE",
"50 1280 LINE"
);
},
{
closed = 1;
nodes = (
"243 675 OFFCURVE",
"290 692 OFFCURVE",
"328 693 CURVE SMOOTH",
"392 695 OFFCURVE",
"414 652 OFFCURVE",
"414 497 CURVE SMOOTH",
"414 264 LINE SMOOTH",
"414 90 OFFCURVE",
"379 62 OFFCURVE",
"301 62 CURVE SMOOTH",
"265 62 OFFCURVE",
"231 68 OFFCURVE",
"200 78 CURVE",
"200 623 LINE"
);
}
);
width = 606;
}
);
leftMetricsKey = l;
rightKerningGroup = o;
unicode = 0062;
},
{
glyphname = c;
lastChange = "2021-12-27 08:14:03 +0000";
layers = (
{
anchors = (
{
name = bottom;
position = "{432, 0}";
},
{
name = top;
position = "{432, 768}";
}
);
background = {
paths = (
{
closed = 1;
nodes = (
"266 790 OFFCURVE",
"100 689 OFFCURVE",
"100 358 CURVE SMOOTH",
"100 80 OFFCURVE",
"213 -24 OFFCURVE",
"437 -24 CURVE SMOOTH",
"529 -24 OFFCURVE",
"621 -7 OFFCURVE",
"710 47 CURVE",
"687 142 LINE",
"612 96 OFFCURVE",
"536 78 OFFCURVE",
"465 78 CURVE SMOOTH",
"316 78 OFFCURVE",
"248 154 OFFCURVE",
"248 402 CURVE SMOOTH",
"248 556 OFFCURVE",
"274 690 OFFCURVE",
"443 690 CURVE SMOOTH",
"526 690 OFFCURVE",
"585 657 OFFCURVE",
"567 582 CURVE",
"683 582 LINE",
"719 768 OFFCURVE",
"564 790 OFFCURVE",
"483 790 CURVE SMOOTH",
"443 790 LINE SMOOTH"
);
}
);
};
layerId = "B520048A-B5B0-4F8C-90F0-FFAF6C62D524";
paths = (
{
closed = 1;
nodes = (
"246 790 OFFCURVE",
"100 689 OFFCURVE",
"100 360 CURVE SMOOTH",
"100 80 OFFCURVE",
"203 -24 OFFCURVE",
"427 -24 CURVE SMOOTH",
"519 -24 OFFCURVE",
"621 -7 OFFCURVE",
"710 47 CURVE",
"687 142 LINE",
"612 96 OFFCURVE",
"536 78 OFFCURVE",
"465 78 CURVE SMOOTH",
"316 78 OFFCURVE",
"248 154 OFFCURVE",
"248 402 CURVE SMOOTH",
"248 596 OFFCURVE",
"304 690 OFFCURVE",
"443 690 CURVE SMOOTH",
"516 690 OFFCURVE",
"575 666 OFFCURVE",
"563 582 CURVE",
"689 582 LINE",
"719 768 OFFCURVE",
"564 790 OFFCURVE",
"483 790 CURVE SMOOTH",
"423 790 LINE SMOOTH"
);
}
);
width = 782;
},
{
anchors = (
{
name = bottom;
position = "{377, 0}";
},
{
name = top;
position = "{377, 768}";
}
);
background = {
paths = (
{
closed = 1;
nodes = (
"308 50 OFFCURVE",
"274 42 OFFCURVE",
"234 42 CURVE SMOOTH",
"130 42 OFFCURVE",
"85 133 OFFCURVE",
"85 230 CURVE SMOOTH",
"85 327 OFFCURVE",
"126 420 OFFCURVE",
"226 420 CURVE SMOOTH",
"240 420 OFFCURVE",
"254 418 OFFCURVE",
"266 416 CURVE",
"325 372 LINE",
"379 442 LINE",
"343 456 OFFCURVE",
"282 474 OFFCURVE",
"227 474 CURVE SMOOTH",
"100 474 OFFCURVE",
"-5 379 OFFCURVE",
"-5 230 CURVE SMOOTH",
"-5 81 OFFCURVE",
"98 -14 OFFCURVE",
"217 -14 CURVE SMOOTH",
"271 -14 OFFCURVE",
"314 -1 OFFCURVE",
"376 24 CURVE",
"364 70 LINE"
);
}
);
};
layerId = "21D66A2E-3203-408D-B482-78BB09110413";
paths = (
{
closed = 1;
nodes = (
"206 790 OFFCURVE",
"60 689 OFFCURVE",
"60 370 CURVE SMOOTH",
"60 50 OFFCURVE",
"214 -24 OFFCURVE",
"423 -24 CURVE SMOOTH",
"533 -24 OFFCURVE",
"622 -4 OFFCURVE",
"701 32 CURVE",
"691 194 LINE",
"626 166 OFFCURVE",
"546 148 OFFCURVE",
"477 148 CURVE SMOOTH",
"366 148 OFFCURVE",
"308 194 OFFCURVE",
"308 396 CURVE SMOOTH",
"308 586 OFFCURVE",
"361 620 OFFCURVE",
"425 620 CURVE SMOOTH",
"486 620 OFFCURVE",
"507 589 OFFCURVE",
"497 522 CURVE",
"703 522 LINE",
"733 768 OFFCURVE",
"574 790 OFFCURVE",
"463 790 CURVE SMOOTH",
"443 790 LINE SMOOTH"
);
}
);
width = 743;
},
{
anchors = (
{
name = bottom;
position = "{282, 0}";
},
{
name = top;
position = "{422, 768}";
}
);
background = {
paths = (
{
closed = 1;
nodes = (
"256 790 OFFCURVE",
"90 689 OFFCURVE",
"90 358 CURVE SMOOTH",
"90 80 OFFCURVE",
"203 -24 OFFCURVE",
"427 -24 CURVE SMOOTH",
"519 -24 OFFCURVE",
"611 -7 OFFCURVE",
"700 47 CURVE",
"677 142 LINE",
"602 96 OFFCURVE",
"526 78 OFFCURVE",
"455 78 CURVE SMOOTH",
"306 78 OFFCURVE",
"238 154 OFFCURVE",
"238 402 CURVE SMOOTH",
"238 556 OFFCURVE",
"264 690 OFFCURVE",
"433 690 CURVE SMOOTH",
"516 690 OFFCURVE",
"575 657 OFFCURVE",
"557 582 CURVE",
"673 582 LINE",
"709 768 OFFCURVE",
"554 790 OFFCURVE",
"473 790 CURVE SMOOTH",
"433 790 LINE SMOOTH"
);
}
);
};
layerId = "C5422B82-5DE8-4106-A997-45BC085AEC07";
paths = (
{
closed = 1;
nodes = (
"153 790 OFFCURVE",
"64 709 OFFCURVE",
"64 350 CURVE SMOOTH",
"64 40 OFFCURVE",
"125 -24 OFFCURVE",
"298 -24 CURVE SMOOTH",
"398 -24 OFFCURVE",
"454 -4 OFFCURVE",
"494 15 CURVE",
"482 100 LINE",
"437 81 OFFCURVE",
"365 68 OFFCURVE",
"319 68 CURVE SMOOTH",
"214 68 OFFCURVE",
"190 134 OFFCURVE",
"190 388 CURVE SMOOTH",
"190 596 OFFCURVE",
"206 710 OFFCURVE",
"314 710 CURVE SMOOTH",
"362 710 OFFCURVE",
"379 686 OFFCURVE",
"377 612 CURVE",
"493 612 LINE",
"503 778 OFFCURVE",
"415 790 OFFCURVE",
"351 790 CURVE SMOOTH",
"281 790 LINE SMOOTH"
);
}
);
width = 518;
}
);
leftKerningGroup = o;
leftMetricsKey = o;
unicode = 0063;
},
{
glyphname = d;
lastChange = "2019-05-01 22:57:23 +0000";
layers = (
{
anchors = (
{
name = bottom;
position = "{463, 0}";
},
{
name = center;
position = "{648, 1060}";
},
{
name = top;
position = "{463, 768}";
},
{
name = topright;
position = "{782, 768}";
}
);
background = {
paths = (
{
closed = 1;
nodes = (
"658 38 OFFCURVE",
"662 6 OFFCURVE",
"668 -14 CURVE",
"802 -7 LINE",
"786 58 OFFCURVE",
"782 137 OFFCURVE",
"782 214 CURVE SMOOTH",
"782 1216 LINE",
"648 1216 LINE",
"648 748 LINE",
"603 770 OFFCURVE",
"543 786 OFFCURVE",
"469 786 CURVE SMOOTH",
"282 786 OFFCURVE",
"100 682 OFFCURVE",
"100 352 CURVE SMOOTH",
"100 38 OFFCURVE",
"279 -24 OFFCURVE",
"411 -24 CURVE SMOOTH",
"500 -24 OFFCURVE",
"594 5 OFFCURVE",
"652 73 CURVE",
"656 73 LINE"
);
},
{
closed = 1;
nodes = (
"648 184 OFFCURVE",
"639 153 OFFCURVE",
"601 124 CURVE SMOOTH",
"563 95 OFFCURVE",
"509 76 OFFCURVE",
"449 76 CURVE SMOOTH",
"312 76 OFFCURVE",
"250 176 OFFCURVE",
"250 364 CURVE SMOOTH",
"250 599 OFFCURVE",
"332 686 OFFCURVE",
"462 686 CURVE SMOOTH",
"526 686 OFFCURVE",
"601 668 OFFCURVE",
"648 650 CURVE",
"648 245 LINE SMOOTH"
);
}
);
};
layerId = "B520048A-B5B0-4F8C-90F0-FFAF6C62D524";
paths = (
{
closed = 1;
nodes = (
"100 48 OFFCURVE",
"207 -24 OFFCURVE",
"379 -24 CURVE SMOOTH",
"399 -24 LINE SMOOTH",
"498 -24 OFFCURVE",
"594 4 OFFCURVE",
"648 72 CURVE",
"652 72 LINE",
"664 0 LINE",
"812 0 LINE",
"782 168 LINE",
"782 1132 LINE",
"772 1280 LINE",
"618 1280 LINE",
"648 1112 LINE",
"648 728 LINE",
"613 760 OFFCURVE",
"553 786 OFFCURVE",
"459 786 CURVE SMOOTH",
"419 786 LINE SMOOTH",
"251 786 OFFCURVE",
"100 722 OFFCURVE",
"100 382 CURVE SMOOTH",
"100 312 LINE SMOOTH"
);
},
{
closed = 1;
nodes = (
"250 394 LINE SMOOTH",
"250 609 OFFCURVE",
"306 688 OFFCURVE",
"450 688 CURVE SMOOTH",
"551 688 OFFCURVE",
"648 645 OFFCURVE",
"648 532 CURVE SMOOTH",
"648 162 LINE",
"602 100 OFFCURVE",
"490 76 OFFCURVE",
"422 76 CURVE SMOOTH",
"292 76 OFFCURVE",
"250 166 OFFCURVE",
"250 364 CURVE SMOOTH"
);
}
);
width = 922;
},
{
anchors = (
{
name = bottom;
position = "{469, 0}";
},
{
name = center;
position = "{469, 384}";
},
{
name = top;
position = "{469, 768}";
},
{
name = topright;
position = "{908, 768}";
}
);
background = {
paths = (
{
closed = 1;
nodes = (
"302 78 LINE",
"316 -10 LINE",
"460 0 LINE",
"460 38 LINE",
"382 41 LINE",
"382 720 LINE",
"224 706 LINE",
"224 668 LINE",
"302 667 LINE"
);
},
{
closed = 1;
nodes = (
"284 446 LINE",
"253 465 OFFCURVE",
"208 474 OFFCURVE",
"180 474 CURVE SMOOTH",
"83 474 OFFCURVE",
"-39 375 OFFCURVE",
"-39 218 CURVE SMOOTH",
"-39 83 OFFCURVE",
"57 -14 OFFCURVE",
"186 -14 CURVE SMOOTH",
"215 -14 OFFCURVE",
"275 25 OFFCURVE",
"314 62 CURVE",
"313 122 LINE",
"277 79 OFFCURVE",
"245 50 OFFCURVE",
"195 50 CURVE SMOOTH",
"103 50 OFFCURVE",
"46 124 OFFCURVE",
"46 239 CURVE SMOOTH",
"46 375 OFFCURVE",
"113 420 OFFCURVE",
"180 420 CURVE SMOOTH",
"209 420 OFFCURVE",
"241 411 OFFCURVE",
"272 396 CURVE"
);
}
);
};
layerId = "21D66A2E-3203-408D-B482-78BB09110413";
paths = (
{
closed = 1;
nodes = (
"60 38 OFFCURVE",
"207 -24 OFFCURVE",
"349 -24 CURVE SMOOTH",
"379 -24 LINE SMOOTH",
"478 -24 OFFCURVE",
"554 5 OFFCURVE",
"612 73 CURVE",
"616 73 LINE",
"628 -6 LINE",
"868 -6 LINE",
"838 214 LINE",
"838 1072 LINE",
"828 1280 LINE",
"578 1280 LINE",
"608 1052 LINE",
"608 752 LINE",
"573 768 OFFCURVE",
"513 786 OFFCURVE",
"449 786 CURVE SMOOTH",
"419 786 LINE SMOOTH",
"222 786 OFFCURVE",
"60 692 OFFCURVE",
"60 382 CURVE SMOOTH",
"60 322 LINE SMOOTH"
);
},
{
closed = 1;
nodes = (
"310 406 LINE SMOOTH",
"310 579 OFFCURVE",
"371 616 OFFCURVE",
"470 616 CURVE SMOOTH",
"553 616 OFFCURVE",
"608 592 OFFCURVE",
"608 507 CURVE SMOOTH",
"608 215 LINE",
"574 168 OFFCURVE",
"510 146 OFFCURVE",
"454 146 CURVE SMOOTH",
"356 146 OFFCURVE",
"310 213 OFFCURVE",
"310 366 CURVE SMOOTH"
);
}
);
width = 934;
},
{
anchors = (
{
name = bottom;
position = "{336, 0}";
},
{
name = center;
position = "{521, 1060}";
},
{
name = top;
position = "{336, 768}";
},
{
name = topright;
position = "{525, 768}";
}
);
background = {
paths = (
{
closed = 1;
nodes = (
"531 38 OFFCURVE",
"535 6 OFFCURVE",
"541 -14 CURVE",
"675 -7 LINE",
"659 58 OFFCURVE",
"655 137 OFFCURVE",
"655 214 CURVE SMOOTH",
"655 1216 LINE",
"521 1216 LINE",
"521 748 LINE",
"476 770 OFFCURVE",
"416 786 OFFCURVE",
"342 786 CURVE SMOOTH",
"155 786 OFFCURVE",
"-27 682 OFFCURVE",
"-27 352 CURVE SMOOTH",
"-27 38 OFFCURVE",
"152 -24 OFFCURVE",
"284 -24 CURVE SMOOTH",
"373 -24 OFFCURVE",
"467 5 OFFCURVE",
"525 73 CURVE",
"529 73 LINE"
);
},
{
closed = 1;
nodes = (
"521 184 OFFCURVE",
"512 153 OFFCURVE",
"474 124 CURVE SMOOTH",
"436 95 OFFCURVE",
"382 76 OFFCURVE",
"322 76 CURVE SMOOTH",
"185 76 OFFCURVE",
"123 176 OFFCURVE",
"123 364 CURVE SMOOTH",
"123 599 OFFCURVE",
"205 686 OFFCURVE",
"335 686 CURVE SMOOTH",
"399 686 OFFCURVE",
"474 668 OFFCURVE",
"521 650 CURVE",
"521 245 LINE SMOOTH"
);
}
);
};
layerId = "C5422B82-5DE8-4106-A997-45BC085AEC07";
paths = (
{
closed = 1;
nodes = (
"72 48 OFFCURVE",
"128 -20 OFFCURVE",
"240 -20 CURVE SMOOTH",
"254 -20 LINE SMOOTH",
"326 -20 OFFCURVE",
"384 9 OFFCURVE",
"406 52 CURVE",
"409 52 LINE",
"416 0 LINE",
"546 0 LINE",
"526 168 LINE",
"526 1132 LINE",
"510 1280 LINE",
"374 1280 LINE",
"406 1112 LINE",
"406 736 LINE",
"376 767 OFFCURVE",
"332 778 OFFCURVE",
"286 778 CURVE SMOOTH",
"264 778 LINE SMOOTH",
"157 778 OFFCURVE",
"72 714 OFFCURVE",
"72 474 CURVE SMOOTH",
"72 242 LINE SMOOTH"
);
},
{
closed = 1;
nodes = (
"192 504 LINE SMOOTH",
"192 619 OFFCURVE",
"207 697 OFFCURVE",
"283 698 CURVE SMOOTH",
"346 699 OFFCURVE",
"406 646 OFFCURVE",
"406 552 CURVE SMOOTH",
"406 120 LINE",
"389 88 OFFCURVE",
"343 64 OFFCURVE",
"293 64 CURVE SMOOTH",
"206 64 OFFCURVE",
"192 134 OFFCURVE",
"192 282 CURVE SMOOTH"
);
}
);
width = 606;
}
);
leftKerningGroup = o;
unicode = 0064;
},
{
glyphname = eth;
lastChange = "2019-05-01 22:57:23 +0000";
layers = (
{
layerId = "B520048A-B5B0-4F8C-90F0-FFAF6C62D524";
paths = (
{
closed = 1;
nodes = (
"92 105 OFFCURVE",
"198 -14 OFFCURVE",
"433 -14 CURVE SMOOTH",
"488 -14 LINE SMOOTH",
"637 -14 OFFCURVE",
"798 75 OFFCURVE",
"798 322 CURVE SMOOTH",
"798 416 LINE SMOOTH",
"798 656 OFFCURVE",
"685 871 OFFCURVE",
"552 1068 CURVE SMOOTH",
"396 1300 LINE",
"243 1270 LINE",
"402 1048 LINE SMOOTH",
"492 923 OFFCURVE",
"556 785 OFFCURVE",
"594 721 CURVE",
"590 721 LINE",
"552 754 OFFCURVE",
"491 773 OFFCURVE",
"427 773 CURVE SMOOTH",
"410 773 LINE SMOOTH",
"213 773 OFFCURVE",
"92 681 OFFCURVE",
"92 413 CURVE SMOOTH",
"92 333 LINE SMOOTH"
);
},
{
closed = 1;
nodes = (
"242 426 LINE SMOOTH",
"242 614 OFFCURVE",
"318 664 OFFCURVE",
"433 664 CURVE SMOOTH",
"533 664 OFFCURVE",
"648 627 OFFCURVE",
"648 412 CURVE SMOOTH",
"648 328 LINE SMOOTH",
"648 144 OFFCURVE",
"572 88 OFFCURVE",
"451 88 CURVE SMOOTH",
"333 88 OFFCURVE",
"242 142 OFFCURVE",
"242 356 CURVE SMOOTH"
);
},
{
closed = 1;
nodes = (
"694 1132 LINE",
"654 1232 LINE",
"111 1032 LINE",
"151 932 LINE"
);
}
);
width = 888;
},
{
layerId = "21D66A2E-3203-408D-B482-78BB09110413";
paths = (
{
closed = 1;
nodes = (
"60 105 OFFCURVE",
"186 -24 OFFCURVE",
"421 -24 CURVE SMOOTH",
"476 -24 LINE SMOOTH",
"625 -24 OFFCURVE",
"806 75 OFFCURVE",
"806 322 CURVE SMOOTH",
"806 416 LINE SMOOTH",
"806 656 OFFCURVE",
"673 871 OFFCURVE",
"540 1068 CURVE SMOOTH",
"384 1300 LINE",
"131 1270 LINE",
"290 1048 LINE SMOOTH",
"380 923 OFFCURVE",
"444 785 OFFCURVE",
"482 721 CURVE",
"578 721 LINE",
"540 754 OFFCURVE",
"479 779 OFFCURVE",
"415 779 CURVE SMOOTH",
"398 779 LINE SMOOTH",
"201 779 OFFCURVE",
"60 681 OFFCURVE",
"60 413 CURVE SMOOTH",
"60 333 LINE SMOOTH"
);
},
{
closed = 1;
nodes = (
"310 414 LINE SMOOTH",
"310 558 OFFCURVE",
"349 602 OFFCURVE",
"427 602 CURVE SMOOTH",
"498 602 OFFCURVE",
"556 568 OFFCURVE",
"556 403 CURVE SMOOTH",
"556 339 LINE SMOOTH",
"556 199 OFFCURVE",
"517 146 OFFCURVE",
"436 146 CURVE SMOOTH",
"356 146 OFFCURVE",
"310 197 OFFCURVE",
"310 361 CURVE SMOOTH"
);
},
{
closed = 1;
nodes = (
"782 1032 LINE",
"742 1232 LINE",
"99 1032 LINE",
"139 832 LINE"
);
}
);
width = 866;
},
{
layerId = "C5422B82-5DE8-4106-A997-45BC085AEC07";
paths = (
{
closed = 1;
nodes = (
"66 105 OFFCURVE",
"123 -14 OFFCURVE",
"281 -14 CURVE SMOOTH",
"323 -14 LINE SMOOTH",
"415 -14 OFFCURVE",
"516 75 OFFCURVE",
"516 322 CURVE SMOOTH",
"516 416 LINE SMOOTH",
"516 656 OFFCURVE",
"451 871 OFFCURVE",
"349 1068 CURVE SMOOTH",
"229 1300 LINE",
"111 1270 LINE",
"234 1048 LINE SMOOTH",
"303 923 OFFCURVE",
"352 805 OFFCURVE",
"372 721 CURVE",
"378 721 LINE",
"349 754 OFFCURVE",
"302 773 OFFCURVE",
"276 773 CURVE SMOOTH",
"263 773 LINE SMOOTH",
"134 773 OFFCURVE",
"66 681 OFFCURVE",
"66 413 CURVE SMOOTH",
"66 333 LINE SMOOTH"
);
},
{
closed = 1;
nodes = (
"186 426 LINE SMOOTH",
"186 614 OFFCURVE",
"230 664 OFFCURVE",
"282 664 CURVE SMOOTH",
"325 664 OFFCURVE",
"396 627 OFFCURVE",
"396 412 CURVE SMOOTH",
"396 328 LINE SMOOTH",
"396 144 OFFCURVE",
"349 88 OFFCURVE",
"293 88 CURVE SMOOTH",
"239 88 OFFCURVE",
"186 142 OFFCURVE",
"186 356 CURVE SMOOTH"
);
},
{
closed = 1;
nodes = (
"513 1132 LINE",
"482 1232 LINE",
"64 1032 LINE",
"94 932 LINE"
);
}
);
width = 580;
}
);
leftMetricsKey = o;
rightMetricsKey = o;
unicode = 00F0;
},
